<svg width="44" height="44" viewBox="0 0 44 44" fill="none" xmlns="http://www.w3.org/2000/svg">
<circle cx="22" cy="22" r="22" fill="#E0E0E0"/>
<g clip-path="url(#clip0)">
<path d="M19.5223 28.568C19.4071 28.3367 19.2063 28.3133 19.125 28.3133C19.0438 28.3133 18.843 28.3363 18.7336 28.5551L18.434 29.1543C18.1852 29.6535 17.4563 29.5984 17.2824 29.0727L16.625 27.1012L16.2106 28.3465C15.9805 29.0363 15.3363 29.5 14.609 29.5H14.125C13.7797 29.5 13.5 29.2203 13.5 28.875C13.5 28.5297 13.7797 28.25 14.125 28.25H14.609C14.7977 28.25 14.9649 28.1297 15.0246 27.9508L15.7352 25.8164C15.8641 25.4332 16.2211 25.1754 16.625 25.1754C17.0289 25.1754 17.386 25.4328 17.5145 25.8164L18.0567 27.443C18.8281 26.8105 20.1684 27.0641 20.6348 27.9961C20.7086 28.1437 20.8492 28.2285 21.0004 28.2406V25.0328L26.0004 20.0684V18.25H20.6875C20.1719 18.25 19.75 17.8281 19.75 17.3125V12H11.9375C11.418 12 11 12.418 11 12.9375V31.0625C11 31.582 11.418 32 11.9375 32H25.0625C25.5821 32 26 31.582 26 31.0625V29.5L21 29.4957C20.3703 29.4836 19.8055 29.1332 19.5223 28.568V28.568ZM26 16.7617C26 16.5156 25.9024 16.2773 25.7266 16.1016L21.9024 12.2734C21.7266 12.0977 21.4883 12 21.2383 12H21V17H26V16.7617ZM22.25 25.5531V28.25H24.945L31.2606 21.8914L28.609 19.2398L22.25 25.5531V25.5531ZM33.2087 18.5363L31.9637 17.2914C31.5754 16.9031 30.9454 16.9031 30.5571 17.2914L29.4926 18.3559L32.1442 21.0074L33.2087 19.943C33.5973 19.5547 33.5973 18.9246 33.2087 18.5363Z" fill="#828282"/>
</g>
<defs>
<clipPath id="clip0">
<rect width="22.5" height="20" fill="white" transform="translate(11 12)"/>
</clipPath>
</defs>
</svg>
