<svg width="44" height="44" viewBox="0 0 44 44" fill="none" xmlns="http://www.w3.org/2000/svg">
<circle cx="22" cy="22" r="20" fill="white" stroke="#DF0E2C" stroke-width="4"/>
<path d="M18.75 22C21.571 22 23.8542 19.7634 23.8542 17C23.8542 14.2366 21.571 12 18.75 12C15.929 12 13.6458 14.2366 13.6458 17C13.6458 19.7634 15.929 22 18.75 22ZM22.25 23.4286H21.8717C20.9238 23.875 19.8711 24.1429 18.75 24.1429C17.6289 24.1429 16.5807 23.875 15.6283 23.4286H15.25C12.3516 23.4286 10 25.7321 10 28.5714V29.8571C10 31.0402 10.9798 32 12.1875 32H25.3125C26.5202 32 27.5 31.0402 27.5 29.8571V28.5714C27.5 25.7321 25.1484 23.4286 22.25 23.4286Z" fill="#DF0E2C"/>
<mask id="path-3-outside-1" maskUnits="userSpaceOnUse" x="19.9453" y="17.7778" width="16" height="16" fill="black">
<rect fill="white" x="19.9453" y="17.7778" width="16" height="16"/>
<path fill-rule="evenodd" clip-rule="evenodd" d="M27.8957 29.9961C31.182 29.9961 33.8461 27.7087 33.8461 24.887C33.8461 22.0653 31.182 19.7778 27.8957 19.7778C24.6094 19.7778 21.9453 22.0653 21.9453 24.887C21.9453 26.5668 22.8895 28.0573 24.3471 28.9885C24.0186 30.0633 23.4628 31.2276 22.6432 31.5554C23.8625 31.3918 26.0275 30.8722 26.9676 29.9343C27.27 29.975 27.58 29.9961 27.8957 29.9961Z"/>
</mask>
<path fill-rule="evenodd" clip-rule="evenodd" d="M27.8957 29.9961C31.182 29.9961 33.8461 27.7087 33.8461 24.887C33.8461 22.0653 31.182 19.7778 27.8957 19.7778C24.6094 19.7778 21.9453 22.0653 21.9453 24.887C21.9453 26.5668 22.8895 28.0573 24.3471 28.9885C24.0186 30.0633 23.4628 31.2276 22.6432 31.5554C23.8625 31.3918 26.0275 30.8722 26.9676 29.9343C27.27 29.975 27.58 29.9961 27.8957 29.9961Z" fill="#DF0E2C"/>
<path d="M24.3471 28.9885L25.7816 29.427C25.9784 28.7831 25.722 28.087 25.1547 27.7245L24.3471 28.9885ZM22.6432 31.5554L22.0861 30.1627C21.3833 30.4438 21.0001 31.2045 21.1925 31.9366C21.3848 32.6687 22.0925 33.1428 22.8427 33.0421L22.6432 31.5554ZM26.9676 29.9343L27.1675 28.4477C26.7045 28.3855 26.2389 28.5425 25.9082 28.8724L26.9676 29.9343ZM32.3461 24.887C32.3461 26.6739 30.5763 28.4961 27.8957 28.4961V31.4961C31.7878 31.4961 35.3461 28.7435 35.3461 24.887H32.3461ZM27.8957 21.2778C30.5763 21.2778 32.3461 23.1001 32.3461 24.887H35.3461C35.3461 21.0305 31.7878 18.2778 27.8957 18.2778V21.2778ZM23.4453 24.887C23.4453 23.1001 25.2152 21.2778 27.8957 21.2778V18.2778C24.0037 18.2778 20.4453 21.0305 20.4453 24.887H23.4453ZM25.1547 27.7245C24.0528 27.0205 23.4453 25.9712 23.4453 24.887H20.4453C20.4453 27.1625 21.7262 29.0941 23.5395 30.2526L25.1547 27.7245ZM23.2003 32.9481C24.0513 32.6077 24.6099 31.9111 24.9623 31.3291C25.3319 30.719 25.5967 30.0321 25.7816 29.427L22.9126 28.5501C22.769 29.0198 22.5917 29.4524 22.3963 29.775C22.1838 30.1259 22.0546 30.1753 22.0861 30.1627L23.2003 32.9481ZM25.9082 28.8724C25.6947 29.0854 25.1967 29.3612 24.4402 29.6107C23.7309 29.8447 22.9772 29.9972 22.4437 30.0688L22.8427 33.0421C23.5285 32.9501 24.4669 32.7609 25.38 32.4597C26.2458 32.1741 27.3004 31.7211 28.027 30.9963L25.9082 28.8724ZM27.8957 28.4961C27.6469 28.4961 27.4037 28.4795 27.1675 28.4477L26.7677 31.421C27.1363 31.4705 27.5131 31.4961 27.8957 31.4961V28.4961Z" fill="white" mask="url(#path-3-outside-1)"/>
</svg>
