<svg width="44" height="44" viewBox="0 0 44 44" fill="none" xmlns="http://www.w3.org/2000/svg">
<circle cx="22" cy="22" r="22" fill="#E0E0E0"/>
<path d="M23.75 17.3125V12H15.9375C15.418 12 15 12.418 15 12.9375V31.0625C15 31.582 15.418 32 15.9375 32H29.0625C29.582 32 30 31.582 30 31.0625V18.25H24.6875C24.1719 18.25 23.75 17.8281 23.75 17.3125ZM26.25 26.5312C26.25 26.7891 26.0391 27 25.7812 27H19.2188C18.9609 27 18.75 26.7891 18.75 26.5312V26.2188C18.75 25.9609 18.9609 25.75 19.2188 25.75H25.7812C26.0391 25.75 26.25 25.9609 26.25 26.2188V26.5312ZM26.25 24.0312C26.25 24.2891 26.0391 24.5 25.7812 24.5H19.2188C18.9609 24.5 18.75 24.2891 18.75 24.0312V23.7188C18.75 23.4609 18.9609 23.25 19.2188 23.25H25.7812C26.0391 23.25 26.25 23.4609 26.25 23.7188V24.0312ZM26.25 21.2188V21.5312C26.25 21.7891 26.0391 22 25.7812 22H19.2188C18.9609 22 18.75 21.7891 18.75 21.5312V21.2188C18.75 20.9609 18.9609 20.75 19.2188 20.75H25.7812C26.0391 20.75 26.25 20.9609 26.25 21.2188ZM30 16.7617V17H25V12H25.2383C25.4883 12 25.7266 12.0977 25.9023 12.2734L29.7266 16.1016C29.9023 16.2773 30 16.5156 30 16.7617Z" fill="#828282"/>
</svg>
