<svg width="44" height="44" viewBox="0 0 44 44" fill="none" xmlns="http://www.w3.org/2000/svg">
<circle cx="22" cy="22" r="22" fill="#E0E0E0"/>
<path d="M18.8889 22C21.6944 22 23.9683 19.7617 23.9683 17C23.9683 14.2383 21.6944 12 18.8889 12C16.0833 12 13.8095 14.2383 13.8095 17C13.8095 19.7617 16.0833 22 18.8889 22ZM22.6905 23.2734L21.1111 27.5556L19.5238 25.4375L20.7937 23.25H16.9841L18.254 25.4375L16.9841 30.75L15.0873 23.2734C12.2579 23.4063 10 25.6836 10 28.5V30.125C10 31.1602 10.8532 32 11.9048 32H25.873C26.9246 32 26.1111 30.2574 26.1111 29.2222L27.7778 28.5C27.7778 25.6836 25.5198 23.4063 22.6905 23.2734Z" fill="#828282"/>
<mask id="path-3-outside-1" maskUnits="userSpaceOnUse" x="20.2227" y="17.7778" width="16" height="16" fill="black">
<rect fill="white" x="20.2227" y="17.7778" width="16" height="16"/>
<path fill-rule="evenodd" clip-rule="evenodd" d="M28.1731 29.9961C31.4594 29.9961 34.1235 27.7087 34.1235 24.887C34.1235 22.0653 31.4594 19.7778 28.1731 19.7778C24.8867 19.7778 22.2227 22.0653 22.2227 24.887C22.2227 26.567 23.167 28.0576 24.6248 28.9888C24.2963 30.0635 23.7405 31.2276 22.921 31.5554C24.1402 31.3918 26.3052 30.8722 27.2453 29.9344C27.5476 29.975 27.8575 29.9961 28.1731 29.9961Z"/>
</mask>
<path fill-rule="evenodd" clip-rule="evenodd" d="M28.1731 29.9961C31.4594 29.9961 34.1235 27.7087 34.1235 24.887C34.1235 22.0653 31.4594 19.7778 28.1731 19.7778C24.8867 19.7778 22.2227 22.0653 22.2227 24.887C22.2227 26.567 23.167 28.0576 24.6248 28.9888C24.2963 30.0635 23.7405 31.2276 22.921 31.5554C24.1402 31.3918 26.3052 30.8722 27.2453 29.9344C27.5476 29.975 27.8575 29.9961 28.1731 29.9961Z" fill="#828282"/>
<path d="M24.6248 28.9888L26.0593 29.4273C26.2561 28.7833 25.9997 28.0872 25.4323 27.7247L24.6248 28.9888ZM22.921 31.5554L22.3639 30.1627C21.6611 30.4438 21.2779 31.2045 21.4703 31.9366C21.6626 32.6687 22.3703 33.1428 23.1205 33.0421L22.921 31.5554ZM27.2453 29.9344L27.4451 28.4478C26.9822 28.3855 26.5166 28.5425 26.1859 28.8724L27.2453 29.9344ZM32.6235 24.887C32.6235 26.6739 30.8536 28.4961 28.1731 28.4961V31.4961C32.0651 31.4961 35.6235 28.7435 35.6235 24.887H32.6235ZM28.1731 21.2778C30.8536 21.2778 32.6235 23.1001 32.6235 24.887H35.6235C35.6235 21.0305 32.0651 18.2778 28.1731 18.2778V21.2778ZM23.7227 24.887C23.7227 23.1001 25.4925 21.2778 28.1731 21.2778V18.2778C24.281 18.2778 20.7227 21.0305 20.7227 24.887H23.7227ZM25.4323 27.7247C24.3302 27.0207 23.7227 25.9713 23.7227 24.887H20.7227C20.7227 27.1627 22.0038 29.0944 23.8173 30.2529L25.4323 27.7247ZM23.4781 32.9481C24.3291 32.6078 24.8876 31.9112 25.24 31.3293C25.6095 30.7192 25.8743 30.0323 26.0593 29.4273L23.1903 28.5503C23.0468 29.0199 22.8694 29.4525 22.674 29.7751C22.4615 30.1259 22.3324 30.1753 22.3639 30.1627L23.4781 32.9481ZM26.1859 28.8724C25.9724 29.0854 25.4744 29.3612 24.7179 29.6107C24.0086 29.8447 23.255 29.9972 22.7215 30.0688L23.1205 33.0421C23.8063 32.9501 24.7447 32.7609 25.6577 32.4597C26.5236 32.1741 27.5781 31.7212 28.3047 30.9963L26.1859 28.8724ZM28.1731 28.4961C27.9243 28.4961 27.6812 28.4795 27.4451 28.4478L27.0455 31.421C27.414 31.4706 27.7906 31.4961 28.1731 31.4961V28.4961Z" fill="#E0E0E0" mask="url(#path-3-outside-1)"/>
</svg>
