<svg width="44" height="44" viewBox="0 0 44 44" fill="none" xmlns="http://www.w3.org/2000/svg">
<circle cx="22" cy="22" r="22" fill="#E0E0E0"/>
<path d="M28.125 14.5H25C25 13.1211 23.8789 12 22.5 12C21.1211 12 20 13.1211 20 14.5H16.875C15.8398 14.5 15 15.3398 15 16.375V30.125C15 31.1602 15.8398 32 16.875 32H28.125C29.1602 32 30 31.1602 30 30.125V16.375C30 15.3398 29.1602 14.5 28.125 14.5ZM22.5 13.5625C23.0195 13.5625 23.4375 13.9805 23.4375 14.5C23.4375 15.0195 23.0195 15.4375 22.5 15.4375C21.9805 15.4375 21.5625 15.0195 21.5625 14.5C21.5625 13.9805 21.9805 13.5625 22.5 13.5625ZM26.25 25.4375C26.25 25.6094 26.1094 25.75 25.9375 25.75H23.75V27.9375C23.75 28.1094 23.6094 28.25 23.4375 28.25H21.5625C21.3906 28.25 21.25 28.1094 21.25 27.9375V25.75H19.0625C18.8906 25.75 18.75 25.6094 18.75 25.4375V23.5625C18.75 23.3906 18.8906 23.25 19.0625 23.25H21.25V21.0625C21.25 20.8906 21.3906 20.75 21.5625 20.75H23.4375C23.6094 20.75 23.75 20.8906 23.75 21.0625V23.25H25.9375C26.1094 23.25 26.25 23.3906 26.25 23.5625V25.4375ZM26.25 17.9375C26.25 18.1094 26.1094 18.25 25.9375 18.25H19.0625C18.8906 18.25 18.75 18.1094 18.75 17.9375V17.3125C18.75 17.1406 18.8906 17 19.0625 17H25.9375C26.1094 17 26.25 17.1406 26.25 17.3125V17.9375Z" fill="#828282"/>
</svg>
