<svg width="21" height="16" viewBox="0 0 21 16" fill="none" xmlns="http://www.w3.org/2000/svg">
<path d="M18.9137 14H2.93746V4H18.9137V14ZM18.9137 2H10.9256L8.92854 0H2.93746C1.82911 0 0.94043 0.89 0.94043 2V14C0.94043 15.1 1.83909 16 2.93746 16H18.9137C20.012 16 20.9107 15.1 20.9107 14V4C20.9107 3.46957 20.7003 2.96086 20.3258 2.58579C19.9513 2.21071 19.4433 2 18.9137 2ZM12.7529 8C12.3435 6.84 11.2351 6 9.92706 6C8.26952 6 6.93151 7.34 6.93151 9C6.93151 10.66 8.26952 12 9.92706 12C11.2351 12 12.3435 11.17 12.7529 10H14.9196V12H16.9167V10H17.9152V8H12.7529ZM9.92706 10C9.37787 10 8.92854 9.56 8.92854 9C8.92854 8.45 9.37787 8 9.92706 8C10.4762 8 10.9256 8.45 10.9256 9C10.9256 9.55 10.4762 10 9.92706 10Z" fill="#DF0E2C"/>
</svg>
