<svg width="125" height="94" viewBox="0 0 125 94" fill="none" xmlns="http://www.w3.org/2000/svg">
<path d="M27.5205 8.40421C16.2813 19.6277 16.2684 37.8371 27.4919 49.0763C38.7153 60.3155 56.9247 60.3284 68.164 49.105C79.4032 37.8815 79.4161 19.6721 68.1926 8.43288C68.1881 8.42837 68.1836 8.42387 68.1791 8.41936C56.951 -2.8006 38.7573 -2.80736 27.5205 8.40421ZM45.4503 26.3645C42.7177 29.1057 38.2802 29.1128 35.539 26.3802C32.7978 23.6476 32.7906 19.2101 35.5232 16.4689C38.2558 13.7277 42.6933 13.7206 45.4345 16.4532L45.4349 16.4536C48.1708 19.1884 48.1775 23.6212 45.4503 26.3645Z" fill="#F2F2F2"/>
<path d="M68.0549 48.4553L112.918 93.3185V93.9849L97.53 94L95.0941 91.5641L94.7615 84.7849L89.3137 84.7544L89.3748 75.7365L80.3558 75.6767L80.1597 68.4896L73.1089 68.3676L72.7905 61.3627L63.7728 61.1817L58.204 55.6129L68.0549 48.4553Z" fill="#E0E0E0"/>
<path d="M112.918 93.3185L68.0551 48.4552C65.2838 51.4759 61.9344 53.9098 58.2054 55.6128L56.5861 53.9935L73.0176 39.7101L111.889 78.5813L112.918 93.3185Z" fill="#F2F2F2"/>
<path d="M13.277 48.7239C13.1916 48.4973 13.1916 48.2474 13.277 48.0207L21.2134 26.9663C21.5387 26.1033 22.7623 26.1033 23.0876 26.9663L31.0239 48.0207C31.1094 48.2474 31.1094 48.4973 31.0239 48.7239L23.0876 69.7783C22.7623 70.6413 21.5387 70.6413 21.2134 69.7783L13.277 48.7239Z" fill="#FFDE2E"/>
<path d="M22.5029 57.2254C22.2758 57.3107 22.0253 57.3107 21.7981 57.2254L0.695298 49.3073C-0.169679 48.9827 -0.169679 47.762 0.695296 47.4374L21.7981 39.5192C22.0253 39.434 22.2758 39.434 22.5029 39.5192L43.6057 47.4374C44.4707 47.762 44.4707 48.9827 43.6057 49.3073L22.5029 57.2254Z" fill="#FFDE2E"/>
<path d="M106.887 72.3516C106.802 72.1249 106.802 71.875 106.887 71.6484L111.095 60.4859C111.42 59.623 112.644 59.623 112.969 60.4859L117.177 71.6484C117.262 71.875 117.262 72.1249 117.177 72.3516L112.969 83.514C112.644 84.377 111.42 84.377 111.095 83.514L106.887 72.3516Z" fill="#FFDE2E"/>
<path d="M112.385 77.1329C112.157 77.2181 111.907 77.2181 111.68 77.1329L100.492 72.9349C99.6266 72.6103 99.6266 71.3896 100.492 71.0651L111.68 66.8671C111.907 66.7818 112.157 66.7818 112.385 66.8671L123.573 71.0651C124.438 71.3896 124.438 72.6103 123.573 72.9349L112.385 77.1329Z" fill="#FFDE2E"/>
</svg>
