<svg width="16" height="16" viewBox="0 0 16 16" fill="none" xmlns="http://www.w3.org/2000/svg">
<path d="M15.3537 7.35388H0.646312C0.289375 7.35388 0 7.64323 0 8.0002C0 8.35716 0.289375 8.64651 0.646312 8.64651H15.3537C15.7107 8.64651 16 8.35716 16 8.0002C16 7.64326 15.7107 7.35388 15.3537 7.35388Z" fill="white"/>
<path d="M15.3537 2.45117H0.646312C0.289375 2.45117 0 2.74055 0 3.09748C0 3.45442 0.289375 3.7438 0.646312 3.7438H15.3537C15.7107 3.7438 16 3.45442 16 3.09748C16 2.74055 15.7107 2.45117 15.3537 2.45117Z" fill="white"/>
<path d="M15.3537 12.2561H0.646312C0.289375 12.2561 0 12.5454 0 12.9024C0 13.2594 0.289375 13.5487 0.646312 13.5487H15.3537C15.7107 13.5487 16 13.2594 16 12.9024C16 12.5454 15.7107 12.2561 15.3537 12.2561Z" fill="white"/>
</svg>
