<svg width="26" height="26" viewBox="0 0 26 26" fill="none" xmlns="http://www.w3.org/2000/svg">
<path d="M21.0492 14.0615C21.0925 13.7148 21.125 13.3682 21.125 12.9998C21.125 12.6315 21.0925 12.2848 21.0492 11.9382L23.335 10.1507C23.5408 9.98817 23.595 9.69567 23.465 9.45734L21.2983 5.709C21.2008 5.53567 21.0167 5.43817 20.8217 5.43817C20.7567 5.43817 20.6917 5.449 20.6375 5.47067L17.94 6.554C17.3767 6.12067 16.77 5.76317 16.1092 5.49234L15.6975 2.6215C15.665 2.3615 15.4375 2.1665 15.1667 2.1665H10.8333C10.5625 2.1665 10.335 2.3615 10.3025 2.6215L9.89084 5.49234C9.23001 5.76317 8.62334 6.1315 8.06001 6.554L5.36251 5.47067C5.29751 5.449 5.23251 5.43817 5.16751 5.43817C4.98334 5.43817 4.79918 5.53567 4.70168 5.709L2.53501 9.45734C2.39418 9.69567 2.45918 9.98817 2.66501 10.1507L4.95084 11.9382C4.90751 12.2848 4.87501 12.6423 4.87501 12.9998C4.87501 13.3573 4.90751 13.7148 4.95084 14.0615L2.66501 15.849C2.45918 16.0115 2.40501 16.304 2.53501 16.5423L4.70168 20.2907C4.79918 20.464 4.98334 20.5615 5.17834 20.5615C5.24334 20.5615 5.30834 20.5507 5.36251 20.529L8.06001 19.4457C8.62334 19.879 9.23001 20.2365 9.89084 20.5073L10.3025 23.3782C10.335 23.6382 10.5625 23.8332 10.8333 23.8332H15.1667C15.4375 23.8332 15.665 23.6382 15.6975 23.3782L16.1092 20.5073C16.77 20.2365 17.3767 19.8682 17.94 19.4457L20.6375 20.529C20.7025 20.5507 20.7675 20.5615 20.8325 20.5615C21.0167 20.5615 21.2008 20.464 21.2983 20.2907L23.465 16.5423C23.595 16.304 23.5408 16.0115 23.335 15.849L21.0492 14.0615V14.0615ZM18.9042 12.209C18.9475 12.5448 18.9583 12.7723 18.9583 12.9998C18.9583 13.2273 18.9367 13.4657 18.9042 13.7907L18.7525 15.0148L19.7167 15.7732L20.8867 16.6832L20.1283 17.994L18.7525 17.4415L17.6258 16.9865L16.6508 17.7232C16.185 18.0698 15.7408 18.3298 15.2967 18.514L14.1483 18.9798L13.975 20.204L13.7583 21.6665H12.2417L12.0358 20.204L11.8625 18.9798L10.7142 18.514C10.2483 18.319 9.81501 18.0698 9.38168 17.7448L8.39584 16.9865L7.24751 17.4523L5.87168 18.0048L5.11334 16.694L6.28334 15.784L7.24751 15.0257L7.09584 13.8015C7.06334 13.4657 7.04168 13.2165 7.04168 12.9998C7.04168 12.7832 7.06334 12.534 7.09584 12.209L7.24751 10.9848L6.28334 10.2265L5.11334 9.31651L5.87168 8.00567L7.24751 8.55817L8.37418 9.01317L9.34918 8.2765C9.81501 7.92984 10.2592 7.66984 10.7033 7.48567L11.8517 7.01984L12.025 5.79567L12.2417 4.33317H13.7475L13.9533 5.79567L14.1267 7.01984L15.275 7.48567C15.7408 7.68067 16.1742 7.92984 16.6075 8.25484L17.5933 9.01317L18.7417 8.54734L20.1175 7.99484L20.8758 9.30567L19.7167 10.2265L18.7525 10.9848L18.9042 12.209ZM13 8.6665C10.6058 8.6665 8.66668 10.6057 8.66668 12.9998C8.66668 15.394 10.6058 17.3332 13 17.3332C15.3942 17.3332 17.3333 15.394 17.3333 12.9998C17.3333 10.6057 15.3942 8.6665 13 8.6665ZM13 15.1665C11.8083 15.1665 10.8333 14.1915 10.8333 12.9998C10.8333 11.8082 11.8083 10.8332 13 10.8332C14.1917 10.8332 15.1667 11.8082 15.1667 12.9998C15.1667 14.1915 14.1917 15.1665 13 15.1665Z" fill="#535353"/>
</svg>
