<svg width="175" height="32" viewBox="0 0 175 32" fill="none" xmlns="http://www.w3.org/2000/svg">
<path fill-rule="evenodd" clip-rule="evenodd" d="M101.816 24.0392H101.844L101.872 24.0363L101.901 24.0333L101.915 24.0278L101.943 24.022L101.972 24.0138L102 24.005L102.014 23.9954L102.043 23.9838L102.057 23.9712L102.085 23.9572L102.099 23.9429L102.127 23.926L102.142 23.9088L102.156 23.8919L102.184 23.8735L102.198 23.8537L102.213 23.8324L102.227 23.8111L102.241 23.7886L102.255 23.7659L102.269 23.7417L102.284 23.7177V23.6921L102.298 23.6652L102.312 23.6399V23.6127L102.326 23.5845V7.91817C102.326 7.60667 102.099 7.35146 101.816 7.35146H99.0369C98.7534 7.35146 98.5265 7.60667 98.5265 7.91817V23.4698C98.5265 23.7857 98.7534 24.0392 99.0369 24.0392H101.816ZM119.664 7.35146H116.999C116.716 7.35146 116.489 7.60667 116.489 7.91817V14.3914H110.86V7.91817C110.86 7.60667 110.634 7.35146 110.365 7.35146H107.685C107.416 7.35146 107.174 7.60667 107.174 7.91817V23.4698C107.174 23.7857 107.416 24.0392 107.685 24.0392H110.364C110.634 24.0392 110.86 23.7854 110.86 23.4698V16.1764H116.489V23.4698C116.489 23.7857 116.716 24.0392 116.999 24.0392H119.664C119.948 24.0392 120.175 23.7854 120.175 23.4698V7.91817C120.175 7.60667 119.948 7.35146 119.664 7.35146V7.35146ZM65.7215 7.35117C65.4395 7.35117 65.2254 7.60637 65.2254 7.91787V23.4637C65.2254 23.774 65.4395 24.0304 65.7215 24.0304H72.2785C76.1504 24.0304 79.1898 21.6562 79.1898 15.6733C79.1898 9.78046 76.193 7.35117 72.3494 7.35117H65.7215ZM68.9115 9.15717H71.3924C74.3995 9.15717 75.362 11.1545 75.362 15.673C75.362 20.2399 74.4605 22.26 71.3924 22.26H68.9115V9.15717ZM86.8455 7.35117C86.6968 7.35117 86.511 7.49992 86.4558 7.66996L81.0329 23.7475C80.9775 23.9146 81.0612 24.0307 81.2102 24.0307H82.8406C82.9908 24.0307 83.1752 23.9146 83.2303 23.7478L84.5772 19.6397H90.4251L91.6659 23.4643C91.765 23.7743 92.1054 24.0307 92.3746 24.0307H95.352C95.6212 24.0307 95.7702 23.8085 95.6708 23.4999L90.2481 7.91817C90.1489 7.59237 89.8581 7.35146 89.5746 7.35146L86.8455 7.35117ZM87.4837 10.68L89.8228 17.8687H85.1445L87.4837 10.68ZM128.42 7.35117C128.264 7.35117 128.101 7.47862 128.03 7.63467L122.643 23.7472C122.586 23.9143 122.643 24.0304 122.785 24.0304H124.451C124.592 24.0304 124.784 23.9143 124.84 23.7475L126.187 19.6394H132.035L133.276 23.464C133.375 23.774 133.701 24.0304 133.985 24.0304H136.926C137.196 24.0304 137.359 23.7796 137.246 23.464L131.858 7.91787C131.759 7.60608 131.433 7.35117 131.149 7.35117H128.42ZM129.094 10.68L131.433 17.8687H126.755L129.094 10.68ZM148.784 7.36575H136.308C136.167 7.36575 136.039 7.49321 136.039 7.66325V8.86725C136.039 9.03729 136.153 9.17875 136.308 9.17875H140.746V23.4698C140.746 23.7857 140.973 24.0392 141.256 24.0392H143.95C144.234 24.0392 144.46 23.7854 144.46 23.4698V9.17875H148.784C148.968 9.17875 149.096 9.03729 149.096 8.86725V7.66325C149.096 7.49321 148.954 7.36575 148.784 7.36575H148.784ZM172.829 18.5389V7.66325C172.829 7.49321 172.956 7.36575 173.112 7.36575H174.728C174.884 7.36575 174.998 7.49321 174.998 7.66325V18.0075C174.998 18.9595 175.012 19.264 174.969 19.8447C174.771 23.1423 172.644 24.2104 169.242 24.2104C165.201 24.2104 163.316 21.9255 162.947 19.8675C162.805 19.0654 162.777 18.24 162.791 17.5429V7.93246C162.791 7.60667 163.018 7.36575 163.302 7.36575H165.967C166.251 7.36575 166.477 7.60667 166.477 7.93246V18.7769C166.463 19.2089 166.463 19.6735 166.562 20.1664C166.732 21.0732 167.342 22.556 169.709 22.556C171.794 22.556 172.829 21.3223 172.829 19.801V18.5389ZM158.793 9.94379H158.822V9.95779H158.935L158.949 9.94379H158.964V9.9295H158.978V9.9155H158.992V9.90121L159.006 9.88721L159.02 9.87292V9.84462L159.034 9.83033V9.80204L159.048 9.78804V8.28625C159.048 8.08792 158.964 8.01704 158.793 7.93217C158.793 7.93217 158.453 7.73383 157.631 7.50721C156.759 7.28554 155.864 7.17133 154.965 7.16712C152.513 7.16712 151.365 7.97446 150.67 8.92354C149.975 9.85833 149.72 11.02 149.947 12.2949C150.33 14.4337 152.045 15.7512 153.775 17.0459C155.121 18.0585 156.426 18.8376 156.851 20.1378C157.035 20.6745 156.965 21.4935 156.511 21.9141C156.015 22.3691 155.462 22.5458 154.554 22.5458C153.519 22.5458 152.229 22.3236 150.868 21.6933C150.627 21.5714 150.344 21.4325 150.344 21.4325C150.202 21.3716 150.088 21.4553 150.088 21.6154V23.1155C150.088 23.2811 150.202 23.42 150.358 23.4865C150.358 23.4865 150.542 23.5629 150.727 23.6238C151.861 24.0117 153.137 24.2101 154.582 24.2101C157.007 24.2101 158.297 23.3421 158.978 22.5671C159.758 21.6875 160.14 20.3758 159.857 18.8105C159.389 16.3374 157.319 14.9861 155.66 13.8247C154.413 12.9465 153.165 12.0823 152.839 11.0909C152.612 10.3402 152.924 9.83004 153.108 9.57512C153.434 9.13617 154.172 8.81037 155.121 8.81037C155.958 8.81037 156.837 8.96612 157.787 9.41937C157.985 9.50425 158.396 9.70258 158.793 9.9435V9.94379ZM54.0829 0H0V31.7917H54.0829V0Z" fill="#E92227"/>
<path fill-rule="evenodd" clip-rule="evenodd" d="M16.3363 9.37715H17.3201L18.3255 9.39144L20.3937 9.41973L22.5258 9.4906L24.7051 9.57548L26.9125 9.68894L29.1312 9.84469L31.3443 10.0147L33.5333 10.2271L35.6823 10.468L37.7735 10.7372L38.7915 10.8786L39.7895 11.0487L40.7637 11.2044L41.7119 11.3888L42.6336 11.5725L43.5252 11.7709L44.3856 11.9692L45.211 12.1961L46.0006 12.4227L46.7519 12.6494L47.4621 12.9043L48.13 13.1592C48.772 13.4141 49.2824 13.6407 49.2824 14.1083C49.2824 14.7599 47.8705 15.2131 46.569 15.6241C41.4625 17.2174 32.341 19.0701 18.9847 20.0224L6.59525 7.64873C5.39446 7.67702 4.39229 7.7196 3.64941 7.77619L16.4483 20.5588L12.9749 25.6212C33.6593 22.3519 43.0136 19.0812 47.1673 17.1734C48.0577 16.768 50.611 15.6238 50.611 14.108C50.611 13.2015 49.7476 12.6491 48.6288 12.1675C44.3646 10.3402 37.1978 9.12194 30.115 8.51294C22.7769 7.79048 13.0032 7.59215 7.60325 7.64873L19.1334 19.1655C21.2831 19.0102 23.4302 18.8218 25.574 18.6002L16.3363 9.37715Z" fill="white"/>
</svg>
