<svg width="20" height="20" viewBox="0 0 20 20" fill="none" xmlns="http://www.w3.org/2000/svg">
<rect width="20" height="20" rx="4" fill="#BDBDBD"/>
<g clip-path="url(#clip0)">
<path d="M12.876 5.625H7.93798C5.2108 5.625 3 7.8076 3 10.5C3 13.1924 5.2108 15.375 7.93798 15.375H12.876C15.6032 15.375 17.814 13.1924 17.814 10.5C17.814 7.8076 15.6032 5.625 12.876 5.625ZM4.64599 10.5C4.64599 8.70384 6.11836 7.25 7.93798 7.25C9.75735 7.25 11.23 8.70359 11.23 10.5C11.23 12.2962 9.75761 13.75 7.93798 13.75C6.11862 13.75 4.64599 12.2964 4.64599 10.5ZM12.876 13.75H11.6182C13.2955 11.9001 13.296 9.10047 11.6182 7.25H12.876C14.6953 7.25 16.168 8.70359 16.168 10.5C16.168 12.2961 14.6956 13.75 12.876 13.75Z" fill="#E8F7EE"/>
</g>
<defs>
<clipPath id="clip0">
<rect width="14.814" height="13" fill="white" transform="translate(3 4)"/>
</clipPath>
</defs>
</svg>
