<svg width="20" height="20" viewBox="0 0 20 20" fill="none" xmlns="http://www.w3.org/2000/svg">
<rect width="20" height="20" rx="4" fill="#DF0E2C"/>
<g clip-path="url(#clip0)">
<path d="M15.5714 3.83101H12.3571L12.1054 3.34525C12.052 3.2414 11.9699 3.15404 11.8681 3.09301C11.7664 3.03197 11.6491 2.99968 11.5295 2.99976H8.46786C8.34849 2.99932 8.23142 3.03149 8.13004 3.09259C8.02866 3.15369 7.94708 3.24126 7.89464 3.34525L7.64286 3.83101H4.42857C4.31491 3.83101 4.2059 3.8748 4.12553 3.95274C4.04515 4.03069 4 4.1364 4 4.24664V5.07789C4 5.18812 4.04515 5.29383 4.12553 5.37178C4.2059 5.44972 4.31491 5.49351 4.42857 5.49351H15.5714C15.6851 5.49351 15.7941 5.44972 15.8745 5.37178C15.9548 5.29383 16 5.18812 16 5.07789V4.24664C16 4.1364 15.9548 4.03069 15.8745 3.95274C15.7941 3.8748 15.6851 3.83101 15.5714 3.83101ZM5.425 15.1308C5.44544 15.4474 5.58951 15.7445 5.82787 15.9616C6.06624 16.1788 6.38098 16.2997 6.70804 16.2998H13.292C13.619 16.2997 13.9338 16.1788 14.1721 15.9616C14.4105 15.7445 14.5546 15.4474 14.575 15.1308L15.1429 6.32476H4.85714L5.425 15.1308Z" fill="#E8F7EE"/>
</g>
<defs>
<clipPath id="clip0">
<rect width="12" height="13.3" fill="white" transform="translate(4 3)"/>
</clipPath>
</defs>
</svg>
