<svg width="20" height="20" viewBox="0 0 20 20" fill="none" xmlns="http://www.w3.org/2000/svg">
<rect width="20" height="20" rx="4" fill="#DFAE2E"/>
<g clip-path="url(#clip0)">
<path d="M12.6527 5.94804L14.7407 8.06251C14.8286 8.15159 14.8286 8.29693 14.7407 8.38601L9.6851 13.5058L7.53696 13.7472C7.24992 13.78 7.00686 13.5339 7.03927 13.2432L7.2777 11.0678L12.3333 5.94804C12.4212 5.85896 12.5647 5.85896 12.6527 5.94804ZM16.4027 5.41121L15.2731 4.26724C14.9212 3.91092 14.3495 3.91092 13.9953 4.26724L13.1758 5.09709C13.0879 5.18617 13.0879 5.33151 13.1758 5.42059L15.2638 7.53506C15.3518 7.62414 15.4953 7.62414 15.5833 7.53506L16.4027 6.70522C16.7545 6.34655 16.7545 5.76753 16.4027 5.41121ZM12.2221 12.1133V14.4997H4.81473V6.99824H10.1342C10.2083 6.99824 10.2777 6.96777 10.3309 6.91619L11.2569 5.97851C11.4328 5.80035 11.3078 5.49795 11.0601 5.49795H4.44436C3.83094 5.49795 3.33325 6.00195 3.33325 6.62317V14.8748C3.33325 15.496 3.83094 16 4.44436 16H12.5925C13.2059 16 13.7036 15.496 13.7036 14.8748V11.1756C13.7036 10.9248 13.405 10.8005 13.2291 10.9764L12.3032 11.914C12.2522 11.968 12.2221 12.0383 12.2221 12.1133Z" fill="#EDFCF3"/>
</g>
<defs>
<clipPath id="clip0">
<rect width="13.3333" height="13.3333" fill="white" transform="translate(3.33325 3.3335)"/>
</clipPath>
</defs>
</svg>
