<svg width="60" height="60" viewBox="0 0 60 60" fill="none" xmlns="http://www.w3.org/2000/svg">
<rect width="60" height="60" rx="8" fill="#E8F7EE"/>
<path d="M29.7 30C33.014 30 35.7 27.3141 35.7 24C35.7 20.6859 33.014 18 29.7 18C26.3859 18 23.7 20.6859 23.7 24C23.7 27.3141 26.3859 30 29.7 30ZM34.1906 31.5281L31.95 40.5L30.45 34.125L31.95 31.5H27.45L28.95 34.125L27.45 40.5L25.2093 31.5281C21.8671 31.6875 19.2 34.4203 19.2 37.8V39.75C19.2 40.9922 20.2078 42 21.45 42H37.95C39.1921 42 40.2 40.9922 40.2 39.75V37.8C40.2 34.4203 37.5328 31.6875 34.1906 31.5281Z" fill="#828282"/>
</svg>
