<svg width="60" height="60" viewBox="0 0 60 60" fill="none" xmlns="http://www.w3.org/2000/svg">
<rect width="60" height="60" rx="8" fill="#E8F7EE"/>
<path fill-rule="evenodd" clip-rule="evenodd" d="M29.9978 40.6635C29.0784 40.6635 28.1594 40.6619 27.2405 40.6602C24.944 40.6561 22.6485 40.6521 20.3506 40.6735C19.1802 40.6836 18.191 39.8915 18.0147 38.6684C18 38.5632 18 38.4529 18 38.3426V21.4795C18 20.2263 18.9794 19.2037 20.1988 19.2037C26.7266 19.1987 33.2544 19.1987 39.7871 19.2037C41.0015 19.2037 41.981 20.2213 41.9956 21.4745C42.0022 22.2097 42 22.9449 41.9978 23.6801L41.9978 23.6821C41.9967 24.049 41.9956 24.416 41.9956 24.783V38.2925C41.9956 39.1797 41.648 39.8765 40.9036 40.3477C40.5265 40.5883 40.1103 40.6735 39.6695 40.6735C36.4473 40.6635 33.2201 40.6635 29.9978 40.6635ZM33.168 25.513H27.5567C27.0822 25.513 26.8692 25.2713 26.8546 24.6702C26.8401 23.9698 26.8401 23.2633 26.8546 22.563C26.8643 21.9804 27.0919 21.7263 27.5421 21.7263H38.789C39.2538 21.7263 39.4717 21.999 39.4717 22.594C39.4765 23.2943 39.4765 23.9946 39.4717 24.7012C39.4669 25.2465 39.2538 25.513 38.8229 25.513C37.5677 25.5172 36.3126 25.5158 35.056 25.5144H35.0559H35.0556C34.4268 25.5137 33.7977 25.513 33.168 25.513ZM22.0434 25.5144C22.1689 25.5137 22.2946 25.513 22.4209 25.513C22.5048 25.513 22.5888 25.5134 22.6727 25.5138C22.9245 25.515 23.1762 25.5161 23.428 25.5069C24.0078 25.5069 24.3008 25.247 24.3008 24.6532C24.3021 24.4872 24.3053 24.3208 24.3084 24.1543C24.3195 23.5702 24.3306 22.984 24.2641 22.4015C24.2153 21.9995 23.9651 21.7396 23.5623 21.7335H23.5622C22.7993 21.7273 22.0364 21.7211 21.2735 21.7335C20.8523 21.7396 20.5472 22.0242 20.5411 22.4448C20.5228 23.2304 20.5228 24.0099 20.5411 24.7955C20.5533 25.2532 20.8401 25.5069 21.2918 25.513C21.5438 25.5172 21.7932 25.5158 22.0434 25.5144Z" fill="#828282"/>
</svg>
