<svg width="60" height="60" viewBox="0 0 60 60" fill="none" xmlns="http://www.w3.org/2000/svg">
<rect width="60" height="60" rx="8" fill="#E8F7EE"/>
<path d="M40.1992 21.4286V23.5714C40.1992 25.4598 35.4961 27 29.6992 27C23.9023 27 19.1992 25.4598 19.1992 23.5714V21.4286C19.1992 19.5402 23.9023 18 29.6992 18C35.4961 18 40.1992 19.5402 40.1992 21.4286ZM40.1992 26.25V31.0714C40.1992 32.9598 35.4961 34.5 29.6992 34.5C23.9023 34.5 19.1992 32.9598 19.1992 31.0714V26.25C21.4551 27.8036 25.584 28.5268 29.6992 28.5268C33.8145 28.5268 37.9433 27.8036 40.1992 26.25ZM40.1992 33.75V38.5714C40.1992 40.4598 35.4961 42 29.6992 42C23.9023 42 19.1992 40.4598 19.1992 38.5714V33.75C21.4551 35.3036 25.584 36.0268 29.6992 36.0268C33.8145 36.0268 37.9433 35.3036 40.1992 33.75Z" fill="#828282"/>
</svg>
