<svg width="18" height="20" viewBox="0 0 18 20" fill="none" xmlns="http://www.w3.org/2000/svg">
<path d="M1.68929 18.2082C-0.593135 15.8532 -0.550595 12.0554 1.74343 9.70895L9.93719 1.32766C11.6683 -0.443125 14.4822 -0.443281 16.2134 1.32766C17.9279 3.08133 17.9299 5.91082 16.2134 7.66656L9.07086 14.9655C7.90465 16.1583 5.99926 16.1417 4.85281 14.9265C3.74832 13.7558 3.78375 11.9002 4.90953 10.7486L10.5245 5.01289C10.766 4.76625 11.1617 4.76203 11.4083 5.00348L12.3013 5.87766C12.548 6.11914 12.5522 6.51484 12.3108 6.76148L6.69637 12.4967C6.50371 12.6937 6.49184 13.0212 6.67106 13.2112C6.84184 13.3922 7.11031 13.3952 7.28387 13.2177L14.4264 5.91879C15.1926 5.13512 15.1926 3.85922 14.426 3.07512C13.6764 2.30844 12.4745 2.30805 11.7247 3.07512L3.53086 11.4564C2.17292 12.8454 2.15199 15.0939 3.48433 16.4686C4.81285 17.8394 6.96031 17.8411 8.29129 16.4798L15.0124 9.6048C15.2537 9.35797 15.6494 9.35352 15.8962 9.5948L16.7899 10.4684C17.0367 10.7097 17.0412 11.1054 16.7999 11.3522L10.0788 18.2271C7.75156 20.6075 3.98722 20.5793 1.68929 18.2082Z" fill="#DF0E2C"/>
</svg>
