<svg width="19" height="20" viewBox="0 0 19 20" fill="none" xmlns="http://www.w3.org/2000/svg">
<path d="M17.4006 1.25001H12.5671L12.1885 0.519538C12.1083 0.363372 11.9848 0.232008 11.8318 0.140225C11.6788 0.0484421 11.5024 -0.00011828 11.3225 6.84872e-06H6.71858C6.53909 -0.000662313 6.36303 0.047717 6.21058 0.139602C6.05813 0.231487 5.93545 0.363161 5.85661 0.519538L5.47798 1.25001H0.644468C0.473545 1.25001 0.309622 1.31585 0.18876 1.43307C0.0678992 1.55028 0 1.70925 0 1.87501L0 3.12501C0 3.29077 0.0678992 3.44974 0.18876 3.56695C0.309622 3.68416 0.473545 3.75001 0.644468 3.75001H17.4006C17.5716 3.75001 17.7355 3.68416 17.8564 3.56695C17.9772 3.44974 18.0451 3.29077 18.0451 3.12501V1.87501C18.0451 1.70925 17.9772 1.55028 17.8564 1.43307C17.7355 1.31585 17.5716 1.25001 17.4006 1.25001ZM2.14286 18.2422C2.1736 18.7182 2.39024 19.165 2.74868 19.4916C3.10712 19.8181 3.58042 19.9999 4.07223 20H13.9729C14.4647 19.9999 14.938 19.8181 15.2964 19.4916C15.6549 19.165 15.8715 18.7182 15.9023 18.2422L16.7562 5.00001H1.28894L2.14286 18.2422Z" fill="#DF0E2C"/>
</svg>
