<svg width="20" height="20" viewBox="0 0 20 20" fill="none" xmlns="http://www.w3.org/2000/svg">
<rect width="20" height="20" rx="4" fill="#2E61AF"/>
<g clip-path="url(#clip0)">
<path d="M17.5366 10.1293C16.1597 7.44271 13.4338 5.625 10.3125 5.625C7.19122 5.625 4.46452 7.44398 3.08835 10.1296C3.03026 10.2444 3 10.3714 3 10.5001C3 10.6289 3.03026 10.7558 3.08835 10.8707C4.46528 13.5573 7.19122 15.375 10.3125 15.375C13.4338 15.375 16.1605 13.556 17.5366 10.8704C17.5947 10.7556 17.625 10.6286 17.625 10.4999C17.625 10.3711 17.5947 10.2442 17.5366 10.1293V10.1293ZM10.3125 14.1562C9.58935 14.1562 8.88245 13.9418 8.28118 13.5401C7.67991 13.1383 7.21128 12.5673 6.93455 11.8992C6.65782 11.2311 6.58541 10.4959 6.72649 9.7867C6.86757 9.07746 7.21579 8.42598 7.72713 7.91464C8.23846 7.40331 8.88994 7.05508 9.59919 6.914C10.3084 6.77293 11.0436 6.84533 11.7117 7.12207C12.3798 7.3988 12.9508 7.86743 13.3525 8.4687C13.7543 9.06996 13.9687 9.77686 13.9687 10.5C13.969 10.9802 13.8746 11.4558 13.6909 11.8995C13.5072 12.3432 13.2379 12.7463 12.8984 13.0859C12.5588 13.4254 12.1557 13.6947 11.7119 13.8784C11.2682 14.0621 10.7927 14.1565 10.3125 14.1562V14.1562ZM10.3125 8.0625C10.0949 8.06554 9.87876 8.09791 9.66985 8.15873C9.84205 8.39275 9.92469 8.68073 9.90277 8.97045C9.88086 9.26018 9.75584 9.53245 9.55039 9.7379C9.34494 9.94335 9.07266 10.0684 8.78294 10.0903C8.49322 10.1122 8.20524 10.0296 7.97122 9.85736C7.83796 10.3483 7.86201 10.8687 8.04 11.3453C8.21798 11.8218 8.54093 12.2306 8.96338 12.514C9.38584 12.7974 9.88654 12.9412 10.395 12.9251C10.9035 12.909 11.3941 12.7339 11.7978 12.4244C12.2015 12.1149 12.498 11.6866 12.6456 11.1998C12.7931 10.7129 12.7843 10.1921 12.6203 9.7105C12.4563 9.22894 12.1455 8.81092 11.7315 8.51529C11.3175 8.21966 10.8212 8.0613 10.3125 8.0625V8.0625Z" fill="#E8F7EE"/>
</g>
<defs>
<clipPath id="clip0">
<rect width="14.625" height="13" fill="white" transform="translate(3 4)"/>
</clipPath>
</defs>
</svg>
