<svg width="60" height="60" viewBox="0 0 60 60" fill="none" xmlns="http://www.w3.org/2000/svg">
<rect width="60" height="60" rx="8" fill="#E8F7EE"/>
<path d="M33 33.75C33 34.1644 32.6644 34.5 32.25 34.5H27.75C27.3356 34.5 27 34.1644 27 33.75V31.5H18V38.25C18 39.45 19.05 40.5 20.25 40.5H39.75C40.95 40.5 42 39.45 42 38.25V31.5H33V33.75ZM39.75 24H36V21.75C36 20.55 34.95 19.5 33.75 19.5H26.25C25.05 19.5 24 20.55 24 21.75V24H20.25C19.05 24 18 25.05 18 26.25V30H42V26.25C42 25.05 40.95 24 39.75 24ZM33 24H27V22.5H33V24Z" fill="#828282"/>
</svg>
