<svg width="60" height="60" viewBox="0 0 60 60" fill="none" xmlns="http://www.w3.org/2000/svg">
<rect width="60" height="60" rx="8" fill="#E8F7EE"/>
<path d="M40 20.4004H20C18.8958 20.4004 18 21.2896 18 22.3857V23.0474H42V22.3857C42 21.2896 41.1042 20.4004 40 20.4004ZM18 36.9445C18 38.0406 18.8958 38.9298 20 38.9298H40C41.1042 38.9298 42 38.0406 42 36.9445V24.371H18V36.9445ZM32.6667 27.3489C32.6667 27.1669 32.8167 27.018 33 27.018H39C39.1833 27.018 39.3333 27.1669 39.3333 27.3489V28.0107C39.3333 28.1927 39.1833 28.3416 39 28.3416H33C32.8167 28.3416 32.6667 28.1927 32.6667 28.0107V27.3489ZM32.6667 29.996C32.6667 29.814 32.8167 29.6651 33 29.6651H39C39.1833 29.6651 39.3333 29.814 39.3333 29.996V30.6577C39.3333 30.8397 39.1833 30.9886 39 30.9886H33C32.8167 30.9886 32.6667 30.8397 32.6667 30.6577V29.996ZM32.6667 32.643C32.6667 32.4611 32.8167 32.3122 33 32.3122H39C39.1833 32.3122 39.3333 32.4611 39.3333 32.643V33.3048C39.3333 33.4868 39.1833 33.6357 39 33.6357H33C32.8167 33.6357 32.6667 33.4868 32.6667 33.3048V32.643ZM25.3333 27.018C26.8042 27.018 28 28.2051 28 29.6651C28 31.1251 26.8042 32.3122 25.3333 32.3122C23.8625 32.3122 22.6667 31.1251 22.6667 29.6651C22.6667 28.2051 23.8625 27.018 25.3333 27.018ZM20.7958 35.4638C21.1458 34.4008 22.15 33.6357 23.3333 33.6357H23.675C24.1875 33.8466 24.7458 33.9666 25.3333 33.9666C25.9208 33.9666 26.4833 33.8466 26.9917 33.6357H27.3333C28.5167 33.6357 29.5208 34.4008 29.8708 35.4638C30.0042 35.8733 29.6542 36.2827 29.2208 36.2827H21.4458C21.0125 36.2827 20.6625 35.8691 20.7958 35.4638V35.4638Z" fill="#828282"/>
</svg>
