<svg width="60" height="60" viewBox="0 0 60 60" fill="none" xmlns="http://www.w3.org/2000/svg">
<rect width="60" height="60" rx="8" fill="#E8F7EE"/>
<path fill-rule="evenodd" clip-rule="evenodd" d="M32.1 18V24.375C32.1 24.9938 32.6062 25.5 33.225 25.5H39.6V40.875C39.6 41.4984 39.0984 42 38.475 42H22.725C22.1015 42 21.6 41.4984 21.6 40.875V19.125C21.6 18.5016 22.1015 18 22.725 18H32.1ZM39.6 24V23.7141C39.6 23.4188 39.4828 23.1328 39.2718 22.9219L34.6828 18.3281C34.4718 18.1172 34.1859 18 33.8859 18H33.6V24H39.6ZM31 28.2C31 27.6477 30.5523 27.2 30 27.2C29.4477 27.2 29 27.6477 29 28.2V33V33.4142L29.2929 33.7071L32.2929 36.7071C32.6834 37.0976 33.3166 37.0976 33.7071 36.7071C34.0976 36.3166 34.0976 35.6834 33.7071 35.2929L31 32.5858V28.2Z" fill="#828282"/>
</svg>
