<svg width="60" height="60" viewBox="0 0 60 60" fill="none" xmlns="http://www.w3.org/2000/svg">
<rect width="60" height="60" rx="8" fill="#E8F7EE"/>
<path d="M29.6992 30C33.0133 30 35.6992 27.3141 35.6992 24C35.6992 20.6859 33.0133 18 29.6992 18C26.3852 18 23.6992 20.6859 23.6992 24C23.6992 27.3141 26.3852 30 29.6992 30ZM33.8992 31.5H33.1164C32.0758 31.9781 30.918 32.25 29.6992 32.25C28.4805 32.25 27.3273 31.9781 26.282 31.5H25.4992C22.0211 31.5 19.1992 34.3219 19.1992 37.8V39.75C19.1992 40.9922 20.207 42 21.4492 42H37.9492C39.1914 42 40.1992 40.9922 40.1992 39.75V37.8C40.1992 34.3219 37.3773 31.5 33.8992 31.5Z" fill="#828282"/>
</svg>
