<svg width="76" height="68" viewBox="0 0 76 68" fill="none" xmlns="http://www.w3.org/2000/svg">
<rect x="5" y="12" width="23" height="33" fill="#C7AD25"/>
<path d="M55.1631 6.57715H35.0771V13.119H41.722V17.5716H35.0771V21.9233H41.6541V26.3079H35.0771V30.6925H41.6541V35.0772H35.0771V39.4618H41.6541V43.8464H35.0771V50.4233H55.1631C56.1737 50.4233 57.0002 49.5661 57.0002 48.516V8.48446C57.0002 7.43434 56.1737 6.57715 55.1631 6.57715ZM52.6156 43.8464H43.8464V39.4618H52.6156V43.8464ZM52.6156 35.0772H43.8464V30.6925H52.6156V35.0772ZM52.6156 26.3079H43.8464V21.9233H52.6156V26.3079ZM52.6156 17.5387H43.8464V13.1541H52.6156V17.5387Z" fill="#CDCDCD"/>
<path d="M0 6.33358V50.6686L32.8846 57V0L0 6.33358ZM20.8006 39.6369L16.975 32.4045C16.8303 32.1348 16.6813 31.6394 16.5256 30.9181H16.4664C16.3941 31.2579 16.2231 31.7753 15.9534 32.4681L12.1147 39.6369H6.15381L13.2306 28.5351L6.75669 17.431H12.8425L16.017 24.0891C16.2647 24.6152 16.4862 25.24 16.6835 25.9613H16.7448C16.8698 25.5272 17.1022 24.8827 17.442 24.0255L20.9716 17.4288H26.5445L19.8864 28.4386L26.7308 39.6347L20.8006 39.6369Z" fill="#E0E0E0"/>
<circle cx="63.7812" cy="56.5" r="11.5" fill="#BDBDBD"/>
<g clip-path="url(#clip0)">
<path d="M59.1802 57.3504L58.6076 56.7867C58.3652 56.548 58.3652 56.1621 58.6076 55.926L63.6193 50.99C63.8618 50.7514 64.2539 50.7514 64.4937 50.99L69.5054 55.9234C69.7479 56.1621 69.7479 56.548 69.5054 56.7842L68.9328 57.3479C68.6878 57.5891 68.288 57.584 68.0481 57.3377L65.0896 54.2807V61.5779C65.0896 61.9156 64.8136 62.1873 64.4705 62.1873H63.6451C63.3021 62.1873 63.0261 61.9156 63.0261 61.5779V54.2807L60.065 57.3402C59.8251 57.5891 59.4253 57.5941 59.1802 57.3504Z" fill="#E8F7EE"/>
</g>
<defs>
<clipPath id="clip0">
<rect width="11.5556" height="13" fill="white" transform="translate(58.2812 50)"/>
</clipPath>
</defs>
</svg>
