<svg width="20" height="20" viewBox="0 0 20 20" fill="none" xmlns="http://www.w3.org/2000/svg">
<rect width="20" height="20" rx="4" fill="#0CA035"/>
<g clip-path="url(#clip0)">
<path d="M14.4466 3.32653L14.5505 5.47661C13.947 4.76465 13.1955 4.19284 12.3484 3.801C11.5013 3.40917 10.5789 3.20674 9.64558 3.20781C6.49982 3.20781 3.88087 5.4657 3.31925 8.4504C3.31094 8.49537 3.31263 8.54162 3.3242 8.58587C3.33576 8.63011 3.35692 8.67127 3.38618 8.70642C3.41543 8.74158 3.45206 8.76986 3.49346 8.78927C3.53487 8.80869 3.58004 8.81875 3.62578 8.81875H4.89993C4.97017 8.81867 5.03832 8.79488 5.09335 8.75122C5.14837 8.70756 5.18703 8.64659 5.20307 8.57821C5.41087 7.71583 5.86518 6.93257 6.51057 6.32401C7.15596 5.71545 7.96452 5.30789 8.83761 5.15107C9.7107 4.99424 10.6106 5.09493 11.4274 5.44084C12.2442 5.78676 12.9427 6.36295 13.4376 7.0991L10.8021 6.97286C10.7599 6.97085 10.7178 6.97743 10.6782 6.99219C10.6387 7.00696 10.6025 7.0296 10.572 7.05875C10.5415 7.0879 10.5172 7.12294 10.5006 7.16176C10.484 7.20058 10.4755 7.24236 10.4755 7.28457V8.51612C10.4755 8.5988 10.5084 8.67808 10.5668 8.73654C10.6253 8.795 10.7046 8.82784 10.7873 8.82784H15.9883C16.071 8.82784 16.1502 8.795 16.2087 8.73654C16.2672 8.67808 16.3 8.5988 16.3 8.51612V3.31172C16.3 3.22905 16.2672 3.14976 16.2087 3.0913C16.1502 3.03284 16.071 3 15.9883 3H14.7578C14.7156 3.00002 14.6739 3.0086 14.6351 3.02522C14.5964 3.04183 14.5614 3.06613 14.5323 3.09666C14.5032 3.12718 14.4806 3.1633 14.4659 3.20281C14.4511 3.24232 14.4446 3.2844 14.4466 3.32653V3.32653ZM9.64558 14.2219C8.89604 14.2225 8.15789 14.0385 7.4964 13.686C6.83492 13.3335 6.27048 12.8234 5.85301 12.2009L8.49742 12.3274C8.53958 12.3294 8.58172 12.3228 8.62126 12.3081C8.66081 12.2933 8.69694 12.2707 8.72747 12.2415C8.75801 12.2124 8.7823 12.1773 8.79888 12.1385C8.81547 12.0997 8.82399 12.0579 8.82395 12.0157V10.7844C8.82395 10.7017 8.7911 10.6224 8.73265 10.564C8.67419 10.5055 8.5949 10.4727 8.51223 10.4727H3.31172C3.22905 10.4727 3.14976 10.5055 3.0913 10.564C3.03284 10.6224 3 10.7017 3 10.7844V15.9883C3 16.071 3.03284 16.1502 3.0913 16.2087C3.14976 16.2672 3.22905 16.3 3.31172 16.3H4.54171C4.58399 16.3001 4.62584 16.2915 4.66471 16.2749C4.70358 16.2582 4.73867 16.2339 4.76783 16.2033C4.79699 16.1726 4.81961 16.1364 4.83433 16.0968C4.84904 16.0571 4.85554 16.0149 4.85343 15.9727L4.74562 13.8278C5.34903 14.5383 6.09992 15.1089 6.94609 15.4999C7.79226 15.891 8.71343 16.0931 9.64558 16.0922C12.7916 16.0922 15.4106 13.8343 15.9722 10.8496C15.9805 10.8046 15.9788 10.7584 15.9672 10.7141C15.9557 10.6699 15.9345 10.6287 15.9053 10.5936C15.876 10.5584 15.8394 10.5301 15.798 10.5107C15.7566 10.4913 15.7114 10.4813 15.6657 10.4813H14.3915C14.3213 10.4813 14.2531 10.5051 14.1981 10.5488C14.1431 10.5924 14.1044 10.6534 14.0884 10.7218C13.8485 11.7194 13.2797 12.6071 12.4738 13.2421C11.6678 13.877 10.6716 14.2221 9.64558 14.2219V14.2219Z" fill="#E8F7EE"/>
</g>
<defs>
<clipPath id="clip0">
<rect width="13.3" height="13.3" fill="white" transform="translate(3 3)"/>
</clipPath>
</defs>
</svg>
