<svg width="60" height="60" viewBox="0 0 60 60" fill="none" xmlns="http://www.w3.org/2000/svg">
<rect width="60" height="60" rx="8" fill="#E8F7EE"/>
<path d="M35.368 24.0093C34.5309 24.0093 33.7063 23.9968 32.8693 24.0093C32.5195 24.0218 32.3945 23.8969 32.3945 23.547C32.407 21.8604 32.407 20.1738 32.3945 18.4872C32.3945 17.9625 32.6444 17.9375 33.0192 18.0749C33.3565 18.1998 33.6314 18.4372 33.8688 18.6871C35.2306 20.0863 36.6798 21.4107 37.9791 22.8849C38.0916 23.0098 38.204 23.1348 38.279 23.2722C38.5413 23.7719 38.4164 23.9968 37.8542 24.0093C37.0296 24.0093 36.205 24.0093 35.368 24.0093Z" fill="#828282"/>
<path fill-rule="evenodd" clip-rule="evenodd" d="M20.4129 29.9813V19.4992C20.4129 18.3748 20.7877 18.0125 21.9121 18.0125C22.6084 18.0125 23.3047 18.0133 24.0013 18.0141C26.0916 18.0164 28.1836 18.0187 30.2827 18C30.7575 18 30.9324 18.1124 30.9199 18.6122C30.8931 19.9235 30.8982 21.2285 30.9033 22.5362V22.5363C30.9054 23.06 30.9074 23.5842 30.9074 24.1093C30.9074 25.0963 31.3197 25.5086 32.3067 25.5086C32.7688 25.5086 33.2308 25.5094 33.6931 25.5101C35.0806 25.5125 36.47 25.5148 37.8663 25.4961C38.2661 25.4961 38.416 25.596 38.4035 26.0208C38.3973 28.4758 38.3973 30.9308 38.3973 33.3857C38.3973 35.8407 38.3973 38.2957 38.391 40.7507C38.391 41.5502 37.9537 42 37.1542 42H21.6747C20.8252 42 20.4129 41.5502 20.4004 40.6632C20.4129 37.1025 20.4129 33.5419 20.4129 29.9813ZM27.9087 31.2041C27.9087 31.4642 27.9107 31.7254 27.9127 31.987C27.9178 32.6425 27.9229 33.3008 27.8962 33.9527C27.8837 34.4024 28.0461 34.5149 28.4709 34.5024C29.513 34.4881 30.5592 34.4901 31.6071 34.4922C32.3934 34.4937 33.1807 34.4952 33.968 34.4899C34.4303 34.4899 34.5427 34.5898 34.3928 35.0396C33.6307 37.4758 31.2569 39.125 28.6708 38.9875C26.0346 38.8501 23.9857 37.0136 23.5359 34.3899C23.0487 31.5414 24.6853 28.8303 27.3964 28.0058C27.8087 27.8808 27.9461 27.9433 27.9336 28.3931C27.8962 29.0958 27.9008 29.7986 27.9055 30.5013C27.9071 30.7356 27.9087 30.9698 27.9087 31.2041ZM31.632 33.0031C31.8194 33.0039 32.0068 33.0047 32.1942 33.0047C32.4188 33.0047 32.6434 33.0026 32.8683 33.0006C33.4315 32.9955 33.9966 32.9904 34.568 33.0172C34.9678 33.0297 35.0428 32.8547 35.0303 32.4924C34.9053 29.9687 32.5066 27.57 29.9579 27.4076C29.5706 27.3701 29.3832 27.4451 29.3957 27.8948C29.4207 29.4315 29.4207 30.9682 29.3957 32.5049C29.3957 32.9297 29.5456 33.0297 29.9454 33.0172C30.5076 32.9984 31.0698 33.0008 31.632 33.0031Z" fill="#828282"/>
</svg>
