<svg width="293" height="193" viewBox="0 0 293 193" fill="none" xmlns="http://www.w3.org/2000/svg">
<path d="M278.09 119.645C278.09 120.243 277.504 120.733 276.786 120.733H230.968C230.25 120.733 229.652 120.243 229.652 119.645L229.939 109.742C229.939 109.144 231.04 107.039 231.769 107.039L276.774 109.036C277.492 109.036 278.078 109.527 278.078 110.125V119.645H278.09Z" fill="#1D6367"/>
<path d="M242.245 114.108C242.245 115.89 240.798 117.325 239.028 117.325C237.258 117.325 235.811 115.878 235.811 114.108C235.811 112.326 237.258 110.891 239.028 110.891C240.798 110.891 242.245 112.326 242.245 114.108Z" fill="#4A243B"/>
<path d="M239.017 117.85C236.96 117.85 235.285 116.176 235.285 114.118C235.285 112.061 236.96 110.375 239.017 110.375C241.074 110.375 242.76 112.049 242.76 114.118C242.76 116.164 241.086 117.85 239.017 117.85ZM239.017 111.404C237.522 111.404 236.314 112.611 236.314 114.106C236.314 115.601 237.522 116.809 239.017 116.809C240.512 116.809 241.72 115.601 241.72 114.106C241.72 112.611 240.512 111.404 239.017 111.404Z" fill="#B3B8BD"/>
<path d="M282.048 163.491C282.036 164.029 281.426 164.447 280.684 164.435L233.826 163.455C233.084 163.443 232.498 162.988 232.51 162.45L232.881 155.167C232.893 154.628 233.837 154.018 234.579 154.03L280.026 153.301C280.768 153.313 281.629 154.138 281.617 154.676L282.048 163.491Z" fill="#FC9E49"/>
<path d="M281.427 173.382C281.427 173.944 280.829 174.386 280.087 174.386H233.216C232.475 174.386 231.877 173.932 231.877 173.382V164.567C231.877 164.017 232.475 163.562 233.216 163.562L279.752 164.459C280.494 164.459 281.319 165.129 281.319 165.691L281.427 173.382Z" fill="#E34342"/>
<path d="M288.926 186.51C288.926 187.348 287.837 188.029 286.486 188.029H229.27C227.918 188.029 226.83 187.348 226.83 186.51V175.113C226.83 174.275 227.918 173.594 229.27 173.594H286.486C287.837 173.594 288.926 174.275 288.926 175.113V186.51Z" fill="#1D6367"/>
<path d="M286.485 173.582L263.331 173.606C261.632 174.132 261.429 186.666 263.677 188.03L286.485 188.018C287.836 188.018 288.925 187.336 288.925 186.499V175.101C288.925 174.264 287.836 173.582 286.485 173.582Z" fill="#6AA19E"/>
<path d="M288.926 176.418H264.217V185.185H288.926V176.418Z" fill="#ECF3F2"/>
<path d="M288.926 179.934V176.43H264.217V179.324C272.074 177.494 280.805 177.614 288.926 179.934Z" fill="#DBF5F7"/>
<path d="M264.205 181.129L282.707 181.5L264.205 182.421V181.129Z" fill="#DBF5F7"/>
<path d="M288.877 183.164L280.051 183.535L288.973 184.276L288.877 183.164Z" fill="#DBF5F7"/>
<path d="M249.9 176.98H230.453V184.455H249.9V176.98Z" fill="#90E0D5"/>
<path d="M243.143 168.797C243.143 170.52 241.744 171.919 240.022 171.919C238.3 171.919 236.9 170.52 236.9 168.797C236.9 167.075 238.3 165.676 240.022 165.676C241.744 165.676 243.143 167.075 243.143 168.797Z" fill="#4A243B"/>
<path d="M240.022 172.435C238.025 172.435 236.398 170.809 236.398 168.811C236.398 166.814 238.025 165.188 240.022 165.188C242.02 165.188 243.646 166.814 243.646 168.811C243.646 170.809 242.02 172.435 240.022 172.435ZM240.022 166.18C238.575 166.18 237.403 167.352 237.403 168.799C237.403 170.247 238.575 171.419 240.022 171.419C241.469 171.419 242.641 170.247 242.641 168.799C242.641 167.352 241.469 166.18 240.022 166.18Z" fill="#B3B8BD"/>
<path d="M228.086 129.405C228.086 129.967 228.732 130.41 229.521 130.41H279.669C280.458 130.41 281.104 129.955 281.104 129.405V120.591C281.104 120.04 280.458 119.586 279.669 119.586L229.88 120.483C229.091 120.483 228.206 121.153 228.206 121.715L228.086 129.405Z" fill="#E34342"/>
<path d="M268.641 156.254H240.523V161.169H268.641V156.254Z" fill="#FFDEC0"/>
<path d="M287.837 152.977C287.837 153.754 286.844 154.388 285.612 154.388H227.428C226.196 154.388 225.203 153.754 225.203 152.977V142.368C225.203 141.591 226.196 140.957 227.428 140.957H275.327L285.409 143.648C286.641 143.648 287.634 144.282 287.634 145.059L287.837 152.977Z" fill="#1D6367"/>
<path d="M287.634 145.059C287.634 144.282 286.642 143.648 285.41 143.648L275.328 140.957H273.904C273.904 145.358 273.904 149.903 273.904 154.388H285.613C286.845 154.388 287.838 153.754 287.838 152.977L287.634 145.059Z" fill="#6AA19E"/>
<path d="M275.578 143.803V151.756L287.921 151.78L287.693 146.482L275.578 143.803Z" fill="#ECF3F2"/>
<path d="M275.578 143.803V147.821C279.74 145.848 284.201 146.398 287.777 148.611L287.693 146.482L275.578 143.803Z" fill="#DBF5F7"/>
<path d="M259.026 143.742H229.533V151.217H259.026V143.742Z" fill="#90E0D5"/>
<path d="M228.324 140.035C228.324 140.813 229.173 141.447 230.226 141.447H279.847C280.888 141.447 281.737 140.813 281.737 140.035V129.427C281.737 128.649 280.888 128.016 279.847 128.016H242.042L230.393 130.707C229.341 130.707 228.504 131.34 228.504 132.118L228.324 140.035Z" fill="#FC9E49"/>
<path d="M228.539 132.118C228.539 131.34 229.532 130.707 230.764 130.707L240.846 128.016H242.269C242.269 132.417 242.269 136.962 242.269 141.447H230.56C229.329 141.447 228.336 140.813 228.336 140.035L228.539 132.118Z" fill="#709547"/>
<path d="M240.595 130.863V138.817L228.252 138.841L228.479 133.542L240.595 130.863Z" fill="#DBF5F7"/>
<path d="M277.935 130.805H257.148V138.28H277.935V130.805Z" fill="#FFDEC0"/>
<path d="M264.539 123.102H239.65V127.228H264.539V123.102Z" fill="#DBB390"/>
<path d="M159.663 16.7677C159.663 16.7677 197.647 10.9672 206.51 0C212.956 5.96797 228.863 14.1844 228.863 14.1844L157.199 29.6006L159.663 16.7677Z" fill="url(#paint0_linear)"/>
<path d="M190.616 2.58203L231.124 15.7977L230.048 31.0584L228.756 31.3694L227.058 46.4627L228.23 51.7849L227.787 68.122L225.216 69.7845L224.355 92.5082L221.448 139.57L219.523 155.046L218.231 166.013L216.294 188.032H194.694L185.354 74.7837L190.616 2.58203Z" fill="#F0FFFF"/>
<path d="M154.078 25.4612L156.339 44.8003L158.599 45.7691L161.816 64.259L160.094 66.6151L163.108 76.9364L165.476 94.338L171.815 128.292L173.417 143.768L174.709 152.798L177.938 164.399L180.521 188.032H200.183L198.246 168.262L197.6 151.829L195.017 139.247L193.414 120.877L192.768 88.9681L192.553 68.5526L191.584 63.7208L194.048 58.8771L193.414 38.6769L190.938 31.0584L190.615 2.58203L154.078 25.4612Z" fill="#CAEBF7"/>
<path d="M198.246 168.261L197.6 151.816L195.017 139.246L193.402 120.876L192.757 88.9669L192.553 68.5514L191.585 63.7196L194.06 58.8878L193.988 56.5078C186.86 58.5649 173.214 66.1953 173.214 66.1953C173.214 66.1953 178.584 92.196 171.492 106.38C168.083 112.635 176.192 120.9 171.528 126.736L171.815 128.291L173.429 143.767L174.721 152.797L177.95 164.398L180.534 188.042H200.196L198.246 168.261Z" fill="#B7E4EB"/>
<path d="M181.107 46.0435L193.629 42.5273L193.605 44.6801L181.107 46.0435Z" fill="#B7E4EB"/>
<path d="M160.094 66.6044L179.445 63.1719L160.524 68.2189L160.094 66.6044Z" fill="#B7E4EB"/>
<path d="M192.553 72.5234L177.125 75.5373L192.553 75.1068V72.5234Z" fill="#B7E4EB"/>
<path d="M192.66 61.4622L226.291 63.6628L194.048 58.8789L192.66 61.4622Z" fill="#E1FFFD"/>
<path d="M207.371 44.4766L227.511 48.5549L227.057 46.4619L207.371 44.4766Z" fill="#E1FFFD"/>
<path d="M190.83 24.7059L227.786 30.8413L190.83 21.2734V24.7059Z" fill="#E1FFFD"/>
<path d="M192.338 87.2461L217.262 90.9058L192.768 88.9683L192.338 87.2461Z" fill="#E1FFFD"/>
<path d="M224.138 95.6193L209.738 94.543L224.006 97.5688L224.138 95.6193Z" fill="#E1FFFD"/>
<path d="M222.846 117.337L200.721 116.906L222.703 119.549L222.846 117.337Z" fill="#E1FFFD"/>
<path d="M156.338 44.7985L184.707 35.9961L158.598 45.7673L156.338 44.7985Z" fill="#B7E4EB"/>
<path d="M167.939 29.5497L190.831 21.2734V24.7059L167.939 29.5497Z" fill="#B7E4EB"/>
<path d="M227.787 68.1237L195.447 64.8945L225.215 69.7861L227.787 68.1237Z" fill="#E1FFFD"/>
<path d="M195.184 13.6953L229.999 23.2034C229.999 23.2034 215.898 19.8188 212.669 19.3404C209.44 18.862 195.184 13.6953 195.184 13.6953Z" fill="#E1FFFD"/>
<path d="M160.739 53.6146C160.739 53.6146 155.692 55.2292 154.4 58.3387C160.309 56.5089 179.432 52 179.432 52L160.739 53.6146Z" fill="url(#paint1_linear)"/>
<path d="M187.016 61.7741C187.004 62.5515 187.984 63.2093 189.216 63.2212L247.389 64.0345C248.621 64.0465 249.626 63.4365 249.638 62.6472L249.781 52.0388C249.793 51.2614 248.8 50.6155 247.58 50.5916L199.693 49.9219L189.575 52.4693C188.343 52.4574 187.339 53.0673 187.327 53.8567L187.016 61.7741Z" fill="#DD3940"/>
<path d="M187.338 53.8684C187.35 53.091 188.355 52.4691 189.587 52.481L199.705 49.9336L201.128 49.9575C201.068 54.3587 201.009 58.9035 200.937 63.3884L189.228 63.221C187.996 63.209 187.015 62.5512 187.027 61.7739L187.338 53.8684Z" fill="#C25056"/>
<path d="M199.407 52.7812L199.299 60.7345L186.969 60.591L187.268 55.2928L199.407 52.7812Z" fill="#BBCEDD"/>
<path d="M207.412 53.3708L208.036 59.9746L245.351 60.8451L245.456 53.3709L207.412 53.3708Z" fill="#DBB390"/>
<path d="M68.6129 89.4365L33.3672 89.293L32.7214 100.571L36.4887 101.444L36.2256 108.201L31.1068 108.632L26.7534 129.586L29.8151 130.554L28.1288 143.244L24.6604 143.926L20.4266 168.778L16.1211 169.902L16.8985 188.034H75.2745L68.6129 89.4365Z" fill="#CAEBF7"/>
<path d="M68.6131 89.4387L54.4287 89.3789L53.8307 100.047L54.6321 100.573L54.1537 107.343L52.2162 108.299L49.1544 130.066L50.9365 130.76L49.2382 143.772L46.5831 144.418L43.1984 170.036L37.2305 171.077L37.9481 188.036H75.2748L68.6131 89.4387Z" fill="#C0E8EB"/>
<path d="M32.7207 100.57H54.6312L36.4881 101.443L32.7207 100.57Z" fill="#B4ECE9"/>
<path d="M30.6173 110.079L54.3218 109.756L30.2227 112.016L30.6173 110.079Z" fill="#B4ECE9"/>
<path d="M64.307 118.141L38.0312 120.401L64.1516 120.234L64.307 118.141Z" fill="#B4ECE9"/>
<path d="M29.8156 130.555L56.0914 130.71L29.6602 131.679L29.8156 130.555Z" fill="#B4ECE9"/>
<path d="M29.3371 132.972L44.6457 132.805L29.0859 134.419L29.3371 132.972Z" fill="#B4ECE9"/>
<path d="M64.786 146.186L34.3242 146.987L65.2763 147.956L64.786 146.186Z" fill="#B4ECE9"/>
<path d="M25.3066 155.372L54.4767 154.57L36.5848 156.017L25.3066 155.372Z" fill="#B4ECE9"/>
<path d="M33.3668 89.2935C33.3668 89.2935 26.5975 90.3698 25.1504 95.2016C29.8745 93.3718 40.1959 93.4794 40.1959 93.4794C40.1959 93.4794 50.0388 90.908 54.4401 89.3772C43.6762 88.9706 33.3668 89.2935 33.3668 89.2935Z" fill="#B4ECE9"/>
<path d="M29.6592 115.568C24.2893 116.154 22.2441 119.922 22.2441 119.922L48.9983 115.09L29.6592 115.568Z" fill="#B4ECE9"/>
<path d="M73.6614 170.26C73.6614 170.846 72.9438 171.324 72.0468 171.324H15.5365C14.6395 171.324 13.9219 170.846 13.9219 170.26L14.2687 160.524C14.2687 159.938 15.6321 157.869 16.5291 157.869L72.0468 159.831C72.9438 159.831 73.6614 160.309 73.6614 160.895V170.26Z" fill="#1D6367"/>
<path d="M76.4959 185.961C76.4959 186.942 75.2521 188.03 73.7092 188.03H8.27688C6.73406 188.03 5.49023 186.93 5.49023 185.961V172.698C5.49023 171.729 6.73406 170.928 8.27688 170.928H73.7212C75.264 170.928 76.5079 171.717 76.5079 172.698V185.961H76.4959Z" fill="#DD3940"/>
<path d="M73.7102 170.928L47.2191 170.952C45.2816 171.574 45.0424 186.452 47.6258 188.03H73.7102C75.253 188.03 76.4969 186.93 76.4969 185.961V172.698C76.4969 171.717 75.253 170.928 73.7102 170.928Z" fill="#C25056"/>
<path d="M76.4955 174.229H48.2344V184.442H76.4955V174.229Z" fill="#ECF3F2"/>
<path d="M76.4955 178.307V174.229H48.2344V177.601C57.2282 175.472 67.2147 175.616 76.4955 178.307Z" fill="#DBF5F7"/>
<path d="M48.2227 179.709L69.3916 180.14L48.2227 181.216V179.709Z" fill="#DBF5F7"/>
<path d="M76.4476 182.076L66.3535 182.507L76.5553 183.368L76.4476 182.076Z" fill="#DBF5F7"/>
<path d="M38.4225 174.877H9.61719V183.584H38.4225V174.877Z" fill="#DBB390"/>
<path d="M133.126 44.3245L116.526 34.8164C116.526 34.8164 110.677 42.5544 98.2749 43.6308C85.8606 44.7072 69.5234 47.0753 69.5234 47.0753L90.202 63.4124C90.202 63.4005 124.264 55.9255 133.126 44.3245Z" fill="#ECF3F2"/>
<path d="M101.695 41.5859L103.956 70.4331L122.649 71.2464L126.847 47.3865L101.695 41.5859Z" fill="#117076"/>
<path d="M65.7559 46.7406L68.4947 72.6935L104.446 71.4019L101.695 41.5859L65.7559 46.7406Z" fill="#1D6367"/>
<path d="M74.3555 52.5423L76.293 59.6345L94.46 57.8883L94.0653 49.8633L74.3555 52.5423Z" fill="#90E0D5"/>
<path d="M59.9746 11.0297L81.084 3.75C81.084 3.75 84.0945 10.6192 89.7245 13.5649C95.5441 16.6071 109.329 18.3093 109.329 18.3093L99.1946 26.6031C99.1946 26.6031 70.7841 30.1644 59.9746 11.0297Z" fill="#ECF3F2"/>
<path d="M256.766 42.4805L271.933 45.0916C271.933 45.0916 272.197 52.5882 276.382 57.4495C280.698 62.4793 293 69.29 293 69.29L280.41 73.0924C280.41 73.1044 259.775 64.2602 256.766 42.4805Z" fill="#ECF3F2"/>
<path d="M36.8593 64.304L32.1094 79.8194C32.1094 79.8194 24.7927 78.2834 19.0833 81.1531C13.17 84.1061 3.59837 94.3346 3.59837 94.3346L0 82.9154C0 82.9154 9.27179 59.803 36.8593 64.304Z" fill="#ECF3F2"/>
<path d="M127.684 131.63L127.732 128.939L129.717 124.43L129.968 99.0749L131.212 79.3052L131.954 75.7651L133.078 70.2875L101.265 66.1016L91.8164 112.733L94.9977 131.905C105.881 131.893 116.789 131.761 127.684 131.63Z" fill="#ECF3F2"/>
<path d="M101.874 91.5524L101.372 84.3525L100.223 75.8371L101.252 66.0898L60.7559 70.2758L61.7724 80.4895L62.801 81.3506L63.3392 95.7503L64.1405 130.565L64.595 131.355C77.703 131.869 90.8469 131.953 104.003 131.881L103.488 110.58L101.874 91.5524Z" fill="#DBF5F7"/>
<path d="M103.523 114.215L116.907 115.507L103.583 115.829L103.523 114.215Z" fill="#E1FFFD"/>
<path d="M130.123 98L117.23 98.5382L130.016 98.8491L130.123 98Z" fill="#E1FFFD"/>
<path d="M102.125 95.043L127.54 96.1672L102.233 95.8204L102.125 95.043Z" fill="#E1FFFD"/>
<path d="M131.092 81.5525L109.277 79.7227L131.008 82.3897L131.092 81.5525Z" fill="#E1FFFD"/>
<path d="M100.809 70.3359L112.206 72.1658L100.713 71.0894L100.809 70.3359Z" fill="#E1FFFD"/>
<path d="M131.629 77.3698L115.723 76.0781L131.462 78.1472L131.629 77.3698Z" fill="#E1FFFD"/>
<path d="M102.937 104.016L84.2441 106.049H103.153L102.937 104.016Z" fill="#B4ECE9"/>
<path d="M63.5059 102.938H93.9078L63.5776 104.385L63.5059 102.938Z" fill="#B4ECE9"/>
<path d="M101.743 89.5312L76.7227 90.6914L101.838 90.8827L101.743 89.5312Z" fill="#B4ECE9"/>
<path d="M101.552 86.6953L89.1973 87.8793L101.659 87.975L101.552 86.6953Z" fill="#B4ECE9"/>
<path d="M62.8017 81.339L92.9406 78.8633L61.7852 80.4779L62.8017 81.339Z" fill="#B4ECE9"/>
<path d="M100.571 72.9531L83.3848 74.3524L100.356 74.4601L100.571 72.9531Z" fill="#B4ECE9"/>
<path d="M69.6289 96.0594C69.6289 96.0594 77.3669 100.245 80.5961 100.245C82.2107 98.6308 88.1667 95.892 91.7188 95.4136C84.1362 95.0906 69.6289 96.0594 69.6289 96.0594Z" fill="#B4ECE9"/>
<path d="M115.723 68.0156C115.723 68.0156 123.628 73.0148 124.262 74.462C125.554 74.6175 139.032 74.8327 139.032 74.8327C139.032 74.8327 137.203 71.5557 133.985 70.587C130.768 69.6302 115.723 68.0156 115.723 68.0156Z" fill="#ECF3F2"/>
<path d="M107.555 88.4297L127.755 89.0755C127.755 89.0755 121.847 89.6137 119.156 91.2283C116.261 89.9366 107.555 88.4297 107.555 88.4297Z" fill="#E1FFFD"/>
<path d="M112.816 111.129L129.907 111.368C129.907 111.368 133.531 112.492 134.344 114.191C133.22 114.274 125.159 113.784 125.159 113.784C125.159 113.784 114.431 111.129 112.816 111.129Z" fill="#E1FFFD"/>
<path d="M100.475 160.191L105.617 118.918L136.761 120.963L137.299 125.627L140.863 127.768L140.696 132.146L139.547 132.457L139.236 134.155L139.966 134.741L138.878 142.598L140.086 145.588L137.67 161.304L100.475 160.191Z" fill="#ECF3F2"/>
<path d="M136.869 121.859C129.286 121.883 121.704 121.991 114.121 122.493C115.413 126.356 116.059 130.877 115.413 134.094C114.827 142.359 116.393 151.711 116.166 160.657L137.682 161.303L140.098 145.588L138.89 142.586L139.99 134.728L139.261 134.142L139.56 132.444L140.708 132.133L140.875 127.756L137.311 125.615L136.869 121.859Z" fill="#F0FFFF"/>
<path d="M109.098 142.132L108.034 140.039V132.146L107.149 132.48L106.79 129.897L107.914 128.845L107.794 126.536L105.785 126.13L105.618 118.918L68.3747 121.621L68.5541 129.479L67.8365 133.856L67.3223 134.215L67.7767 136.894L68.1714 137.24L69.3913 144.943L70.0491 145.6L71.1255 161.555L108.739 158.816L109.098 142.132Z" fill="#DBF5F7"/>
<path d="M67.7637 155.779C72.3443 165.909 74.1861 188.034 74.1861 188.034L108.499 189.501L105.963 151.258C105.975 151.27 75.9442 153.136 67.7637 155.779Z" fill="#DC7B4C"/>
<path d="M138.902 188.034C138.902 188.034 142.61 162.56 145.863 153.47C140.912 152.693 105.965 151.258 105.965 151.258L108.5 189.501L138.902 188.034Z" fill="#FC9E49"/>
<path d="M145.875 153.482C142.538 152.956 125.579 152.131 114.875 151.652L115.401 160.371L117.339 162.787L118.463 176.971L117.001 189.001L138.902 188.034C138.902 188.034 142.61 162.572 145.875 153.482Z" fill="#EA944C"/>
<path d="M107.662 128.734L139.32 131.676L106.789 129.894L107.662 128.734Z" fill="#E1FFFD"/>
<path d="M109.098 142.129L138.579 143.66L109.098 143.373V142.129Z" fill="#E1FFFD"/>
<path d="M139.021 142.058L123.139 140.945L138.878 142.596L139.021 142.058Z" fill="#E1FFFD"/>
<path d="M105.75 123.461L73.2188 124.932L105.654 122.289L105.75 123.461Z" fill="#B4ECE9"/>
<path d="M108.033 140.038L79.8555 141.103L107.77 138.531L108.033 140.038Z" fill="#B4ECE9"/>
<path d="M68.0635 133.831C68.0635 133.831 64.7267 135.135 64.2363 140.601C71.2448 135.769 92.5333 130.961 92.5333 130.961L68.0635 133.831Z" fill="#B4ECE9"/>
<path d="M122.588 136.688L139.738 137.477C139.738 137.477 146.005 139.151 146.52 141.627C143.47 140.192 122.588 136.688 122.588 136.688Z" fill="#FEFFFF"/>
<path d="M99.4583 148.555C99.4583 148.555 85.1902 150.361 83.0135 151.832C79.868 151.042 73.625 150.289 73.625 150.289L99.4583 148.555Z" fill="#B4ECE9"/>
<path d="M67.7652 155.776C62.6942 157.498 63.0769 164.375 63.0769 164.375L94.7227 163C94.7227 163 100.667 152.475 105.391 151.375C87.762 151.985 76.6872 152.75 67.7652 155.776Z" fill="#E29359"/>
<path d="M207.91 102.507L192.123 60.1211L176.432 66.4L178.273 86.8753L179.41 86.8872L179.661 100.091L180.283 100.079V129.68L180.474 129.715L181.335 143.601L182.794 143.732L183.081 164.722L183.99 165.045L183.93 178.201L185.234 178.093L185.402 188.032H210.23L207.91 102.507Z" fill="#DBF5F7"/>
<path d="M244.758 98.8705L245.416 98.8585L246.11 87.2336L247.055 87.2455L249.71 63.3976L191.633 59.9531L193.977 86.3844L195.819 86.4203L196.225 99.6L197.242 99.5881V129.201L196.225 129.368L198.964 143.122L200.076 143.182L200.555 164.518L199.287 164.554L199.203 177.722L199.837 177.686L200.1 188.031H240.525L242.367 175.581L242.486 175.569L244.818 163.107L243.383 162.999L245.225 145.49L243.79 145.394L244.842 132.561L243.252 132.585L244.758 98.8705Z" fill="#ECF3F2"/>
<path d="M247.055 87.2458L225.646 86.875L246.11 88.1667L247.055 87.2458Z" fill="#E1FFFD"/>
<path d="M192.445 73.6602L225 74.8681L192.84 75.191L192.445 73.6602Z" fill="#E1FFFD"/>
<path d="M245.415 98.8572L222.99 97.9961L244.829 99.3595L245.415 98.8572Z" fill="#E1FFFD"/>
<path d="M195.77 92.293L231.876 94.1228L195.877 93.3694L195.77 92.293Z" fill="#E1FFFD"/>
<path d="M243.694 124.75L226.615 124.858L243.586 125.826L243.694 124.75Z" fill="#E1FFFD"/>
<path d="M197.062 116.582L218.231 117.335L197.062 118.089V116.582Z" fill="#E1FFFD"/>
<path d="M196.225 129.366L224.139 129.797L197.062 127.859L196.225 129.366Z" fill="#E1FFFD"/>
<path d="M243.801 144.09H228.014L243.693 145.059L243.801 144.09Z" fill="#E1FFFD"/>
<path d="M209.631 156.66L234.46 155.906L218.983 157.521L209.631 156.66Z" fill="#E1FFFD"/>
<path d="M198.998 175.786L229.293 176.217L198.891 177.293V175.355L198.998 175.786Z" fill="#E1FFFD"/>
<path d="M227.584 78.6458L248.43 78C248.43 78 254.876 79.9375 255.737 82.0783C252.508 81.4444 227.584 78.6458 227.584 78.6458Z" fill="#E1FFFD"/>
<path d="M177.938 71.2432L175.115 72.8578C175.115 72.8578 186.322 70.9203 187.936 68.6719L177.938 71.2432Z" fill="#B4ECE9"/>
<path d="M178.094 85.1776L190.269 83.7305L178.273 86.8759L178.094 85.1776Z" fill="#B4ECE9"/>
<path d="M195.817 86.4219L182.207 87.4385L195.746 87.7614L195.817 86.4219Z" fill="#B4ECE9"/>
<path d="M180.354 111.047L191.309 111.693L180.521 112.984L180.354 111.047Z" fill="#B4ECE9"/>
<path d="M196.954 124.105L185.676 125.23L197.277 125.397L196.954 124.105Z" fill="#B4ECE9"/>
<path d="M181.334 143.602H193.892L182.614 144.893L181.334 143.602Z" fill="#B4ECE9"/>
<path d="M200.338 160.523L187.924 161.337L200.506 161.66L200.338 160.523Z" fill="#B4ECE9"/>
<path d="M133.664 123.738L126.895 157.202L135.386 188.034H182.376L182.328 180.201L184.063 179.878L183.62 162.548L185.019 162.464L184.182 138.401L186.323 137.887V123.786L133.664 123.738Z" fill="#ECF3F2"/>
<path d="M118.307 136.786L117.123 138.615L118.725 160.418L120.663 161.279L122.17 176.648L121.093 180.523L122.708 188.033H135.386V179.231L136.892 176.217V160.741L134.309 160.107L133.233 137.754L136.892 136.678L135.852 123.785H116.166L118.307 136.786Z" fill="#DBF5F7"/>
<path d="M186.322 137.887L152.152 138.449L184.217 139.095L186.322 137.887Z" fill="#DBF5F7"/>
<path d="M133.293 145.863L168.754 146.031L133.293 147.633V145.863Z" fill="#DBF5F7"/>
<path d="M146.508 150.372L174.386 149.57L160.046 151.508L146.508 150.372Z" fill="#DBF5F7"/>
<path d="M136.893 160.742L162.954 161.496L136.678 162.955L136.893 160.742Z" fill="#DBF5F7"/>
<path d="M184.063 179.879L151.508 180.357L182.448 181.003L184.063 179.879Z" fill="#DBF5F7"/>
<path d="M135.062 178.587L163.264 178.42L136.031 176.973L135.062 178.587Z" fill="#DBF5F7"/>
<path d="M136.199 130.066H165.525L136.199 131.681V130.066Z" fill="#DBF5F7"/>
<path d="M117.482 131.763L133.533 131.523L117.662 133.126L117.482 131.763Z" fill="#B4ECE9"/>
<path d="M133.233 137.754L119.275 138.77L133.292 138.938L133.233 137.754Z" fill="#B4ECE9"/>
<path d="M136.832 169.402L126.846 169.558L136.892 170.61L136.832 169.402Z" fill="#B4ECE9"/>
<path d="M121.189 180.057L131.355 179.555L121.094 180.523L121.189 180.057Z" fill="#B4ECE9"/>
<path d="M117.984 150.539L125.077 150.695L118.056 151.46L117.984 150.539Z" fill="#B4ECE9"/>
<path d="M118.725 160.419L131.199 160.371L120.662 161.28L118.725 160.419Z" fill="#B4ECE9"/>
<path d="M116.166 123.786C116.166 123.786 112.817 124.863 112.602 128.295C117.972 126.142 133.651 123.738 133.651 123.738L116.166 123.786Z" fill="#B4ECE9"/>
<path d="M153.217 127.863H186.31C186.31 127.863 188.032 128.724 189.108 131.308C183.954 130.231 153.217 127.863 153.217 127.863Z" fill="#DBF5F7"/>
<path d="M133.747 154.895L124.502 155.11C124.502 155.11 121.704 156.186 121.488 157.047C124.502 157.047 132.228 156.617 132.228 156.617L133.747 154.895Z" fill="#B4ECE9"/>
<path d="M140.541 139.951L149.501 188.497L192.001 192.497L194.049 131.137L140.541 139.951Z" fill="#1D6367"/>
<path d="M228.768 136.65L220 188.997L192 192.497L194.049 131.137L228.768 136.65Z" fill="#117076"/>
<path d="M139.68 139.151L140.864 145.921L194.049 137.429L194.217 129.32L139.68 139.151Z" fill="#177C83"/>
<path d="M230.156 137.106L228.649 143.553L194.049 137.429L194.216 129.32L230.156 137.106Z" fill="#28989F"/>
<path d="M156.018 156.232L156.819 167.031H182.501V153.5L156.018 156.232Z" fill="#90E0D5"/>
<path d="M177.952 101.206C177.94 101.72 177.354 102.139 176.648 102.115L131.536 101.17C130.818 101.158 130.256 100.727 130.268 100.201L130.627 93.1927C130.639 92.6784 131.547 92.0804 132.265 92.0923L176.026 91.3867C176.744 91.3987 177.569 92.188 177.557 92.7023L177.952 101.206Z" fill="#1D6367"/>
<path d="M174.602 109.925C174.602 110.463 174.028 110.894 173.311 110.894H128.186C127.481 110.894 126.895 110.463 126.895 109.925V101.445C126.895 100.907 127.469 100.477 128.186 100.477L172.988 101.338C173.705 101.338 174.495 101.984 174.495 102.522L174.602 109.925Z" fill="#E34342"/>
<path d="M181.826 122.567C181.826 123.38 180.774 124.026 179.482 124.026H124.383C123.092 124.026 122.039 123.368 122.039 122.567V111.588C122.039 110.775 123.092 110.129 124.383 110.129H179.47C180.762 110.129 181.814 110.787 181.814 111.588V122.567H181.826Z" fill="#FC9E49"/>
<path d="M179.481 110.129L157.188 110.153C155.562 110.667 155.358 122.735 157.523 124.05L179.481 124.038C180.773 124.038 181.826 123.38 181.826 122.579V111.588C181.826 110.775 180.773 110.129 179.481 110.129Z" fill="#FFBE84"/>
<path d="M181.815 112.855H158.027V121.299H181.815V112.855Z" fill="#ECF3F2"/>
<path d="M181.827 116.228V112.855H158.039V115.642C165.61 113.884 174.017 114.004 181.827 116.228Z" fill="#DBF5F7"/>
<path d="M158.025 117.387L175.846 117.746L158.025 118.631V117.387Z" fill="#DBF5F7"/>
<path d="M181.791 119.348L173.287 119.694L181.874 120.412L181.791 119.348Z" fill="#DBF5F7"/>
<path d="M151.811 114.015L125.572 113.078V120.575H151.811V114.015Z" fill="#FFDEC0"/>
<path d="M165.046 94.2344H137.969V98.9585H165.046V94.2344Z" fill="#90E0D5"/>
<defs>
<linearGradient id="paint0_linear" x1="157.2" y1="14.8012" x2="228.867" y2="14.8012" gradientUnits="userSpaceOnUse">
<stop stop-color="#EFFFFF"/>
<stop offset="0.0167" stop-color="#EEFEFE"/>
<stop offset="0.2421" stop-color="#E0F8F9"/>
<stop offset="0.5195" stop-color="#D7F4F6"/>
<stop offset="1" stop-color="#D5F3F5"/>
</linearGradient>
<linearGradient id="paint1_linear" x1="154.406" y1="55.1733" x2="179.44" y2="55.1733" gradientUnits="userSpaceOnUse">
<stop stop-color="#EFFFFF"/>
<stop offset="0.0167" stop-color="#EEFEFE"/>
<stop offset="0.2421" stop-color="#E0F8F9"/>
<stop offset="0.5195" stop-color="#D7F4F6"/>
<stop offset="1" stop-color="#D5F3F5"/>
</linearGradient>
</defs>
</svg>
