<svg width="174" height="128" viewBox="0 0 174 128" fill="none" xmlns="http://www.w3.org/2000/svg">
<rect width="174" height="128" fill="white"/>
<path d="M109.97 34.1099H64.5456C62.4113 34.1073 60.3653 33.2603 58.8563 31.7548C57.3472 30.2493 56.4984 28.2083 56.4961 26.0793V16.2186C56.4984 14.0897 57.3472 12.0486 58.8563 10.5431C60.3653 9.03758 62.4113 8.19062 64.5456 8.18799H109.97C112.105 8.19062 114.151 9.03758 115.66 10.5431C117.169 12.0486 118.018 14.0897 118.02 16.2186V26.0793C118.018 28.2083 117.169 30.2493 115.66 31.7548C114.151 33.2603 112.105 34.1073 109.97 34.1099ZM64.5456 15.6653C64.3988 15.6653 64.2579 15.7234 64.1541 15.827C64.0503 15.9306 63.992 16.071 63.992 16.2175V26.0782C63.992 26.2247 64.0503 26.3651 64.1541 26.4687C64.2579 26.5723 64.3988 26.6304 64.5456 26.6304H109.97C110.117 26.6304 110.258 26.5723 110.362 26.4687C110.466 26.3651 110.524 26.2247 110.524 26.0782V16.2186C110.524 16.0721 110.466 15.9317 110.362 15.8281C110.258 15.7245 110.117 15.6664 109.97 15.6664L64.5456 15.6653Z" fill="#E0E0E0"/>
<path d="M143.246 24.4512H31.2757C24.9167 24.4512 19.7617 29.5934 19.7617 35.9366V109.859C19.7617 116.202 24.9167 121.344 31.2757 121.344H143.246C149.604 121.344 154.759 116.202 154.759 109.859V35.9366C154.759 29.5934 149.604 24.4512 143.246 24.4512Z" fill="#E0E0E0"/>
<path d="M147.094 24.4512H27.4235C24.7926 24.4512 22.2696 25.4937 20.4093 27.3493C18.549 29.205 17.5039 31.7218 17.5039 34.3461V66.209C17.5037 68.5541 18.3385 70.823 19.8595 72.6112C21.3804 74.3994 23.4885 75.5906 25.8081 75.9725L87.8843 86.19C87.948 86.201 88.0132 86.201 88.077 86.19L148.74 75.9957C151.054 75.6073 153.154 74.4135 154.669 72.6264C156.184 70.8393 157.014 68.5746 157.014 66.2344V34.3461C157.014 31.7218 155.968 29.205 154.108 27.3493C152.248 25.4937 149.725 24.4512 147.094 24.4512Z" fill="#F2F2F2"/>
<path d="M88.9558 82.113C88.8171 82.1127 88.6837 82.0604 88.5818 81.9665C88.4799 81.8727 88.417 81.7441 88.4056 81.6063C88.3942 81.4684 88.4351 81.3313 88.5201 81.222C88.6052 81.1128 88.7283 81.0394 88.865 81.0163L92.1457 80.4641C92.2175 80.452 92.2909 80.4542 92.3618 80.4705C92.4327 80.4867 92.4997 80.5168 92.559 80.5589C92.6183 80.601 92.6687 80.6543 92.7073 80.7158C92.7459 80.7774 92.772 80.8459 92.784 80.9174C92.7961 80.989 92.7939 81.0623 92.7776 81.133C92.7613 81.2037 92.7312 81.2706 92.689 81.3297C92.6468 81.3888 92.5933 81.4391 92.5316 81.4776C92.47 81.5161 92.4013 81.5421 92.3295 81.5542L89.0488 82.1064C89.0181 82.1113 88.987 82.1136 88.9558 82.113ZM85.6751 81.8999C85.6447 81.9 85.6143 81.8974 85.5843 81.8921L82.3014 81.3521C82.2297 81.3403 82.1609 81.3145 82.0992 81.2762C82.0374 81.2379 81.9838 81.1878 81.9414 81.1288C81.8991 81.0698 81.8688 81.0031 81.8523 80.9324C81.8358 80.8618 81.8334 80.7886 81.8453 80.717C81.8571 80.6454 81.8829 80.5768 81.9213 80.5152C81.9597 80.4536 82.0099 80.4001 82.0691 80.3579C82.1282 80.3156 82.1951 80.2854 82.2659 80.2689C82.3368 80.2525 82.4102 80.2501 82.4819 80.2619L85.7648 80.802C85.9029 80.8235 86.0278 80.8964 86.1143 81.0059C86.2008 81.1154 86.2425 81.2535 86.2312 81.3925C86.2198 81.5315 86.1562 81.661 86.0531 81.7551C85.9499 81.8492 85.8149 81.901 85.6751 81.8999ZM95.5172 81.0097C95.3785 81.0093 95.245 80.957 95.1432 80.8632C95.0413 80.7693 94.9784 80.6408 94.967 80.5029C94.9556 80.365 94.9964 80.2279 95.0815 80.1187C95.1666 80.0094 95.2897 79.936 95.4264 79.9129L98.7071 79.3607C98.7789 79.3487 98.8523 79.3508 98.9232 79.3671C98.9941 79.3834 99.0611 79.4134 99.1204 79.4555C99.1797 79.4976 99.23 79.5509 99.2687 79.6125C99.3073 79.674 99.3333 79.7425 99.3454 79.8141C99.3575 79.8857 99.3553 79.9589 99.339 80.0296C99.3227 80.1004 99.2926 80.1672 99.2504 80.2263C99.2082 80.2855 99.1547 80.3357 99.093 80.3742C99.0313 80.4127 98.9627 80.4388 98.8909 80.4508L95.6102 81.003C95.5794 81.0071 95.5483 81.0089 95.5172 81.0086V81.0097ZM79.1093 80.8164C79.0789 80.8165 79.0485 80.8139 79.0185 80.8087L75.7356 80.2686C75.6639 80.2568 75.5951 80.231 75.5334 80.1927C75.4716 80.1544 75.418 80.1043 75.3756 80.0453C75.3333 79.9863 75.303 79.9196 75.2865 79.849C75.27 79.7783 75.2676 79.7051 75.2794 79.6335C75.2904 79.5616 75.3157 79.4925 75.3539 79.4305C75.3921 79.3685 75.4423 79.3147 75.5017 79.2724C75.561 79.2301 75.6283 79.2001 75.6995 79.1841C75.7706 79.1682 75.8443 79.1666 75.9161 79.1796L79.199 79.7196C79.3357 79.7427 79.4587 79.816 79.5437 79.9251C79.6288 80.0343 79.6698 80.1713 79.6585 80.3091C79.6472 80.4468 79.5846 80.5754 79.4829 80.6693C79.3812 80.7633 79.2479 80.8157 79.1093 80.8164ZM102.08 79.9041C101.941 79.9037 101.808 79.8514 101.706 79.7576C101.604 79.6637 101.541 79.5352 101.529 79.3973C101.518 79.2594 101.559 79.1223 101.644 79.0131C101.729 78.9038 101.852 78.8304 101.989 78.8074L105.27 78.2551C105.342 78.2418 105.416 78.243 105.488 78.2586C105.559 78.2741 105.627 78.3038 105.688 78.3458C105.748 78.3878 105.799 78.4413 105.838 78.5032C105.877 78.5652 105.904 78.6343 105.916 78.7065C105.928 78.7787 105.926 78.8527 105.909 78.924C105.892 78.9953 105.862 79.0626 105.819 79.122C105.776 79.1813 105.721 79.2315 105.658 79.2696C105.596 79.3078 105.526 79.3331 105.453 79.3441L102.173 79.8964C102.142 79.9011 102.111 79.9037 102.08 79.9041ZM72.5435 79.7362C72.5131 79.7363 72.4827 79.7337 72.4527 79.7285L69.1698 79.1884C69.098 79.1766 69.0293 79.1508 68.9675 79.1125C68.9058 79.0742 68.8522 79.0241 68.8098 78.9652C68.7674 78.9062 68.7371 78.8394 68.7206 78.7688C68.7041 78.6981 68.7018 78.6249 68.7136 78.5533C68.7255 78.4817 68.7513 78.4132 68.7897 78.3516C68.8281 78.2899 68.8783 78.2365 68.9374 78.1942C68.9966 78.152 69.0635 78.1217 69.1343 78.1053C69.2051 78.0888 69.2785 78.0864 69.3503 78.0983L72.6332 78.6384C72.7713 78.6599 72.8961 78.7327 72.9827 78.8422C73.0692 78.9518 73.1109 79.0899 73.0996 79.2289C73.0882 79.3678 73.0246 79.4974 72.9214 79.5915C72.8183 79.6856 72.6833 79.7373 72.5435 79.7362ZM108.639 78.8018C108.5 78.8015 108.367 78.7492 108.265 78.6553C108.163 78.5615 108.1 78.4329 108.089 78.295C108.077 78.1572 108.118 78.0201 108.203 77.9108C108.288 77.8016 108.411 77.7282 108.548 77.7051L111.829 77.1529C111.901 77.1408 111.974 77.143 112.045 77.1593C112.116 77.1755 112.183 77.2056 112.242 77.2477C112.301 77.2898 112.352 77.3431 112.39 77.4046C112.429 77.4662 112.455 77.5347 112.467 77.6062C112.479 77.6778 112.477 77.7511 112.461 77.8218C112.444 77.8925 112.414 77.9594 112.372 78.0185C112.33 78.0776 112.276 78.1279 112.215 78.1664C112.153 78.2049 112.084 78.2309 112.013 78.243L108.732 78.7952C108.702 78.7988 108.671 78.8002 108.641 78.7996L108.639 78.8018ZM65.9777 78.6549C65.9473 78.6551 65.9169 78.6525 65.8869 78.6472L62.604 78.1071C62.4593 78.083 62.33 78.0026 62.2447 77.8835C62.1594 77.7645 62.1249 77.6164 62.1489 77.472C62.1598 77.4001 62.185 77.3312 62.223 77.2691C62.2611 77.2071 62.3112 77.1534 62.3705 77.111C62.4298 77.0687 62.4969 77.0387 62.568 77.0227C62.6392 77.0067 62.7128 77.0052 62.7845 77.0181L66.0674 77.5582C66.204 77.5812 66.3271 77.6546 66.4121 77.7637C66.4972 77.8728 66.5382 78.0098 66.5269 78.1476C66.5156 78.2854 66.453 78.414 66.3513 78.5079C66.2496 78.6018 66.1163 78.6543 65.9777 78.6549ZM115.204 77.6952C115.065 77.6948 114.931 77.6425 114.83 77.5487C114.728 77.4548 114.665 77.3262 114.653 77.1884C114.642 77.0505 114.683 76.9134 114.768 76.8041C114.853 76.6949 114.976 76.6215 115.113 76.5984L118.393 76.0462C118.537 76.0244 118.684 76.0598 118.801 76.1448C118.919 76.2298 118.999 76.3575 119.023 76.5004C119.047 76.6434 119.014 76.7901 118.93 76.9088C118.847 77.0276 118.72 77.1089 118.577 77.1352L115.297 77.6874C115.266 77.6922 115.235 77.6948 115.204 77.6952ZM59.413 77.5704C59.3826 77.5705 59.3522 77.5679 59.3222 77.5626L56.0382 77.0214C55.8976 76.9931 55.7734 76.9115 55.692 76.7937C55.6105 76.6759 55.578 76.5312 55.6014 76.39C55.6248 76.2488 55.7023 76.1222 55.8174 76.0369C55.9325 75.9515 56.0764 75.9141 56.2187 75.9324L59.5027 76.4725C59.6408 76.494 59.7656 76.5668 59.8521 76.6764C59.9386 76.7859 59.9804 76.924 59.9691 77.063C59.9577 77.202 59.8941 77.3315 59.7909 77.4256C59.6878 77.5197 59.5528 77.5714 59.413 77.5704ZM121.766 76.5929C121.627 76.5928 121.494 76.5407 121.392 76.4469C121.289 76.3532 121.226 76.2246 121.215 76.0867C121.203 75.9487 121.244 75.8115 121.329 75.7021C121.414 75.5927 121.537 75.5192 121.674 75.4961L124.955 74.9439C125.027 74.9306 125.101 74.9318 125.173 74.9473C125.245 74.9629 125.313 74.9926 125.373 75.0346C125.433 75.0766 125.484 75.1301 125.523 75.192C125.563 75.254 125.589 75.3231 125.601 75.3953C125.613 75.4675 125.611 75.5415 125.594 75.6128C125.578 75.6841 125.547 75.7514 125.504 75.8107C125.461 75.8701 125.406 75.9203 125.344 75.9584C125.281 75.9966 125.211 76.0219 125.139 76.0329L121.858 76.5852C121.828 76.5914 121.797 76.5954 121.766 76.5973V76.5929ZM52.8461 76.4935C52.8156 76.4936 52.7853 76.491 52.7553 76.4858L49.4735 75.9457C49.4017 75.9339 49.333 75.9081 49.2712 75.8698C49.2094 75.8315 49.1558 75.7814 49.1135 75.7224C49.0711 75.6634 49.0408 75.5967 49.0243 75.5261C49.0078 75.4554 49.0054 75.3822 49.0173 75.3106C49.0279 75.2385 49.0529 75.1692 49.0909 75.1069C49.129 75.0447 49.1792 74.9907 49.2387 74.9483C49.2982 74.9059 49.3656 74.876 49.437 74.8602C49.5083 74.8445 49.5821 74.8433 49.654 74.8567L52.9347 75.3967C53.0713 75.4198 53.1943 75.4931 53.2794 75.6023C53.3645 75.7114 53.4054 75.8484 53.3942 75.9862C53.3829 76.1239 53.3202 76.2525 53.2185 76.3464C53.1169 76.4404 52.9836 76.4928 52.845 76.4935H52.8461ZM128.327 75.4939C128.189 75.4936 128.055 75.4413 127.953 75.3474C127.851 75.2536 127.789 75.125 127.777 74.9872C127.766 74.8493 127.807 74.7122 127.892 74.6029C127.977 74.4937 128.1 74.4203 128.237 74.3972L131.517 73.845C131.59 73.8317 131.664 73.8328 131.735 73.8484C131.807 73.864 131.875 73.8936 131.935 73.9356C131.995 73.9776 132.047 74.0312 132.086 74.0931C132.125 74.155 132.152 74.2241 132.164 74.2963C132.176 74.3686 132.174 74.4425 132.157 74.5138C132.14 74.5852 132.109 74.6525 132.066 74.7118C132.023 74.7711 131.969 74.8213 131.906 74.8595C131.843 74.8976 131.774 74.923 131.701 74.934L128.42 75.4862C128.39 75.4915 128.359 75.4941 128.327 75.4939ZM46.2825 75.4133C46.2521 75.4134 46.2217 75.4109 46.1917 75.4056L42.9088 74.8644C42.8351 74.8549 42.764 74.8306 42.6999 74.7931C42.6357 74.7556 42.5798 74.7057 42.5355 74.6461C42.4912 74.5866 42.4593 74.5188 42.4418 74.4467C42.4243 74.3747 42.4215 74.2998 42.4336 74.2267C42.4458 74.1535 42.4725 74.0835 42.5124 74.0209C42.5522 73.9583 42.6042 73.9043 42.6654 73.8622C42.7266 73.8201 42.7957 73.7907 42.8685 73.7758C42.9413 73.7609 43.0164 73.7607 43.0893 73.7754L46.3722 74.3155C46.5103 74.337 46.6351 74.4098 46.7216 74.5193C46.8081 74.6289 46.8499 74.767 46.8385 74.906C46.8272 75.0449 46.7636 75.1745 46.6604 75.2686C46.5573 75.3627 46.4223 75.4144 46.2825 75.4133ZM134.891 74.3917C134.752 74.3913 134.619 74.339 134.517 74.2452C134.415 74.1513 134.352 74.0228 134.341 73.8849C134.329 73.747 134.37 73.6099 134.455 73.5007C134.54 73.3914 134.664 73.318 134.8 73.2949L138.08 72.7427C138.152 72.7294 138.226 72.7306 138.298 72.7461C138.37 72.7617 138.438 72.7914 138.498 72.8334C138.558 72.8754 138.609 72.9289 138.648 72.9908C138.688 73.0528 138.714 73.1218 138.726 73.1941C138.738 73.2663 138.736 73.3403 138.719 73.4116C138.703 73.4829 138.672 73.5502 138.629 73.6095C138.586 73.6689 138.531 73.7191 138.469 73.7572C138.406 73.7954 138.336 73.8207 138.264 73.8317L134.984 74.3839C134.953 74.3893 134.921 74.3919 134.89 74.3917H134.891ZM39.7167 74.332C39.6862 74.3322 39.6559 74.3296 39.6259 74.3243L36.343 73.7842C36.1982 73.7601 36.069 73.6797 35.9837 73.5606C35.8983 73.4416 35.8639 73.2935 35.8879 73.1491C35.8985 73.0771 35.9235 73.0079 35.9614 72.9458C35.9994 72.8836 36.0496 72.8297 36.1089 72.7873C36.1682 72.745 36.2355 72.715 36.3068 72.6991C36.378 72.6833 36.4517 72.682 36.5235 72.6952L39.8064 73.2353C39.943 73.2583 40.066 73.3317 40.1511 73.4408C40.2362 73.5499 40.2771 73.6869 40.2659 73.8247C40.2546 73.9625 40.1919 74.0911 40.0902 74.185C39.9886 74.2789 39.8553 74.3314 39.7167 74.332ZM141.452 73.2894C141.314 73.289 141.18 73.2368 141.078 73.1429C140.976 73.0491 140.914 72.9205 140.902 72.7826C140.891 72.6448 140.932 72.5076 141.017 72.3984C141.102 72.2892 141.225 72.2157 141.362 72.1927L144.642 71.6404C144.715 71.6271 144.789 71.6283 144.86 71.6439C144.932 71.6594 145 71.6891 145.06 71.7311C145.12 71.7731 145.172 71.8266 145.211 71.8886C145.25 71.9505 145.277 72.0196 145.289 72.0918C145.301 72.1641 145.299 72.238 145.282 72.3093C145.265 72.3806 145.234 72.4479 145.191 72.5073C145.148 72.5666 145.094 72.6168 145.031 72.655C144.968 72.6931 144.899 72.7184 144.826 72.7295L141.545 73.2817C141.514 73.2865 141.483 73.2891 141.451 73.2894H141.452ZM33.1509 73.2519C33.1204 73.252 33.09 73.2494 33.0601 73.2441L29.7772 72.704C29.7054 72.6922 29.6367 72.6665 29.5749 72.6282C29.5131 72.5899 29.4595 72.5398 29.4172 72.4808C29.3748 72.4218 29.3445 72.3551 29.328 72.2844C29.3115 72.2138 29.3091 72.1406 29.321 72.069C29.332 71.997 29.3573 71.928 29.3955 71.866C29.4336 71.804 29.4839 71.7502 29.5432 71.7079C29.6026 71.6656 29.6698 71.6356 29.741 71.6196C29.8122 71.6037 29.8858 71.6021 29.9576 71.615L33.2405 72.154C33.3787 72.1755 33.5035 72.2484 33.59 72.3579C33.6765 72.4674 33.7183 72.6055 33.7069 72.7445C33.6956 72.8835 33.6319 73.013 33.5288 73.1071C33.4257 73.2012 33.2906 73.2529 33.1509 73.2519ZM148.015 72.1861C147.876 72.186 147.742 72.1339 147.64 72.0401C147.538 71.9464 147.475 71.8178 147.464 71.6798C147.452 71.5419 147.493 71.4046 147.578 71.2953C147.663 71.1859 147.786 71.1124 147.923 71.0893C148.913 70.925 149.83 70.4626 150.549 69.764C150.654 69.6614 150.796 69.6047 150.943 69.6063C151.09 69.6078 151.23 69.6675 151.333 69.7722C151.435 69.877 151.492 70.0181 151.491 70.1647C151.489 70.3112 151.429 70.4511 151.324 70.5536C150.446 71.4104 149.325 71.9788 148.113 72.1827C148.08 72.1862 148.047 72.1874 148.014 72.1861H148.015ZM26.4909 72.164L26.4367 72.154C25.2235 71.957 24.0996 71.3948 23.2158 70.5426C23.1635 70.4918 23.1218 70.4313 23.093 70.3644C23.0641 70.2976 23.0488 70.2257 23.0478 70.153C23.0468 70.0802 23.0603 70.0079 23.0873 69.9403C23.1143 69.8727 23.1544 69.8111 23.2053 69.759C23.2562 69.7068 23.3168 69.6652 23.3839 69.6365C23.4509 69.6077 23.5229 69.5924 23.5959 69.5914C23.6688 69.5905 23.7412 69.6038 23.809 69.6308C23.8768 69.6577 23.9386 69.6977 23.9908 69.7485C24.7114 70.4457 25.6287 70.9063 26.6194 71.0683L26.5839 71.6206L26.4909 72.164ZM152.486 67.8289C152.451 67.8288 152.416 67.8255 152.382 67.819C152.31 67.8057 152.242 67.7785 152.181 67.7388C152.12 67.6991 152.067 67.6477 152.026 67.5877C151.985 67.5277 151.956 67.4601 151.941 67.3889C151.926 67.3177 151.925 67.2443 151.939 67.1729C151.999 66.8635 152.029 66.5491 152.029 66.2341V63.9644C152.029 63.8179 152.087 63.6774 152.191 63.5739C152.295 63.4703 152.435 63.4121 152.582 63.4121C152.729 63.4121 152.87 63.4703 152.974 63.5739C153.077 63.6774 153.136 63.8179 153.136 63.9644V66.2341C153.135 66.6188 153.098 67.0027 153.025 67.3805C153.001 67.5059 152.934 67.6191 152.836 67.7009C152.738 67.7826 152.614 67.8279 152.486 67.8289ZM22.0355 67.8289C21.9079 67.8289 21.7841 67.785 21.6853 67.7045C21.5864 67.624 21.5185 67.5119 21.493 67.3871C21.417 66.9989 21.3788 66.6042 21.3789 66.2087V63.9633C21.3789 63.8168 21.4372 63.6763 21.5411 63.5728C21.6449 63.4692 21.7857 63.411 21.9325 63.411C22.0793 63.411 22.2202 63.4692 22.324 63.5728C22.4278 63.6763 22.4861 63.8168 22.4861 63.9633V66.2087C22.486 66.5319 22.5171 66.8545 22.5791 67.1718C22.6074 67.3154 22.5774 67.4644 22.4956 67.586C22.4138 67.7076 22.2869 67.7918 22.1429 67.8201C22.1074 67.8259 22.0714 67.8285 22.0355 67.8278V67.8289ZM152.584 61.2021C152.438 61.2021 152.297 61.1439 152.193 61.0403C152.089 60.9368 152.031 60.7963 152.031 60.6499V57.3364C152.031 57.19 152.089 57.0495 152.193 56.946C152.297 56.8424 152.438 56.7842 152.584 56.7842C152.731 56.7842 152.872 56.8424 152.976 56.946C153.08 57.0495 153.138 57.19 153.138 57.3364V60.6499C153.137 60.7954 153.078 60.9344 152.974 61.0368C152.87 61.1392 152.73 61.1966 152.584 61.1966V61.2021ZM21.9325 61.2021C21.7857 61.2021 21.6449 61.1439 21.5411 61.0403C21.4372 60.9368 21.3789 60.7963 21.3789 60.6499V57.3254C21.3789 57.1789 21.4372 57.0385 21.5411 56.9349C21.6449 56.8314 21.7857 56.7732 21.9325 56.7732C22.0793 56.7732 22.2202 56.8314 22.324 56.9349C22.4278 57.0385 22.4861 57.1789 22.4861 57.3254V60.6443C22.4861 60.7908 22.4278 60.9313 22.324 61.0348C22.2202 61.1384 22.0793 61.1966 21.9325 61.1966V61.2021ZM152.584 54.5653C152.438 54.5653 152.297 54.5072 152.193 54.4036C152.089 54.3 152.031 54.1596 152.031 54.0131V50.6886C152.031 50.5422 152.089 50.4017 152.193 50.2982C152.297 50.1946 152.438 50.1364 152.584 50.1364C152.731 50.1364 152.872 50.1946 152.976 50.2982C153.08 50.4017 153.138 50.5422 153.138 50.6886V54.0076C153.138 54.154 153.08 54.2945 152.976 54.3981C152.872 54.5016 152.731 54.5598 152.584 54.5598V54.5653ZM21.9325 54.5653C21.7857 54.5653 21.6449 54.5072 21.5411 54.4036C21.4372 54.3 21.3789 54.1596 21.3789 54.0131V50.6997C21.3789 50.5532 21.4372 50.4128 21.5411 50.3092C21.6449 50.2056 21.7857 50.1475 21.9325 50.1475C22.0793 50.1475 22.2202 50.2056 22.324 50.3092C22.4278 50.4128 22.4861 50.5532 22.4861 50.6997V54.0131C22.4844 54.1584 22.4253 54.2972 22.3216 54.3993C22.218 54.5014 22.0782 54.5587 21.9325 54.5587V54.5653ZM152.584 47.9275C152.438 47.9275 152.297 47.8693 152.193 47.7657C152.089 47.6622 152.031 47.5217 152.031 47.3752V44.0618C152.031 43.9154 152.089 43.7749 152.193 43.6713C152.297 43.5678 152.438 43.5096 152.584 43.5096C152.731 43.5096 152.872 43.5678 152.976 43.6713C153.08 43.7749 153.138 43.9154 153.138 44.0618V47.3752C153.136 47.5205 153.077 47.6593 152.974 47.7614C152.87 47.8636 152.73 47.9209 152.584 47.9208V47.9275ZM21.9325 47.9275C21.7857 47.9275 21.6449 47.8693 21.5411 47.7657C21.4372 47.6622 21.3789 47.5217 21.3789 47.3752V44.0497C21.3789 43.9032 21.4372 43.7627 21.5411 43.6592C21.6449 43.5556 21.7857 43.4974 21.9325 43.4974C22.0793 43.4974 22.2202 43.5556 22.324 43.6592C22.4278 43.7627 22.4861 43.9032 22.4861 44.0497V47.3686C22.4861 47.5151 22.4278 47.6555 22.324 47.7591C22.2202 47.8627 22.0793 47.9208 21.9325 47.9208V47.9275ZM152.584 41.2907C152.438 41.2907 152.297 41.2325 152.193 41.129C152.089 41.0254 152.031 40.8849 152.031 40.7385V37.4129C152.031 37.2664 152.089 37.126 152.193 37.0224C152.297 36.9189 152.438 36.8607 152.584 36.8607C152.731 36.8607 152.872 36.9189 152.976 37.0224C153.08 37.126 153.138 37.2664 153.138 37.4129V40.7318C153.138 40.8783 153.08 41.0188 152.976 41.1223C152.872 41.2259 152.731 41.2841 152.584 41.2841V41.2907ZM21.9325 41.2907C21.7857 41.2907 21.6449 41.2325 21.5411 41.129C21.4372 41.0254 21.3789 40.8849 21.3789 40.7385V37.4118C21.3789 37.2653 21.4372 37.1249 21.5411 37.0213C21.6449 36.9178 21.7857 36.8596 21.9325 36.8596C22.0793 36.8596 22.2202 36.9178 22.324 37.0213C22.4278 37.1249 22.4861 37.2653 22.4861 37.4118V40.7307C22.4861 40.8772 22.4278 41.0177 22.324 41.1212C22.2202 41.2248 22.0793 41.283 21.9325 41.283V41.2907ZM152.584 34.6528C152.442 34.653 152.305 34.5983 152.202 34.5002C152.099 34.402 152.037 34.268 152.031 34.126C151.986 33.1243 151.634 32.1605 151.022 31.3648C150.939 31.2482 150.904 31.1038 150.925 30.9621C150.947 30.8204 151.023 30.6926 151.137 30.6056C151.251 30.5185 151.394 30.4792 151.537 30.4957C151.68 30.5123 151.81 30.5836 151.901 30.6944C152.65 31.6664 153.082 32.8441 153.138 34.0686C153.141 34.1411 153.13 34.2136 153.106 34.2819C153.081 34.3502 153.043 34.413 152.994 34.4667C152.945 34.5203 152.886 34.5638 152.82 34.5946C152.754 34.6254 152.683 34.643 152.61 34.6462L152.584 34.6528ZM21.9447 34.6528H21.9126C21.7661 34.646 21.6283 34.5814 21.5295 34.4733C21.4307 34.3652 21.3789 34.2224 21.3855 34.0763C21.4406 32.8501 21.8719 31.6703 22.6212 30.6966C22.7105 30.5803 22.8424 30.5042 22.988 30.4849C23.1335 30.4657 23.2808 30.5049 23.3974 30.5939C23.5139 30.683 23.5903 30.8146 23.6096 30.9598C23.6289 31.1049 23.5896 31.2519 23.5003 31.3681C22.8878 32.1634 22.5357 33.1274 22.4917 34.1293C22.4824 34.2692 22.4201 34.4003 22.3175 34.4961C22.2149 34.5919 22.0797 34.6451 21.9392 34.6451L21.9447 34.6528ZM148.789 29.6938C148.731 29.6936 148.674 29.6847 148.619 29.6673C148.128 29.5091 147.615 29.4286 147.099 29.4287H145.49C145.344 29.4287 145.203 29.3705 145.099 29.2669C144.995 29.1634 144.937 29.0229 144.937 28.8765C144.937 28.73 144.995 28.5895 145.099 28.486C145.203 28.3824 145.344 28.3242 145.49 28.3242H147.099C147.731 28.3237 148.359 28.4225 148.959 28.6169C149.084 28.6578 149.19 28.7418 149.259 28.8537C149.327 28.9656 149.354 29.0982 149.333 29.2277C149.313 29.3572 149.247 29.4752 149.147 29.5606C149.047 29.646 148.92 29.6932 148.789 29.6938ZM25.7391 29.6938C25.6071 29.694 25.4793 29.6472 25.3788 29.5617C25.2783 29.4762 25.2118 29.3577 25.1912 29.2276C25.1707 29.0975 25.1974 28.9643 25.2666 28.8521C25.3358 28.7399 25.4429 28.6561 25.5686 28.6158C26.1681 28.4224 26.7943 28.324 27.4243 28.3242H29.0387C29.1114 28.3242 29.1833 28.3385 29.2505 28.3663C29.3177 28.394 29.3787 28.4347 29.4301 28.486C29.4815 28.5372 29.5223 28.5981 29.5501 28.6651C29.5779 28.7321 29.5923 28.8039 29.5923 28.8765C29.5923 28.949 29.5779 29.0208 29.5501 29.0878C29.5223 29.1548 29.4815 29.2157 29.4301 29.2669C29.3787 29.3182 29.3177 29.3589 29.2505 29.3867C29.1833 29.4144 29.1114 29.4287 29.0387 29.4287H27.4199C26.9053 29.4282 26.3938 29.5083 25.9041 29.6662C25.8487 29.6818 25.7911 29.6885 25.7336 29.686L25.7391 29.6938ZM142.163 29.4287H138.842C138.695 29.4287 138.554 29.3705 138.45 29.2669C138.346 29.1634 138.288 29.0229 138.288 28.8765C138.288 28.73 138.346 28.5895 138.45 28.486C138.554 28.3824 138.695 28.3242 138.842 28.3242H142.163C142.31 28.3242 142.451 28.3824 142.555 28.486C142.659 28.5895 142.717 28.73 142.717 28.8765C142.717 29.0229 142.659 29.1634 142.555 29.2669C142.451 29.3705 142.31 29.4287 142.163 29.4287ZM135.509 29.4287H132.187C132.04 29.4287 131.9 29.3705 131.796 29.2669C131.692 29.1634 131.634 29.0229 131.634 28.8765C131.634 28.73 131.692 28.5895 131.796 28.486C131.9 28.3824 132.04 28.3242 132.187 28.3242H135.509C135.656 28.3242 135.797 28.3824 135.9 28.486C136.004 28.5895 136.062 28.73 136.062 28.8765C136.062 29.0229 136.004 29.1634 135.9 29.2669C135.797 29.3705 135.656 29.4287 135.509 29.4287ZM128.854 29.4287H125.533C125.386 29.4287 125.245 29.3705 125.141 29.2669C125.038 29.1634 124.979 29.0229 124.979 28.8765C124.979 28.73 125.038 28.5895 125.141 28.486C125.245 28.3824 125.386 28.3242 125.533 28.3242H128.854C129.001 28.3242 129.142 28.3824 129.246 28.486C129.35 28.5895 129.408 28.73 129.408 28.8765C129.408 29.0229 129.35 29.1634 129.246 29.2669C129.142 29.3705 129.001 29.4287 128.854 29.4287ZM122.2 29.4287H118.878C118.732 29.4287 118.591 29.3705 118.487 29.2669C118.383 29.1634 118.325 29.0229 118.325 28.8765C118.325 28.73 118.383 28.5895 118.487 28.486C118.591 28.3824 118.732 28.3242 118.878 28.3242H122.2C122.347 28.3242 122.488 28.3824 122.592 28.486C122.695 28.5895 122.754 28.73 122.754 28.8765C122.754 29.0229 122.695 29.1634 122.592 29.2669C122.488 29.3705 122.347 29.4287 122.2 29.4287ZM115.546 29.4287H112.213C112.066 29.4287 111.925 29.3705 111.822 29.2669C111.718 29.1634 111.659 29.0229 111.659 28.8765C111.659 28.73 111.718 28.5895 111.822 28.486C111.925 28.3824 112.066 28.3242 112.213 28.3242H115.54C115.687 28.3242 115.828 28.3824 115.932 28.486C116.035 28.5895 116.094 28.73 116.094 28.8765C116.094 29.0229 116.035 29.1634 115.932 29.2669C115.828 29.3705 115.687 29.4287 115.54 29.4287H115.546ZM108.891 29.4287H105.57C105.423 29.4287 105.282 29.3705 105.178 29.2669C105.074 29.1634 105.016 29.0229 105.016 28.8765C105.016 28.73 105.074 28.5895 105.178 28.486C105.282 28.3824 105.423 28.3242 105.57 28.3242H108.891C109.038 28.3242 109.179 28.3824 109.283 28.486C109.387 28.5895 109.445 28.73 109.445 28.8765C109.445 29.0229 109.387 29.1634 109.283 29.2669C109.179 29.3705 109.038 29.4287 108.891 29.4287ZM102.237 29.4287H98.9153C98.7684 29.4287 98.6276 29.3705 98.5238 29.2669C98.42 29.1634 98.3616 29.0229 98.3616 28.8765C98.3616 28.73 98.42 28.5895 98.5238 28.486C98.6276 28.3824 98.7684 28.3242 98.9153 28.3242H102.237C102.384 28.3242 102.525 28.3824 102.628 28.486C102.732 28.5895 102.791 28.73 102.791 28.8765C102.791 29.0229 102.732 29.1634 102.628 29.2669C102.525 29.3705 102.384 29.4287 102.237 29.4287ZM95.5825 29.4287H92.2498C92.103 29.4287 91.9622 29.3705 91.8583 29.2669C91.7545 29.1634 91.6962 29.0229 91.6962 28.8765C91.6962 28.73 91.7545 28.5895 91.8583 28.486C91.9622 28.3824 92.103 28.3242 92.2498 28.3242H95.577C95.7238 28.3242 95.8646 28.3824 95.9685 28.486C96.0723 28.5895 96.1306 28.73 96.1306 28.8765C96.1306 29.0229 96.0723 29.1634 95.9685 29.2669C95.8646 29.3705 95.7238 29.4287 95.577 29.4287H95.5825ZM88.9281 29.4287H85.5976C85.4508 29.4287 85.31 29.3705 85.2062 29.2669C85.1023 29.1634 85.044 29.0229 85.044 28.8765C85.044 28.73 85.1023 28.5895 85.2062 28.486C85.31 28.3824 85.4508 28.3242 85.5976 28.3242H88.9193C89.0661 28.3242 89.2069 28.3824 89.3107 28.486C89.4146 28.5895 89.4729 28.73 89.4729 28.8765C89.4729 29.0229 89.4146 29.1634 89.3107 29.2669C89.2069 29.3705 89.0661 29.4287 88.9193 29.4287H88.9281ZM82.2738 29.4287H78.941C78.7942 29.4287 78.6534 29.3705 78.5496 29.2669C78.4457 29.1634 78.3874 29.0229 78.3874 28.8765C78.3874 28.73 78.4457 28.5895 78.5496 28.486C78.6534 28.3824 78.7942 28.3242 78.941 28.3242H82.2682C82.415 28.3242 82.5559 28.3824 82.6597 28.486C82.7635 28.5895 82.8218 28.73 82.8218 28.8765C82.8218 29.0229 82.7635 29.1634 82.6597 29.2669C82.5559 29.3705 82.415 29.4287 82.2682 29.4287H82.2738ZM75.6194 29.4287H72.2977C72.1509 29.4287 72.0101 29.3705 71.9062 29.2669C71.8024 29.1634 71.7441 29.0229 71.7441 28.8765C71.7441 28.73 71.8024 28.5895 71.9062 28.486C72.0101 28.3824 72.1509 28.3242 72.2977 28.3242H75.6194C75.7662 28.3242 75.907 28.3824 76.0108 28.486C76.1147 28.5895 76.173 28.73 76.173 28.8765C76.173 29.0229 76.1147 29.1634 76.0108 29.2669C75.907 29.3705 75.7662 29.4287 75.6194 29.4287ZM68.965 29.4287H65.6433C65.4965 29.4287 65.3557 29.3705 65.2519 29.2669C65.148 29.1634 65.0897 29.0229 65.0897 28.8765C65.0897 28.73 65.148 28.5895 65.2519 28.486C65.3557 28.3824 65.4965 28.3242 65.6433 28.3242H68.965C69.1118 28.3242 69.2526 28.3824 69.3564 28.486C69.4603 28.5895 69.5186 28.73 69.5186 28.8765C69.5186 29.0229 69.4603 29.1634 69.3564 29.2669C69.2526 29.3705 69.1118 29.4287 68.965 29.4287ZM62.3106 29.4287H58.9779C58.831 29.4287 58.6902 29.3705 58.5864 29.2669C58.4826 29.1634 58.4243 29.0229 58.4243 28.8765C58.4243 28.73 58.4826 28.5895 58.5864 28.486C58.6902 28.3824 58.831 28.3242 58.9779 28.3242H62.3051C62.4519 28.3242 62.5927 28.3824 62.6965 28.486C62.8003 28.5895 62.8587 28.73 62.8587 28.8765C62.8587 29.0229 62.8003 29.1634 62.6965 29.2669C62.5927 29.3705 62.4519 29.4287 62.3051 29.4287H62.3106ZM55.6562 29.4287H52.3235C52.1766 29.4287 52.0358 29.3705 51.932 29.2669C51.8282 29.1634 51.7699 29.0229 51.7699 28.8765C51.7699 28.73 51.8282 28.5895 51.932 28.486C52.0358 28.3824 52.1766 28.3242 52.3235 28.3242H55.6507C55.7975 28.3242 55.9383 28.3824 56.0421 28.486C56.146 28.5895 56.2043 28.73 56.2043 28.8765C56.2043 29.0229 56.146 29.1634 56.0421 29.2669C55.9383 29.3705 55.7975 29.4287 55.6507 29.4287H55.6562ZM49.0018 29.4287H45.668C45.5212 29.4287 45.3803 29.3705 45.2765 29.2669C45.1727 29.1634 45.1144 29.0229 45.1144 28.8765C45.1144 28.73 45.1727 28.5895 45.2765 28.486C45.3803 28.3824 45.5212 28.3242 45.668 28.3242H48.9963C49.1431 28.3242 49.2839 28.3824 49.3877 28.486C49.4916 28.5895 49.5499 28.73 49.5499 28.8765C49.5499 29.0229 49.4916 29.1634 49.3877 29.2669C49.2839 29.3705 49.1431 29.4287 48.9963 29.4287H49.0018ZM42.3474 29.4287H39.0258C38.8789 29.4287 38.7381 29.3705 38.6343 29.2669C38.5305 29.1634 38.4722 29.0229 38.4722 28.8765C38.4722 28.73 38.5305 28.5895 38.6343 28.486C38.7381 28.3824 38.8789 28.3242 39.0258 28.3242H42.3474C42.4943 28.3242 42.6351 28.3824 42.7389 28.486C42.8427 28.5895 42.901 28.73 42.901 28.8765C42.901 29.0229 42.8427 29.1634 42.7389 29.2669C42.6351 29.3705 42.4943 29.4287 42.3474 29.4287ZM35.693 29.4287H32.3592C32.2124 29.4287 32.0716 29.3705 31.9677 29.2669C31.8639 29.1634 31.8056 29.0229 31.8056 28.8765C31.8056 28.73 31.8639 28.5895 31.9677 28.486C32.0716 28.3824 32.2124 28.3242 32.3592 28.3242H35.6875C35.8343 28.3242 35.9751 28.3824 36.079 28.486C36.1828 28.5895 36.2411 28.73 36.2411 28.8765C36.2411 29.0229 36.1828 29.1634 36.079 29.2669C35.9751 29.3705 35.8343 29.4287 35.6875 29.4287H35.693Z" fill="#BDBDBD"/>
<path d="M104.584 6.65576H69.9364C68.9727 6.65576 68.1914 7.43508 68.1914 8.39641V15.9852C68.1914 16.9466 68.9727 17.7259 69.9364 17.7259H104.584C105.547 17.7259 106.328 16.9466 106.328 15.9852V8.39641C106.328 7.43508 105.547 6.65576 104.584 6.65576Z" fill="#BDBDBD"/>
<path d="M91.8382 78.834H82.6771C81.5696 78.834 80.6719 79.7295 80.6719 80.8342V94.9847C80.6719 96.0893 81.5696 96.9848 82.6771 96.9848H91.8382C92.9456 96.9848 93.8434 96.0893 93.8434 94.9847V80.8342C93.8434 79.7295 92.9456 78.834 91.8382 78.834Z" fill="#BDBDBD"/>
<path d="M148.775 27.4878C148.689 27.2612 148.689 27.0113 148.775 26.7847L154.075 12.726C154.4 11.8631 155.624 11.8631 155.949 12.726L161.25 26.7847C161.335 27.0113 161.335 27.2612 161.25 27.4878L155.949 41.5465C155.624 42.4094 154.4 42.4094 154.075 41.5465L148.775 27.4878Z" fill="#FFDE2E"/>
<path d="M155.364 33.3583C155.137 33.4435 154.886 33.4435 154.659 33.3583L140.566 28.0711C139.701 27.7466 139.701 26.5259 140.566 26.2014L154.659 20.9142C154.886 20.829 155.137 20.829 155.364 20.9142L169.458 26.2014C170.323 26.5259 170.323 27.7466 169.458 28.0711L155.364 33.3583Z" fill="#FFDE2E"/>
<path d="M14.8457 92.7681C14.7603 92.5414 14.7603 92.2916 14.8457 92.0649L18.3123 82.8702C18.6376 82.0073 19.8613 82.0073 20.1866 82.8702L23.6532 92.0649C23.7386 92.2916 23.7386 92.5414 23.6532 92.7681L20.1866 101.963C19.8613 102.826 18.6376 102.826 18.3123 101.963L14.8457 92.7681Z" fill="#FFDE2E"/>
<path d="M19.6024 96.8091C19.3753 96.8943 19.1247 96.8943 18.8976 96.8091L9.67996 93.3511C8.81491 93.0266 8.81491 91.8059 9.67997 91.4814L18.8976 88.0235C19.1247 87.9382 19.3753 87.9382 19.6024 88.0235L28.82 91.4814C29.6851 91.8059 29.6851 93.0266 28.82 93.3511L19.6024 96.8091Z" fill="#FFDE2E"/>
</svg>
