<svg width="60" height="60" viewBox="0 0 60 60" fill="none" xmlns="http://www.w3.org/2000/svg">
<rect width="60" height="60" rx="8" fill="#E8F7EE"/>
<path d="M35.3333 27.257C35.3333 23.4685 31.4542 20.3999 26.6667 20.3999C21.8792 20.3999 18 23.4685 18 27.257C18 28.727 18.5875 30.0813 19.5833 31.1999C19.025 32.4942 18.1042 33.5228 18.0917 33.5356C18 33.6342 17.975 33.7799 18.0292 33.9085C18.0833 34.037 18.2 34.1142 18.3333 34.1142C19.8583 34.1142 21.1208 33.587 22.0292 33.0428C23.3708 33.7156 24.9583 34.1142 26.6667 34.1142C31.4542 34.1142 35.3333 31.0456 35.3333 27.257ZM40.4167 36.6856C41.4125 35.5713 42 34.2128 42 32.7428C42 29.8756 39.7708 27.4199 36.6125 26.3956C36.65 26.6785 36.6667 26.9656 36.6667 27.257C36.6667 31.7956 32.1792 35.4856 26.6667 35.4856C26.2167 35.4856 25.7792 35.4513 25.3458 35.4042C26.6583 37.8685 29.7417 39.5999 33.3333 39.5999C35.0417 39.5999 36.6292 39.2056 37.9708 38.5285C38.8792 39.0728 40.1417 39.5999 41.6667 39.5999C41.8 39.5999 41.9208 39.5185 41.9708 39.3942C42.025 39.2699 42 39.1242 41.9083 39.0213C41.8958 39.0085 40.975 37.9842 40.4167 36.6856Z" fill="#828282"/>
</svg>
