<svg width="83" height="68" viewBox="0 0 83 68" fill="none" xmlns="http://www.w3.org/2000/svg">
<path d="M0 1C0 0.447715 0.447715 0 1 0H70.25C70.8023 0 71.25 0.447715 71.25 1V56C71.25 56.5523 70.8023 57 70.25 57H1C0.447717 57 0 56.5523 0 56V1Z" fill="#E0E0E0"/>
<mask id="mask0" mask-type="alpha" maskUnits="userSpaceOnUse" x="0" y="0" width="72" height="57">
<path d="M0 1C0 0.447715 0.447715 0 1 0H70.25C70.8023 0 71.25 0.447715 71.25 1V56C71.25 56.5523 70.8023 57 70.25 57H1C0.447717 57 0 56.5523 0 56V1Z" fill="#E0E0E0"/>
</mask>
<g mask="url(#mask0)">
<path d="M28.5 57H0L14.25 28.5L28.5 57Z" fill="#C7AD25"/>
<path d="M71.25 56.9995H42.75L57 37.9995L71.25 56.9995Z" fill="#C7AD25"/>
<path d="M49.875 57.0005H21.375L35.625 33.2505L49.875 57.0005Z" fill="#FFDE2E"/>
<path d="M48.0938 28.5C51.045 28.5 53.4375 26.1075 53.4375 23.1562C53.4375 20.205 51.045 17.8125 48.0938 17.8125C45.1425 17.8125 42.75 20.205 42.75 23.1562C42.75 26.1075 45.1425 28.5 48.0938 28.5Z" fill="#FFDE2E"/>
</g>
<circle cx="70.7812" cy="56.4998" r="11.5" fill="#BDBDBD"/>
<g clip-path="url(#clip0)">
<path d="M66.1802 57.3501L65.6076 56.7865C65.3652 56.5478 65.3652 56.1619 65.6076 55.9257L70.6193 50.9898C70.8618 50.7511 71.2539 50.7511 71.4937 50.9898L76.5054 55.9232C76.7479 56.1619 76.7479 56.5478 76.5054 56.7839L75.9328 57.3476C75.6878 57.5888 75.288 57.5837 75.0481 57.3375L72.0896 54.2804V61.5777C72.0896 61.9154 71.8136 62.1871 71.4705 62.1871H70.6451C70.3021 62.1871 70.0261 61.9154 70.0261 61.5777V54.2804L67.065 57.34C66.8251 57.5888 66.4253 57.5939 66.1802 57.3501Z" fill="#E8F7EE"/>
</g>
<defs>
<clipPath id="clip0">
<rect width="11.5556" height="13" fill="white" transform="translate(65.2812 49.9998)"/>
</clipPath>
</defs>
</svg>
