<svg width="52" height="52" viewBox="0 0 52 52" fill="none" xmlns="http://www.w3.org/2000/svg">
<path d="M4.0625 48.75H47.9375C48.835 48.75 49.5625 48.0225 49.5625 47.125V4.875C49.5625 3.97754 48.835 3.25 47.9375 3.25H4.0625C3.16504 3.25 2.4375 3.97754 2.4375 4.875V47.125C2.4375 48.0225 3.16504 48.75 4.0625 48.75Z" fill="#F2F2F2"/>
<path d="M9.34375 20.9062C9.34375 20.354 9.79147 19.9062 10.3438 19.9062H41.6562C42.2085 19.9062 42.6562 20.354 42.6562 20.9062V34.3438C42.6562 34.896 42.2085 35.3438 41.6562 35.3438H10.3437C9.79146 35.3438 9.34375 34.896 9.34375 34.3438V20.9062Z" fill="#E0E0E0"/>
<path d="M49.5625 4.875V9.75H2.4375V4.875C2.4375 4.44402 2.6087 4.0307 2.91345 3.72595C3.2182 3.4212 3.63152 3.25 4.0625 3.25H47.9375C48.3685 3.25 48.7818 3.4212 49.0865 3.72595C49.3913 4.0307 49.5625 4.44402 49.5625 4.875Z" fill="#E0E0E0"/>
<path d="M12.1875 7.3125C12.6362 7.3125 13 6.94873 13 6.5C13 6.05127 12.6362 5.6875 12.1875 5.6875C11.7388 5.6875 11.375 6.05127 11.375 6.5C11.375 6.94873 11.7388 7.3125 12.1875 7.3125Z" fill="#E9EEF2"/>
<path d="M8.9375 7.3125C9.38623 7.3125 9.75 6.94873 9.75 6.5C9.75 6.05127 9.38623 5.6875 8.9375 5.6875C8.48877 5.6875 8.125 6.05127 8.125 6.5C8.125 6.94873 8.48877 7.3125 8.9375 7.3125Z" fill="#E9EEF2"/>
<path d="M5.6875 7.3125C6.13623 7.3125 6.5 6.94873 6.5 6.5C6.5 6.05127 6.13623 5.6875 5.6875 5.6875C5.23877 5.6875 4.875 6.05127 4.875 6.5C4.875 6.94873 5.23877 7.3125 5.6875 7.3125Z" fill="#E9EEF2"/>
<path d="M29.25 41.4375C29.6987 41.4375 30.0625 41.0737 30.0625 40.625C30.0625 40.1763 29.6987 39.8125 29.25 39.8125C28.8013 39.8125 28.4375 40.1763 28.4375 40.625C28.4375 41.0737 28.8013 41.4375 29.25 41.4375Z" fill="#E0E0E0"/>
<path d="M26 41.4375C26.4487 41.4375 26.8125 41.0737 26.8125 40.625C26.8125 40.1763 26.4487 39.8125 26 39.8125C25.5513 39.8125 25.1875 40.1763 25.1875 40.625C25.1875 41.0737 25.5513 41.4375 26 41.4375Z" fill="#E0E0E0"/>
<path d="M22.75 41.4375C23.1987 41.4375 23.5625 41.0737 23.5625 40.625C23.5625 40.1763 23.1987 39.8125 22.75 39.8125C22.3013 39.8125 21.9375 40.1763 21.9375 40.625C21.9375 41.0737 22.3013 41.4375 22.75 41.4375Z" fill="#E0E0E0"/>
<path d="M13.8125 18.875C13.8125 18.3227 14.2602 17.875 14.8125 17.875H37.1875C37.7398 17.875 38.1875 18.3227 38.1875 18.875V36.375C38.1875 36.9273 37.7398 37.375 37.1875 37.375H14.8125C14.2602 37.375 13.8125 36.9273 13.8125 36.375V18.875Z" fill="#BDBDBD"/>
<mask id="mask0" mask-type="alpha" maskUnits="userSpaceOnUse" x="13" y="17" width="26" height="21">
<path d="M13.8125 18.875C13.8125 18.3227 14.2602 17.875 14.8125 17.875H37.1875C37.7398 17.875 38.1875 18.3227 38.1875 18.875V36.375C38.1875 36.9273 37.7398 37.375 37.1875 37.375H14.8125C14.2602 37.375 13.8125 36.9273 13.8125 36.375V18.875Z" fill="#E0E0E0"/>
</mask>
<g mask="url(#mask0)">
<path d="M23.5625 37.375H13.8125L18.6875 27.625L23.5625 37.375Z" fill="#C7AD25"/>
<path d="M38.1875 37.375H28.4375L33.3125 30.875L38.1875 37.375Z" fill="#C7AD25"/>
<path d="M30.875 37.375H21.125L26 29.25L30.875 37.375Z" fill="#FFDE2E"/>
<path d="M30.2656 27.625C31.2753 27.625 32.0938 26.8065 32.0938 25.7969C32.0938 24.7872 31.2753 23.9688 30.2656 23.9688C29.256 23.9688 28.4375 24.7872 28.4375 25.7969C28.4375 26.8065 29.256 27.625 30.2656 27.625Z" fill="#FFDE2E"/>
</g>
</svg>
