<svg width="83" height="68" viewBox="0 0 83 68" fill="none" xmlns="http://www.w3.org/2000/svg">
<path d="M0 1C0 0.447715 0.447715 0 1 0H70.25C70.8023 0 71.25 0.447715 71.25 1V56C71.25 56.5523 70.8023 57 70.25 57H1C0.447717 57 0 56.5523 0 56V1Z" fill="#E0E0E0"/>
<mask id="mask0" mask-type="alpha" maskUnits="userSpaceOnUse" x="0" y="0" width="72" height="57">
<path d="M0 1C0 0.447715 0.447715 0 1 0H70.25C70.8023 0 71.25 0.447715 71.25 1V56C71.25 56.5523 70.8023 57 70.25 57H1C0.447717 57 0 56.5523 0 56V1Z" fill="#E0E0E0"/>
</mask>
<g mask="url(#mask0)">
<path d="M28.5 57H0L14.25 28.5L28.5 57Z" fill="#C7AD25"/>
<path d="M71.25 57H42.75L57 38L71.25 57Z" fill="#C7AD25"/>
<path d="M49.875 57H21.375L35.625 33.25L49.875 57Z" fill="#FFDE2E"/>
<path d="M48.0938 28.5C51.045 28.5 53.4375 26.1075 53.4375 23.1562C53.4375 20.205 51.045 17.8125 48.0938 17.8125C45.1425 17.8125 42.75 20.205 42.75 23.1562C42.75 26.1075 45.1425 28.5 48.0938 28.5Z" fill="#FFDE2E"/>
</g>
<circle cx="70.7812" cy="56.5" r="11.5" fill="#BDBDBD"/>
<g clip-path="url(#clip0)">
<path d="M66.1812 57.3499L65.6086 56.7862C65.3661 56.5476 65.3661 56.1616 65.6086 55.9255L70.6203 50.9896C70.8628 50.7509 71.2548 50.7509 71.4947 50.9896L76.5064 55.9229C76.7489 56.1616 76.7489 56.5476 76.5064 56.7837L75.9338 57.3474C75.6888 57.5886 75.289 57.5835 75.0491 57.3372L72.0905 54.2802V61.5774C72.0905 61.9151 71.8146 62.1868 71.4715 62.1868H70.6461C70.303 62.1868 70.0271 61.9151 70.0271 61.5774V54.2802L67.0659 57.3397C66.8261 57.5886 66.4263 57.5937 66.1812 57.3499Z" fill="#E8F7EE"/>
</g>
<defs>
<clipPath id="clip0">
<rect width="11.5556" height="13" fill="white" transform="translate(65.2812 50)"/>
</clipPath>
</defs>
</svg>
