<svg width="20" height="20" viewBox="0 0 20 20" fill="none" xmlns="http://www.w3.org/2000/svg">
<circle cx="10" cy="10" r="10" fill="#2699FF"/>
<path d="M13.8213 8.59387H13.584V7.44902C13.5838 7.44175 13.5831 7.4345 13.5819 7.42732C13.5822 7.38133 13.5658 7.33679 13.5357 7.30202L11.631 5.12607L11.6296 5.12467C11.6182 5.11235 11.6052 5.10153 11.5911 5.09247L11.5785 5.08477C11.5664 5.07804 11.5536 5.07264 11.5403 5.06867L11.5299 5.06517C11.5153 5.06154 11.5004 5.05966 11.4854 5.05957H6.80345C6.5896 5.05957 6.416 5.23352 6.416 5.44702V8.59352H6.1787C5.8728 8.59352 5.625 8.84132 5.625 9.14722V12.027C5.625 12.3326 5.87315 12.5807 6.1787 12.5807H6.416V14.5519C6.416 14.7654 6.5896 14.9394 6.80345 14.9394H13.1965C13.41 14.9394 13.584 14.7654 13.584 14.5519V12.5807H13.8213C14.1268 12.5807 14.375 12.3329 14.375 12.027V9.14722C14.375 8.84167 14.1272 8.59387 13.8213 8.59387ZM6.80345 5.44702H11.2915V7.42942C11.2915 7.53652 11.3783 7.62297 11.4854 7.62297H13.1969V8.59352H6.80345V5.44702V5.44702ZM9.70215 10.7558C9.23175 10.5878 8.9213 10.3274 8.9213 9.91617C8.9213 9.43352 9.3287 9.06847 9.99195 9.06847C10.3153 9.06847 10.546 9.13147 10.714 9.21092L10.5712 9.72297C10.3882 9.63383 10.1871 9.58797 9.98355 9.58892C9.70635 9.58892 9.57195 9.71877 9.57195 9.86157C9.57195 10.0422 9.727 10.1216 10.0966 10.2602C10.5964 10.445 10.8271 10.7051 10.8271 11.1041C10.8271 11.5787 10.4662 11.9815 9.68955 11.9815C9.36615 11.9815 9.0473 11.8933 8.8877 11.8051L9.0179 11.2805C9.23768 11.3927 9.48026 11.453 9.727 11.4569C10.021 11.4569 10.1764 11.3347 10.1764 11.1503C10.1764 10.9739 10.0423 10.8734 9.70215 10.7558V10.7558ZM6.36805 10.5626C6.36805 9.60117 7.0565 9.06812 7.9126 9.06812C8.2444 9.06812 8.49605 9.13497 8.60945 9.18992L8.47505 9.69777C8.30504 9.62638 8.12218 9.59064 7.9378 9.59277C7.43415 9.59277 7.0397 9.89902 7.0397 10.5287C7.0397 11.0911 7.37535 11.4481 7.942 11.4481C8.1394 11.4481 8.3494 11.4107 8.47925 11.3557L8.572 11.8594C8.4586 11.9136 8.1898 11.9812 7.84995 11.9812C6.8717 11.9815 6.36805 11.3687 6.36805 10.5626V10.5626ZM13.1965 14.4476H6.80345V12.5811H13.1965V14.4476V14.4476ZM12.6793 11.9395H11.932L11.0255 9.11012H11.7266L12.0706 10.3068C12.1669 10.6466 12.255 10.9658 12.3222 11.3183H12.3348C12.4064 10.9819 12.4918 10.6487 12.5907 10.3194L12.9519 9.11047H13.6316L12.6793 11.9395V11.9395Z" fill="white"/>
</svg>
