<svg width="20" height="20" viewBox="0 0 20 20" fill="none" xmlns="http://www.w3.org/2000/svg">
<circle cx="10" cy="10" r="10" fill="#AC7777"/>
<g clip-path="url(#clip0)">
<path d="M12.9434 5.98747H11.7417V5.2066C11.7417 5.04943 11.615 4.92773 11.4578 4.92773C11.4425 4.92773 11.4324 4.93283 11.4274 4.93791C11.4223 4.93283 11.4121 4.92773 11.4071 4.92773H8.58284H8.56261H8.54227C8.3851 4.92773 8.26341 5.04943 8.26341 5.2066V5.98749H7.05666C6.71181 5.98749 6.44312 6.25618 6.44312 6.60103V7.04724V7.60497H6.97553V13.3193C6.97553 13.6641 7.23914 13.9277 7.58399 13.9277H12.4161C12.7609 13.9277 13.0296 13.6641 13.0296 13.3193V7.60497H13.557V7.04724V6.60103C13.557 6.25618 13.2882 5.98747 12.9434 5.98747ZM8.82114 5.48546H11.1789V5.98747H8.82114V5.48546ZM12.4668 13.3193C12.4668 13.3549 12.4516 13.37 12.4161 13.37H7.58399C7.54852 13.37 7.53326 13.3549 7.53326 13.3193V7.60495H12.4668V13.3193ZM12.9941 7.04723H7.00592V6.60102C7.00592 6.56553 7.02117 6.5452 7.05665 6.5452H12.9434C12.9789 6.5452 12.9941 6.56553 12.9941 6.60102V7.04723Z" fill="white"/>
<path d="M11.5845 8.25879H11.0217V12.8728H11.5845V8.25879Z" fill="white"/>
<path d="M10.2865 8.25879H9.72369V12.8728H10.2865V8.25879Z" fill="white"/>
<path d="M8.98847 8.25879H8.42566V12.8728H8.98847V8.25879Z" fill="white"/>
</g>
<defs>
<clipPath id="clip0">
<rect width="9" height="9" fill="white" transform="translate(5.5 4.92773)"/>
</clipPath>
</defs>
</svg>
