<svg width="73" height="73" viewBox="0 0 73 73" fill="none" xmlns="http://www.w3.org/2000/svg">
<circle cx="36.5" cy="36.5" r="36.5" fill="#BDBDBD"/>
<g clip-path="url(#clip0)">
<path d="M36.5 5.85522C19.0252 5.85522 4.8667 19.5712 4.8667 36.5C4.8667 53.4288 19.0252 67.1448 36.5 67.1448C53.9749 67.1448 68.1334 53.4288 68.1334 36.5C68.1334 19.5712 53.9749 5.85522 36.5 5.85522ZM36.5 17.7177C42.6991 17.7177 47.7248 22.5863 47.7248 28.5917C47.7248 34.5971 42.6991 39.4656 36.5 39.4656C30.3009 39.4656 25.2753 34.5971 25.2753 28.5917C25.2753 22.5863 30.3009 17.7177 36.5 17.7177ZM36.5 60.225C29.0126 60.225 22.3033 56.9381 17.8134 51.7977C20.2114 47.4234 24.9054 44.4083 30.3775 44.4083C30.6836 44.4083 30.9897 44.4578 31.2831 44.5443C32.9413 45.0633 34.676 45.3969 36.5 45.3969C38.3241 45.3969 40.0715 45.0633 41.717 44.5443C42.0104 44.4578 42.3165 44.4083 42.6226 44.4083C48.0947 44.4083 52.7886 47.4234 55.1867 51.7977C50.6968 56.9381 43.9874 60.225 36.5 60.225Z" fill="#E8F7EE"/>
</g>
<defs>
<clipPath id="clip0">
<rect width="63.2667" height="63.2667" fill="white" transform="translate(4.8667 4.86667)"/>
</clipPath>
</defs>
</svg>
