<svg width="25" height="20" viewBox="0 0 25 20" fill="none" xmlns="http://www.w3.org/2000/svg">
<g clip-path="url(#clip0)">
<path d="M22 6.87504C22 10.672 18.922 13.75 15.125 13.75C14.6867 13.75 14.2582 13.7085 13.8427 13.6301L12.9047 14.6854C12.8168 14.7843 12.7089 14.8635 12.5881 14.9177C12.4673 14.972 12.3364 15 12.204 15H10.75V16.5625C10.75 17.0803 10.3303 17.5 9.8125 17.5H8.25V19.0625C8.25 19.5803 7.83027 20 7.3125 20H2.9375C2.41973 20 2 19.5803 2 19.0625V16.0133C2 15.7647 2.09879 15.5262 2.27457 15.3504L8.59496 9.03C8.37141 8.35211 8.25 7.62777 8.25 6.875C8.25 3.07805 11.328 3.90629e-05 15.125 3.73147e-10C18.9331 -3.90621e-05 22 3.06684 22 6.87504ZM15.125 5C15.125 6.03555 15.9645 6.875 17 6.875C18.0355 6.875 18.875 6.03555 18.875 5C18.875 3.96445 18.0355 3.125 17 3.125C15.9645 3.125 15.125 3.96445 15.125 5Z" fill="#BDBDBD"/>
</g>
<defs>
<clipPath id="clip0">
<rect width="24.44" height="20" fill="white"/>
</clipPath>
</defs>
</svg>
