<svg width="16" height="14" viewBox="0 0 16 14" fill="none" xmlns="http://www.w3.org/2000/svg">
<g clip-path="url(#clip0)">
<path d="M0 3.21727V12.687C0 12.9965 0.312539 13.2081 0.599922 13.0933L4.375 11.375V0.875L0.550156 2.40488C0.387783 2.46983 0.24859 2.58193 0.15053 2.72673C0.0524695 2.87153 3.88885e-05 3.04239 0 3.21727H0ZM5.25 11.375L10.5 13.125V2.625L5.25 0.875V11.375ZM15.1501 0.906719L11.375 2.625V13.125L15.1998 11.5951C15.3622 11.5302 15.5015 11.4181 15.5995 11.2733C15.6976 11.1285 15.75 10.9576 15.75 10.7827V1.31305C15.75 1.00352 15.4375 0.791875 15.1501 0.906719Z" fill="#BDBDBD"/>
</g>
<defs>
<clipPath id="clip0">
<rect width="15.75" height="14" fill="white"/>
</clipPath>
</defs>
</svg>
