<svg width="18" height="20" viewBox="0 0 18 20" fill="none" xmlns="http://www.w3.org/2000/svg">
<g clip-path="url(#clip0)">
<path d="M12.3377 17.5V19.0625C12.3377 19.5803 11.9234 20 11.4123 20H0.925325C0.414276 20 0 19.5803 0 19.0625V4.6875C0 4.16973 0.414276 3.75 0.925325 3.75H3.7013V15.3125C3.7013 16.5187 4.66984 17.5 5.86039 17.5H12.3377ZM12.3377 4.0625V0H5.86039C5.34934 0 4.93507 0.419727 4.93507 0.9375V15.3125C4.93507 15.8303 5.34934 16.25 5.86039 16.25H16.3474C16.8585 16.25 17.2727 15.8303 17.2727 15.3125V5H13.263C12.7541 5 12.3377 4.57812 12.3377 4.0625ZM17.0017 2.85043L14.4593 0.27457C14.2858 0.0987666 14.0504 1.29998e-06 13.805 0L13.5714 0V3.75H17.2727V3.51332C17.2727 3.26469 17.1752 3.02624 17.0017 2.85043Z" fill="#828282"/>
</g>
<defs>
<clipPath id="clip0">
<rect width="17.2727" height="20" fill="white"/>
</clipPath>
</defs>
</svg>
