<svg width="18" height="14" viewBox="0 0 18 14" fill="none" xmlns="http://www.w3.org/2000/svg">
<g clip-path="url(#clip0)">
<path d="M17.017 4.18913L9.38971 1.84577C8.97408 1.71808 8.52564 1.71808 8.11029 1.84577L0.482754 4.18913C-0.160918 4.38683 -0.160918 5.23804 0.482754 5.43573L1.81248 5.84425C1.52072 6.20491 1.34135 6.64487 1.32357 7.12667C1.06025 7.27761 0.874863 7.54995 0.874863 7.87507C0.874863 8.16983 1.03018 8.41784 1.25385 8.57644L0.555762 11.7177C0.495059 11.9908 0.702871 12.2501 0.982598 12.2501H2.51686C2.79686 12.2501 3.00467 11.9908 2.94396 11.7177L2.24588 8.57644C2.46955 8.41784 2.62486 8.16983 2.62486 7.87507C2.62486 7.5587 2.44795 7.29401 2.19666 7.14034C2.21744 6.72964 2.42744 6.36651 2.7624 6.13628L8.11002 7.77937C8.35775 7.85538 8.83299 7.95026 9.38943 7.77937L17.017 5.43601C17.6609 5.23804 17.6609 4.3871 17.017 4.18913ZM9.64647 8.61581C8.86635 8.85534 8.20162 8.723 7.85299 8.61581L3.8876 7.39765L3.49986 10.5001C3.49986 11.4667 5.85033 12.2501 8.74986 12.2501C11.6494 12.2501 13.9999 11.4667 13.9999 10.5001L13.6121 7.39737L9.64647 8.61581Z" fill="#BDBDBD"/>
</g>
<defs>
<clipPath id="clip0">
<rect width="17.5" height="14" fill="white"/>
</clipPath>
</defs>
</svg>
