<svg width="23" height="20" viewBox="0 0 23 20" fill="none" xmlns="http://www.w3.org/2000/svg">
<path d="M22.2465 17.188C22.9675 18.4378 22.0625 20 20.6224 20H1.87685C0.433994 20 -0.466865 18.4354 0.252744 17.188L9.62564 0.936914C10.347 -0.313437 12.1538 -0.311172 12.8738 0.936914L22.2465 17.188ZM11.2497 13.8281C10.2574 13.8281 9.45286 14.6326 9.45286 15.625C9.45286 16.6174 10.2574 17.4219 11.2497 17.4219C12.2421 17.4219 13.0466 16.6174 13.0466 15.625C13.0466 14.6326 12.2421 13.8281 11.2497 13.8281ZM9.54376 7.3693L9.83353 12.6818C9.84708 12.9304 10.0526 13.125 10.3016 13.125H12.1979C12.4468 13.125 12.6524 12.9304 12.6659 12.6818L12.9557 7.3693C12.9704 7.10078 12.7566 6.875 12.4877 6.875H10.0118C9.74286 6.875 9.52911 7.10078 9.54376 7.3693Z" fill="#E8F7EE"/>
</svg>
