<svg width="234" height="163" viewBox="0 0 234 163" fill="none" xmlns="http://www.w3.org/2000/svg">
<path d="M145.475 39.2336H81.2534C78.236 39.2299 75.3433 38.0322 73.2098 35.9034C71.0764 33.7745 69.8764 30.8883 69.873 27.8778V13.9342C69.8764 10.9237 71.0764 8.03747 73.2098 5.9086C75.3433 3.77974 78.236 2.58209 81.2534 2.57837H145.475C148.492 2.58209 151.385 3.77974 153.518 5.9086C155.652 8.03747 156.852 10.9237 156.855 13.9342V27.8778C156.852 30.8883 155.652 33.7745 153.518 35.9034C151.385 38.0322 148.492 39.2299 145.475 39.2336ZM81.2534 13.1517C81.0458 13.1517 80.8467 13.234 80.6999 13.3804C80.5531 13.5269 80.4707 13.7255 80.4707 13.9326V27.8763C80.4707 28.0834 80.5531 28.282 80.6999 28.4284C80.8467 28.5749 81.0458 28.6572 81.2534 28.6572H145.475C145.682 28.6572 145.881 28.5749 146.028 28.4284C146.175 28.282 146.257 28.0834 146.257 27.8763V13.9342C146.257 13.727 146.175 13.5284 146.028 13.382C145.881 13.2355 145.682 13.1533 145.475 13.1533L81.2534 13.1517Z" fill="#E0E0E0"/>
<path d="M192.516 25.5757H34.2139C25.2236 25.5757 17.9355 32.8471 17.9355 41.8167V146.347C17.9355 155.317 25.2236 162.588 34.2139 162.588H192.516C201.506 162.588 208.794 155.317 208.794 146.347V41.8167C208.794 32.8471 201.506 25.5757 192.516 25.5757Z" fill="#E0E0E0"/>
<path d="M197.958 25.5757H28.7684C25.0489 25.5757 21.4818 27.0498 18.8517 29.6739C16.2217 32.2979 14.7441 35.8568 14.7441 39.5678V84.6238C14.7439 87.9399 15.9242 91.1483 18.0744 93.6769C20.2247 96.2055 23.2052 97.89 26.4845 98.4301L114.247 112.878C114.338 112.894 114.43 112.894 114.52 112.878L200.285 98.4629C203.556 97.9136 206.526 96.2256 208.667 93.6985C210.809 91.1714 211.983 87.9689 211.982 84.6598V39.5678C211.982 35.8568 210.504 32.2979 207.874 29.6739C205.244 27.0498 201.677 25.5757 197.958 25.5757Z" fill="#F2F2F2"/>
<path d="M115.762 107.113C115.566 107.113 115.378 107.039 115.234 106.906C115.09 106.774 115.001 106.592 114.985 106.397C114.968 106.202 115.026 106.008 115.146 105.854C115.267 105.699 115.441 105.595 115.634 105.563L120.272 104.782C120.374 104.765 120.478 104.768 120.578 104.791C120.678 104.814 120.773 104.856 120.857 104.916C120.94 104.975 121.012 105.051 121.066 105.138C121.121 105.225 121.158 105.322 121.175 105.423C121.192 105.524 121.189 105.628 121.166 105.728C121.143 105.828 121.1 105.922 121.04 106.006C120.981 106.089 120.905 106.16 120.818 106.215C120.731 106.269 120.634 106.306 120.532 106.323L115.894 107.104C115.85 107.111 115.806 107.114 115.762 107.113ZM111.124 106.812C111.081 106.812 111.038 106.809 110.996 106.801L106.355 106.037C106.253 106.021 106.156 105.984 106.069 105.93C105.981 105.876 105.905 105.805 105.846 105.722C105.786 105.638 105.743 105.544 105.719 105.444C105.696 105.344 105.693 105.241 105.71 105.139C105.726 105.038 105.763 104.941 105.817 104.854C105.871 104.767 105.942 104.691 106.026 104.632C106.11 104.572 106.204 104.529 106.304 104.506C106.404 104.483 106.508 104.479 106.61 104.496L111.251 105.26C111.446 105.29 111.623 105.393 111.745 105.548C111.867 105.703 111.926 105.898 111.91 106.095C111.894 106.291 111.804 106.474 111.659 106.607C111.513 106.74 111.322 106.814 111.124 106.812ZM125.039 105.553C124.843 105.553 124.654 105.479 124.51 105.346C124.366 105.213 124.277 105.032 124.261 104.837C124.245 104.642 124.303 104.448 124.423 104.293C124.543 104.139 124.717 104.035 124.911 104.002L129.549 103.221C129.65 103.204 129.754 103.208 129.854 103.231C129.955 103.254 130.049 103.296 130.133 103.356C130.217 103.415 130.288 103.491 130.343 103.578C130.397 103.665 130.434 103.761 130.451 103.863C130.468 103.964 130.465 104.067 130.442 104.167C130.419 104.267 130.376 104.362 130.317 104.446C130.257 104.529 130.182 104.6 130.094 104.655C130.007 104.709 129.91 104.746 129.809 104.763L125.17 105.544C125.127 105.55 125.083 105.552 125.039 105.552V105.553ZM101.842 105.28C101.799 105.28 101.756 105.276 101.713 105.269L97.0718 104.505C96.9704 104.489 96.8732 104.452 96.7858 104.398C96.6985 104.344 96.6227 104.273 96.5628 104.19C96.5029 104.106 96.4601 104.012 96.4368 103.912C96.4135 103.812 96.4101 103.708 96.4269 103.607C96.4424 103.506 96.4782 103.408 96.5322 103.32C96.5861 103.233 96.6572 103.157 96.7411 103.097C96.825 103.037 96.9201 102.994 97.0207 102.972C97.1213 102.949 97.2255 102.947 97.327 102.965L101.968 103.729C102.162 103.762 102.335 103.865 102.456 104.02C102.576 104.174 102.634 104.368 102.618 104.563C102.602 104.757 102.513 104.939 102.37 105.072C102.226 105.205 102.037 105.279 101.842 105.28ZM134.317 103.99C134.121 103.989 133.932 103.915 133.788 103.783C133.644 103.65 133.555 103.468 133.539 103.273C133.523 103.078 133.581 102.884 133.701 102.73C133.821 102.575 133.995 102.472 134.189 102.439L138.827 101.658C138.929 101.639 139.034 101.641 139.135 101.663C139.237 101.685 139.333 101.727 139.418 101.786C139.503 101.846 139.575 101.921 139.631 102.009C139.686 102.097 139.723 102.194 139.741 102.296C139.758 102.399 139.755 102.503 139.731 102.604C139.707 102.705 139.664 102.8 139.603 102.884C139.542 102.968 139.465 103.039 139.376 103.093C139.288 103.147 139.189 103.182 139.087 103.198L134.448 103.979C134.405 103.986 134.361 103.989 134.317 103.99ZM92.5588 103.753C92.5158 103.753 92.4728 103.749 92.4305 103.742L87.7891 102.978C87.6877 102.961 87.5905 102.925 87.5031 102.871C87.4158 102.816 87.34 102.746 87.2801 102.662C87.2202 102.579 87.1774 102.484 87.1541 102.384C87.1308 102.285 87.1274 102.181 87.1442 102.08C87.1609 101.979 87.1974 101.882 87.2517 101.795C87.306 101.707 87.377 101.632 87.4606 101.572C87.5442 101.512 87.6388 101.47 87.7389 101.446C87.8391 101.423 87.9428 101.42 88.0443 101.436L92.6856 102.2C92.8809 102.23 93.0574 102.333 93.1797 102.488C93.302 102.643 93.361 102.839 93.345 103.035C93.3289 103.232 93.239 103.415 93.0931 103.548C92.9473 103.681 92.7564 103.754 92.5588 103.753ZM143.59 102.431C143.394 102.431 143.205 102.357 143.061 102.224C142.917 102.091 142.828 101.91 142.812 101.715C142.796 101.52 142.854 101.326 142.974 101.171C143.095 101.017 143.269 100.913 143.462 100.88L148.1 100.099C148.202 100.082 148.305 100.086 148.406 100.109C148.506 100.132 148.601 100.174 148.684 100.234C148.768 100.293 148.839 100.369 148.894 100.456C148.949 100.543 148.985 100.639 149.003 100.741C149.02 100.842 149.016 100.945 148.993 101.045C148.97 101.145 148.928 101.24 148.868 101.324C148.808 101.407 148.733 101.478 148.646 101.533C148.558 101.587 148.461 101.624 148.36 101.641L143.722 102.422C143.679 102.427 143.636 102.429 143.593 102.428L143.59 102.431ZM83.2761 102.224C83.2331 102.224 83.1902 102.22 83.1478 102.213L78.5064 101.449C78.3018 101.415 78.1191 101.301 77.9984 101.133C77.8778 100.964 77.8291 100.755 77.863 100.551C77.8784 100.449 77.914 100.352 77.9678 100.264C78.0216 100.176 78.0925 100.1 78.1763 100.04C78.2601 99.9805 78.355 99.938 78.4556 99.9154C78.5561 99.8929 78.6602 99.8907 78.7616 99.9089L83.4029 100.673C83.5961 100.705 83.77 100.809 83.8903 100.963C84.0106 101.118 84.0685 101.311 84.0526 101.506C84.0366 101.701 83.948 101.883 83.8043 102.016C83.6605 102.148 83.4721 102.223 83.2761 102.224ZM152.871 100.866C152.675 100.866 152.487 100.792 152.342 100.659C152.198 100.526 152.11 100.345 152.093 100.15C152.077 99.9548 152.135 99.7609 152.255 99.6064C152.376 99.4519 152.55 99.3481 152.743 99.3155L157.381 98.5346C157.584 98.5037 157.791 98.5538 157.958 98.674C158.124 98.7942 158.237 98.9748 158.271 99.1769C158.305 99.3791 158.258 99.5865 158.14 99.7544C158.022 99.9223 157.843 100.037 157.641 100.074L153.003 100.855C152.959 100.862 152.915 100.866 152.871 100.866ZM73.995 100.69C73.952 100.69 73.909 100.686 73.8666 100.679L69.2237 99.9136C69.0249 99.8736 68.8494 99.7582 68.7342 99.5916C68.619 99.4251 68.5732 99.2204 68.6062 99.0208C68.6393 98.8211 68.7488 98.6421 68.9116 98.5214C69.0743 98.4007 69.2777 98.3477 69.4789 98.3737L74.1218 99.1374C74.3171 99.1678 74.4935 99.2708 74.6159 99.4257C74.7382 99.5806 74.7972 99.7759 74.7812 99.9724C74.7651 100.169 74.6751 100.352 74.5293 100.485C74.3835 100.618 74.1926 100.691 73.995 100.69ZM162.149 99.3077C161.953 99.3075 161.764 99.2339 161.62 99.1013C161.475 98.9687 161.386 98.7869 161.37 98.5918C161.354 98.3967 161.411 98.2027 161.532 98.048C161.652 97.8934 161.826 97.7894 162.019 97.7568L166.658 96.9759C166.76 96.9571 166.865 96.9587 166.966 96.9808C167.067 97.0028 167.163 97.0447 167.249 97.1041C167.334 97.1635 167.406 97.2392 167.461 97.3268C167.517 97.4143 167.554 97.512 167.572 97.6142C167.589 97.7163 167.585 97.8209 167.562 97.9217C167.538 98.0226 167.495 98.1177 167.434 98.2017C167.373 98.2856 167.296 98.3566 167.207 98.4105C167.119 98.4644 167.02 98.5002 166.917 98.5158L162.279 99.2967C162.236 99.3055 162.193 99.3112 162.149 99.3139V99.3077ZM64.7107 99.1671C64.6677 99.1672 64.6248 99.1635 64.5824 99.1562L59.9426 98.3924C59.8411 98.3758 59.7439 98.3393 59.6566 98.2851C59.5693 98.231 59.4935 98.1602 59.4336 98.0768C59.3737 97.9934 59.3309 97.899 59.3076 97.7991C59.2842 97.6992 59.2809 97.5956 59.2977 97.4944C59.3125 97.3924 59.3479 97.2944 59.4017 97.2064C59.4555 97.1184 59.5266 97.0421 59.6106 96.9822C59.6947 96.9222 59.79 96.8798 59.8909 96.8576C59.9918 96.8353 60.0962 96.8336 60.1977 96.8525L64.836 97.6162C65.0292 97.6488 65.2031 97.7525 65.3234 97.9068C65.4436 98.0611 65.5015 98.2549 65.4856 98.4497C65.4697 98.6445 65.3811 98.8263 65.2373 98.9591C65.0936 99.092 64.9051 99.1662 64.7092 99.1671H64.7107ZM171.426 97.7537C171.23 97.7531 171.041 97.6792 170.897 97.5465C170.753 97.4138 170.664 97.232 170.648 97.037C170.632 96.8421 170.69 96.6482 170.81 96.4937C170.93 96.3392 171.104 96.2354 171.297 96.2028L175.936 95.4219C176.038 95.4031 176.143 95.4048 176.244 95.4268C176.345 95.4488 176.441 95.4907 176.527 95.5501C176.612 95.6095 176.684 95.6852 176.739 95.7728C176.795 95.8603 176.832 95.9581 176.85 96.0602C176.867 96.1623 176.863 96.2669 176.84 96.3678C176.816 96.4686 176.773 96.5638 176.712 96.6477C176.651 96.7316 176.574 96.8026 176.485 96.8565C176.397 96.9104 176.298 96.9463 176.195 96.9618L171.557 97.7427C171.514 97.7503 171.47 97.7539 171.426 97.7537ZM55.4312 97.6397C55.3881 97.6398 55.3452 97.6362 55.3028 97.6287L50.6615 96.8634C50.5572 96.85 50.4568 96.8157 50.3661 96.7627C50.2754 96.7097 50.1964 96.639 50.1337 96.5548C50.071 96.4707 50.0259 96.3748 50.0012 96.2729C49.9765 96.1709 49.9725 96.0651 49.9897 95.9616C50.0068 95.8582 50.0447 95.7592 50.101 95.6707C50.1573 95.5821 50.2309 95.5058 50.3174 95.4463C50.4039 95.3867 50.5015 95.3452 50.6045 95.3241C50.7074 95.303 50.8136 95.3028 50.9166 95.3235L55.558 96.0872C55.7532 96.1177 55.9297 96.2206 56.052 96.3755C56.1743 96.5304 56.2334 96.7257 56.2173 96.9222C56.2013 97.1187 56.1113 97.3019 55.9655 97.435C55.8197 97.5681 55.6288 97.6412 55.4312 97.6397ZM180.705 96.195C180.509 96.1945 180.321 96.1205 180.176 95.9878C180.032 95.8551 179.944 95.6733 179.927 95.4784C179.911 95.2834 179.969 95.0895 180.089 94.9351C180.21 94.7806 180.384 94.6768 180.577 94.6441L185.214 93.8633C185.316 93.8444 185.421 93.8461 185.522 93.8681C185.623 93.8901 185.719 93.932 185.805 93.9914C185.89 94.0508 185.962 94.1265 186.017 94.2141C186.073 94.3017 186.11 94.3994 186.128 94.5015C186.145 94.6037 186.141 94.7082 186.118 94.8091C186.094 94.9099 186.051 95.0051 185.99 95.089C185.929 95.1729 185.852 95.2439 185.763 95.2978C185.675 95.3518 185.576 95.3876 185.473 95.4032L180.837 96.1841C180.793 96.1916 180.748 96.1953 180.704 96.195H180.705ZM46.1485 96.1107C46.1054 96.1108 46.0625 96.1072 46.0201 96.0997L41.3788 95.336C41.1741 95.302 40.9914 95.1882 40.8708 95.0199C40.7501 94.8515 40.7014 94.6422 40.7354 94.438C40.7503 94.3361 40.7857 94.2383 40.8393 94.1504C40.893 94.0625 40.9639 93.9863 41.0478 93.9264C41.1317 93.8665 41.2269 93.824 41.3276 93.8016C41.4283 93.7793 41.5325 93.7774 41.6339 93.7961L46.2753 94.5598C46.4685 94.5924 46.6424 94.6961 46.7627 94.8504C46.8829 95.0047 46.9408 95.1984 46.9249 95.3933C46.909 95.5881 46.8204 95.7699 46.6766 95.9027C46.5329 96.0356 46.3444 96.1098 46.1485 96.1107ZM189.982 94.6363C189.786 94.6358 189.597 94.5619 189.453 94.4292C189.309 94.2965 189.22 94.1147 189.204 93.9197C189.188 93.7248 189.246 93.5309 189.366 93.3764C189.486 93.2219 189.66 93.1181 189.853 93.0855L194.492 92.3046C194.594 92.2858 194.699 92.2874 194.8 92.3094C194.901 92.3314 194.998 92.3734 195.083 92.4328C195.168 92.4922 195.24 92.5679 195.295 92.6554C195.351 92.743 195.388 92.8407 195.406 92.9429C195.423 93.045 195.419 93.1496 195.396 93.2504C195.372 93.3513 195.329 93.4464 195.268 93.5303C195.207 93.6143 195.13 93.6852 195.041 93.7392C194.953 93.7931 194.854 93.8289 194.751 93.8445L190.113 94.6254C190.069 94.6322 190.025 94.6359 189.98 94.6363H189.982ZM36.8658 94.5832C36.8227 94.5834 36.7798 94.5798 36.7374 94.5723L32.0961 93.8086C31.9946 93.7919 31.8974 93.7554 31.8101 93.7013C31.7228 93.6471 31.647 93.5763 31.5871 93.4929C31.5272 93.4095 31.4843 93.3151 31.461 93.2152C31.4377 93.1153 31.4343 93.0118 31.4511 92.9106C31.4666 92.8088 31.5024 92.7112 31.5564 92.6235C31.6104 92.5358 31.6814 92.4598 31.7653 92.4C31.8492 92.3401 31.9443 92.2977 32.0449 92.2751C32.1456 92.2526 32.2497 92.2504 32.3512 92.2687L36.9926 93.0308C37.1878 93.0612 37.3643 93.1642 37.4866 93.3191C37.6089 93.474 37.668 93.6693 37.6519 93.8658C37.6359 94.0623 37.5459 94.2455 37.4001 94.3786C37.2543 94.5117 37.0634 94.5848 36.8658 94.5832ZM199.26 93.0761C199.064 93.076 198.875 93.0023 198.73 92.8697C198.586 92.7372 198.497 92.5553 198.48 92.3603C198.464 92.1652 198.522 91.9711 198.642 91.8165C198.762 91.6618 198.936 91.5579 199.13 91.5252C200.53 91.2929 201.826 90.639 202.843 89.6511C202.991 89.5061 203.191 89.4259 203.399 89.4281C203.607 89.4303 203.805 89.5147 203.95 89.6628C204.096 89.8109 204.176 90.0105 204.174 90.2177C204.172 90.4249 204.087 90.6228 203.939 90.7678C202.696 91.9793 201.112 92.7831 199.399 93.0714C199.352 93.0764 199.305 93.078 199.258 93.0761H199.26ZM27.45 93.0449L27.3733 93.0308C25.658 92.7523 24.0691 91.9572 22.8196 90.7522C22.7457 90.6804 22.6867 90.5948 22.646 90.5002C22.6052 90.4057 22.5835 90.3041 22.5822 90.2012C22.5808 90.0983 22.5997 89.9961 22.6379 89.9005C22.6761 89.805 22.7328 89.7178 22.8047 89.6441C22.8767 89.5703 22.9625 89.5115 23.0573 89.4708C23.152 89.4302 23.2539 89.4085 23.357 89.4072C23.4601 89.4058 23.5625 89.4247 23.6583 89.4628C23.7541 89.5009 23.8415 89.5575 23.9154 89.6292C24.9342 90.6152 26.231 91.2665 27.6316 91.4956L27.5815 92.2765L27.45 93.0449ZM205.581 86.9149C205.531 86.9147 205.482 86.91 205.434 86.9008C205.332 86.882 205.236 86.8435 205.149 86.7874C205.063 86.7312 204.988 86.6586 204.93 86.5738C204.872 86.4889 204.831 86.3933 204.81 86.2927C204.789 86.192 204.788 86.0882 204.807 85.9871C204.892 85.5497 204.934 85.1051 204.934 84.6596V81.4501C204.934 81.243 205.017 81.0444 205.164 80.898C205.31 80.7515 205.509 80.6692 205.717 80.6692C205.925 80.6692 206.124 80.7515 206.27 80.898C206.417 81.0444 206.5 81.243 206.5 81.4501V84.6596C206.499 85.2037 206.446 85.7465 206.343 86.2808C206.309 86.4581 206.215 86.6182 206.076 86.7338C205.937 86.8494 205.762 86.9134 205.581 86.9149ZM21.1509 86.9149C20.9705 86.9149 20.7956 86.8527 20.6558 86.7389C20.516 86.625 20.42 86.4665 20.3839 86.2901C20.2766 85.7411 20.2226 85.1831 20.2227 84.6237V81.4486C20.2227 81.2415 20.3051 81.0429 20.4519 80.8964C20.5987 80.75 20.7978 80.6677 21.0053 80.6677C21.2129 80.6677 21.412 80.75 21.5588 80.8964C21.7056 81.0429 21.788 81.2415 21.788 81.4486V84.6237C21.7878 85.0808 21.8318 85.5369 21.9195 85.9856C21.9595 86.1888 21.9171 86.3995 21.8014 86.5714C21.6857 86.7433 21.5064 86.8623 21.3028 86.9024C21.2526 86.9106 21.2018 86.9143 21.1509 86.9133V86.9149ZM205.72 77.5441C205.513 77.5441 205.313 77.4618 205.167 77.3154C205.02 77.1689 204.937 76.9703 204.937 76.7632V72.0778C204.937 71.8707 205.02 71.6721 205.167 71.5257C205.313 71.3792 205.513 71.2969 205.72 71.2969C205.928 71.2969 206.127 71.3792 206.274 71.5257C206.42 71.6721 206.503 71.8707 206.503 72.0778V76.7632C206.501 76.969 206.417 77.1656 206.271 77.3103C206.124 77.4551 205.926 77.5363 205.72 77.5363V77.5441ZM21.0053 77.5441C20.7978 77.5441 20.5987 77.4618 20.4519 77.3154C20.3051 77.1689 20.2227 76.9703 20.2227 76.7632V72.0622C20.2227 71.8551 20.3051 71.6565 20.4519 71.51C20.5987 71.3636 20.7978 71.2813 21.0053 71.2813C21.2129 71.2813 21.412 71.3636 21.5588 71.51C21.7056 71.6565 21.788 71.8551 21.788 72.0622V76.7554C21.788 76.9625 21.7056 77.1611 21.5588 77.3076C21.412 77.454 21.2129 77.5363 21.0053 77.5363V77.5441ZM205.72 68.1593C205.513 68.1593 205.313 68.077 205.167 67.9306C205.02 67.7841 204.937 67.5855 204.937 67.3784V62.6774C204.937 62.4703 205.02 62.2717 205.167 62.1253C205.313 61.9788 205.513 61.8965 205.72 61.8965C205.928 61.8965 206.127 61.9788 206.274 62.1253C206.42 62.2717 206.503 62.4703 206.503 62.6774V67.3706C206.503 67.5777 206.42 67.7763 206.274 67.9228C206.127 68.0692 205.928 68.1515 205.72 68.1515V68.1593ZM21.0053 68.1593C20.7978 68.1593 20.5987 68.077 20.4519 67.9306C20.3051 67.7841 20.2227 67.5855 20.2227 67.3784V62.693C20.2227 62.4859 20.3051 62.2873 20.4519 62.1409C20.5987 61.9944 20.7978 61.9121 21.0053 61.9121C21.2129 61.9121 21.412 61.9944 21.5588 62.1409C21.7056 62.2873 21.788 62.4859 21.788 62.693V67.3784C21.7856 67.5839 21.702 67.7801 21.5555 67.9245C21.409 68.069 21.2113 68.15 21.0053 68.1499V68.1593ZM205.72 58.773C205.513 58.773 205.313 58.6907 205.167 58.5442C205.02 58.3978 204.937 58.1992 204.937 57.9921V53.3067C204.937 53.0996 205.02 52.901 205.167 52.7545C205.313 52.6081 205.513 52.5258 205.72 52.5258C205.928 52.5258 206.127 52.6081 206.274 52.7545C206.42 52.901 206.503 53.0996 206.503 53.3067V57.9921C206.5 58.1975 206.417 58.3938 206.27 58.5382C206.124 58.6826 205.926 58.7636 205.72 58.7636V58.773ZM21.0053 58.773C20.7978 58.773 20.5987 58.6907 20.4519 58.5442C20.3051 58.3978 20.2227 58.1992 20.2227 57.9921V53.2895C20.2227 53.0824 20.3051 52.8838 20.4519 52.7373C20.5987 52.5909 20.7978 52.5086 21.0053 52.5086C21.2129 52.5086 21.412 52.5909 21.5588 52.7373C21.7056 52.8838 21.788 53.0824 21.788 53.2895V57.9827C21.788 58.1898 21.7056 58.3884 21.5588 58.5349C21.412 58.6813 21.2129 58.7636 21.0053 58.7636V58.773ZM205.72 49.3882C205.513 49.3882 205.313 49.3059 205.167 49.1594C205.02 49.013 204.937 48.8144 204.937 48.6073V43.9047C204.937 43.6976 205.02 43.499 205.167 43.3525C205.313 43.2061 205.513 43.1238 205.72 43.1238C205.928 43.1238 206.127 43.2061 206.274 43.3525C206.42 43.499 206.503 43.6976 206.503 43.9047V48.5979C206.503 48.805 206.42 49.0036 206.274 49.1501C206.127 49.2965 205.928 49.3788 205.72 49.3788V49.3882ZM21.0053 49.3882C20.7978 49.3882 20.5987 49.3059 20.4519 49.1594C20.3051 49.013 20.2227 48.8144 20.2227 48.6073V43.9031C20.2227 43.696 20.3051 43.4974 20.4519 43.351C20.5987 43.2045 20.7978 43.1222 21.0053 43.1222C21.2129 43.1222 21.412 43.2045 21.5588 43.351C21.7056 43.4974 21.788 43.696 21.788 43.9031V48.5963C21.788 48.8034 21.7056 49.0021 21.5588 49.1485C21.412 49.2949 21.2129 49.3772 21.0053 49.3772V49.3882ZM205.72 40.0018C205.519 40.002 205.325 39.9247 205.179 39.7859C205.033 39.6472 204.947 39.4576 204.937 39.2568C204.874 37.8404 204.376 36.4775 203.511 35.3523C203.393 35.1874 203.344 34.9832 203.375 34.7828C203.405 34.5825 203.512 34.4017 203.673 34.2787C203.835 34.1556 204.038 34.1 204.239 34.1234C204.441 34.1469 204.626 34.2476 204.754 34.4043C205.813 35.7788 206.423 37.4441 206.503 39.1756C206.508 39.2782 206.492 39.3807 206.457 39.4773C206.422 39.5739 206.369 39.6627 206.299 39.7385C206.23 39.8144 206.146 39.8759 206.053 39.9194C205.96 39.963 205.859 39.9878 205.756 39.9924L205.72 40.0018ZM21.0226 40.0018H20.9772C20.7701 39.9921 20.5753 39.9008 20.4356 39.7479C20.2959 39.5951 20.2227 39.3932 20.232 39.1865C20.3099 37.4526 20.9197 35.7843 21.979 34.4075C22.1052 34.243 22.2917 34.1353 22.4975 34.1081C22.7033 34.0809 22.9115 34.1363 23.0763 34.2622C23.2412 34.3881 23.3491 34.5742 23.3764 34.7795C23.4037 34.9849 23.3481 35.1926 23.2219 35.357C22.356 36.4815 21.8581 37.8448 21.7959 39.2615C21.7828 39.4593 21.6947 39.6447 21.5497 39.7801C21.4046 39.9156 21.2134 39.9909 21.0147 39.9909L21.0226 40.0018ZM200.354 32.9894C200.273 32.9891 200.192 32.9765 200.114 32.9519C199.42 32.7282 198.695 32.6143 197.965 32.6145H195.691C195.483 32.6145 195.284 32.5323 195.137 32.3858C194.99 32.2394 194.908 32.0407 194.908 31.8336C194.908 31.6265 194.99 31.4279 195.137 31.2815C195.284 31.135 195.483 31.0527 195.691 31.0527H197.965C198.858 31.052 199.746 31.1917 200.595 31.4666C200.772 31.5245 200.922 31.6432 201.019 31.8014C201.115 31.9597 201.153 32.1472 201.124 32.3303C201.095 32.5135 201.001 32.6803 200.86 32.8011C200.719 32.9218 200.54 32.9886 200.354 32.9894ZM26.3871 32.9894C26.2004 32.9897 26.0197 32.9235 25.8777 32.8026C25.7357 32.6817 25.6416 32.5142 25.6125 32.3302C25.5834 32.1462 25.6212 31.9579 25.719 31.7992C25.8169 31.6406 25.9683 31.5221 26.1461 31.465C26.9936 31.1915 27.8789 31.0524 28.7696 31.0527H31.052C31.1547 31.0527 31.2565 31.0729 31.3515 31.1122C31.4464 31.1514 31.5327 31.2089 31.6054 31.2815C31.6781 31.354 31.7357 31.4401 31.7751 31.5348C31.8144 31.6295 31.8346 31.7311 31.8346 31.8336C31.8346 31.9362 31.8144 32.0377 31.7751 32.1325C31.7357 32.2272 31.6781 32.3133 31.6054 32.3858C31.5327 32.4583 31.4464 32.5158 31.3515 32.5551C31.2565 32.5943 31.1547 32.6145 31.052 32.6145H28.7634C28.0358 32.6138 27.3127 32.7271 26.6204 32.9503C26.542 32.9725 26.4606 32.982 26.3793 32.9784L26.3871 32.9894ZM190.987 32.6145H186.291C186.083 32.6145 185.884 32.5323 185.737 32.3858C185.59 32.2394 185.508 32.0407 185.508 31.8336C185.508 31.6265 185.59 31.4279 185.737 31.2815C185.884 31.135 186.083 31.0527 186.291 31.0527H190.987C191.194 31.0527 191.393 31.135 191.54 31.2815C191.687 31.4279 191.769 31.6265 191.769 31.8336C191.769 32.0407 191.687 32.2394 191.54 32.3858C191.393 32.5323 191.194 32.6145 190.987 32.6145ZM181.579 32.6145H176.883C176.675 32.6145 176.476 32.5323 176.329 32.3858C176.182 32.2394 176.1 32.0407 176.1 31.8336C176.1 31.6265 176.182 31.4279 176.329 31.2815C176.476 31.135 176.675 31.0527 176.883 31.0527H181.579C181.786 31.0527 181.985 31.135 182.132 31.2815C182.279 31.4279 182.362 31.6265 182.362 31.8336C182.362 32.0407 182.279 32.2394 182.132 32.3858C181.985 32.5323 181.786 32.6145 181.579 32.6145ZM172.171 32.6145H167.475C167.267 32.6145 167.068 32.5323 166.921 32.3858C166.775 32.2394 166.692 32.0407 166.692 31.8336C166.692 31.6265 166.775 31.4279 166.921 31.2815C167.068 31.135 167.267 31.0527 167.475 31.0527H172.171C172.378 31.0527 172.578 31.135 172.724 31.2815C172.871 31.4279 172.954 31.6265 172.954 31.8336C172.954 32.0407 172.871 32.2394 172.724 32.3858C172.578 32.5323 172.378 32.6145 172.171 32.6145ZM162.763 32.6145H158.067C157.859 32.6145 157.66 32.5323 157.513 32.3858C157.367 32.2394 157.284 32.0407 157.284 31.8336C157.284 31.6265 157.367 31.4279 157.513 31.2815C157.66 31.135 157.859 31.0527 158.067 31.0527H162.763C162.971 31.0527 163.17 31.135 163.316 31.2815C163.463 31.4279 163.546 31.6265 163.546 31.8336C163.546 32.0407 163.463 32.2394 163.316 32.3858C163.17 32.5323 162.971 32.6145 162.763 32.6145ZM153.355 32.6145H148.643C148.436 32.6145 148.237 32.5323 148.09 32.3858C147.943 32.2394 147.861 32.0407 147.861 31.8336C147.861 31.6265 147.943 31.4279 148.09 31.2815C148.237 31.135 148.436 31.0527 148.643 31.0527H153.347C153.555 31.0527 153.754 31.135 153.901 31.2815C154.047 31.4279 154.13 31.6265 154.13 31.8336C154.13 32.0407 154.047 32.2394 153.901 32.3858C153.754 32.5323 153.555 32.6145 153.347 32.6145H153.355ZM143.947 32.6145H139.251C139.043 32.6145 138.844 32.5323 138.698 32.3858C138.551 32.2394 138.468 32.0407 138.468 31.8336C138.468 31.6265 138.551 31.4279 138.698 31.2815C138.844 31.135 139.043 31.0527 139.251 31.0527H143.947C144.155 31.0527 144.354 31.135 144.501 31.2815C144.647 31.4279 144.73 31.6265 144.73 31.8336C144.73 32.0407 144.647 32.2394 144.501 32.3858C144.354 32.5323 144.155 32.6145 143.947 32.6145ZM134.539 32.6145H129.843C129.635 32.6145 129.436 32.5323 129.29 32.3858C129.143 32.2394 129.06 32.0407 129.06 31.8336C129.06 31.6265 129.143 31.4279 129.29 31.2815C129.436 31.135 129.635 31.0527 129.843 31.0527H134.539C134.747 31.0527 134.946 31.135 135.093 31.2815C135.239 31.4279 135.322 31.6265 135.322 31.8336C135.322 32.0407 135.239 32.2394 135.093 32.3858C134.946 32.5323 134.747 32.6145 134.539 32.6145ZM125.131 32.6145H120.419C120.212 32.6145 120.013 32.5323 119.866 32.3858C119.719 32.2394 119.637 32.0407 119.637 31.8336C119.637 31.6265 119.719 31.4279 119.866 31.2815C120.013 31.135 120.212 31.0527 120.419 31.0527H125.123C125.331 31.0527 125.53 31.135 125.677 31.2815C125.824 31.4279 125.906 31.6265 125.906 31.8336C125.906 32.0407 125.824 32.2394 125.677 32.3858C125.53 32.5323 125.331 32.6145 125.123 32.6145H125.131ZM115.723 32.6145H111.015C110.807 32.6145 110.608 32.5323 110.461 32.3858C110.314 32.2394 110.232 32.0407 110.232 31.8336C110.232 31.6265 110.314 31.4279 110.461 31.2815C110.608 31.135 110.807 31.0527 111.015 31.0527H115.711C115.918 31.0527 116.117 31.135 116.264 31.2815C116.411 31.4279 116.493 31.6265 116.493 31.8336C116.493 32.0407 116.411 32.2394 116.264 32.3858C116.117 32.5323 115.918 32.6145 115.711 32.6145H115.723ZM106.315 32.6145H101.604C101.396 32.6145 101.197 32.5323 101.05 32.3858C100.903 32.2394 100.821 32.0407 100.821 31.8336C100.821 31.6265 100.903 31.4279 101.05 31.2815C101.197 31.135 101.396 31.0527 101.604 31.0527H106.308C106.515 31.0527 106.714 31.135 106.861 31.2815C107.008 31.4279 107.09 31.6265 107.09 31.8336C107.09 32.0407 107.008 32.2394 106.861 32.3858C106.714 32.5323 106.515 32.6145 106.308 32.6145H106.315ZM96.9075 32.6145H92.2113C92.0037 32.6145 91.8046 32.5323 91.6579 32.3858C91.5111 32.2394 91.4286 32.0407 91.4286 31.8336C91.4286 31.6265 91.5111 31.4279 91.6579 31.2815C91.8046 31.135 92.0037 31.0527 92.2113 31.0527H96.9075C97.115 31.0527 97.3141 31.135 97.4609 31.2815C97.6077 31.4279 97.6901 31.6265 97.6901 31.8336C97.6901 32.0407 97.6077 32.2394 97.4609 32.3858C97.3141 32.5323 97.115 32.6145 96.9075 32.6145ZM87.4995 32.6145H82.8034C82.5958 32.6145 82.3967 32.5323 82.2499 32.3858C82.1032 32.2394 82.0207 32.0407 82.0207 31.8336C82.0207 31.6265 82.1032 31.4279 82.2499 31.2815C82.3967 31.135 82.5958 31.0527 82.8034 31.0527H87.4995C87.7071 31.0527 87.9062 31.135 88.053 31.2815C88.1998 31.4279 88.2822 31.6265 88.2822 31.8336C88.2822 32.0407 88.1998 32.2394 88.053 32.3858C87.9062 32.5323 87.7071 32.6145 87.4995 32.6145ZM78.0916 32.6145H73.3798C73.1722 32.6145 72.9731 32.5323 72.8264 32.3858C72.6796 32.2394 72.5971 32.0407 72.5971 31.8336C72.5971 31.6265 72.6796 31.4279 72.8264 31.2815C72.9731 31.135 73.1722 31.0527 73.3798 31.0527H78.0838C78.2914 31.0527 78.4904 31.135 78.6372 31.2815C78.784 31.4279 78.8665 31.6265 78.8665 31.8336C78.8665 32.0407 78.784 32.2394 78.6372 32.3858C78.4904 32.5323 78.2914 32.6145 78.0838 32.6145H78.0916ZM68.6837 32.6145H63.9719C63.7643 32.6145 63.5652 32.5323 63.4184 32.3858C63.2716 32.2394 63.1892 32.0407 63.1892 31.8336C63.1892 31.6265 63.2716 31.4279 63.4184 31.2815C63.5652 31.135 63.7643 31.0527 63.9719 31.0527H68.6758C68.8834 31.0527 69.0825 31.135 69.2293 31.2815C69.3761 31.4279 69.4585 31.6265 69.4585 31.8336C69.4585 32.0407 69.3761 32.2394 69.2293 32.3858C69.0825 32.5323 68.8834 32.6145 68.6758 32.6145H68.6837ZM59.2757 32.6145H54.5624C54.3548 32.6145 54.1557 32.5323 54.0089 32.3858C53.8622 32.2394 53.7797 32.0407 53.7797 31.8336C53.7797 31.6265 53.8622 31.4279 54.0089 31.2815C54.1557 31.135 54.3548 31.0527 54.5624 31.0527H59.2679C59.4755 31.0527 59.6746 31.135 59.8214 31.2815C59.9681 31.4279 60.0506 31.6265 60.0506 31.8336C60.0506 32.0407 59.9681 32.2394 59.8214 32.3858C59.6746 32.5323 59.4755 32.6145 59.2679 32.6145H59.2757ZM49.8678 32.6145H45.1717C44.9641 32.6145 44.765 32.5323 44.6182 32.3858C44.4714 32.2394 44.389 32.0407 44.389 31.8336C44.389 31.6265 44.4714 31.4279 44.6182 31.2815C44.765 31.135 44.9641 31.0527 45.1717 31.0527H49.8678C50.0754 31.0527 50.2745 31.135 50.4213 31.2815C50.568 31.4279 50.6505 31.6265 50.6505 31.8336C50.6505 32.0407 50.568 32.2394 50.4213 32.3858C50.2745 32.5323 50.0754 32.6145 49.8678 32.6145ZM40.4599 32.6145H35.7465C35.5389 32.6145 35.3399 32.5323 35.1931 32.3858C35.0463 32.2394 34.9638 32.0407 34.9638 31.8336C34.9638 31.6265 35.0463 31.4279 35.1931 31.2815C35.3399 31.135 35.5389 31.0527 35.7465 31.0527H40.4521C40.6596 31.0527 40.8587 31.135 41.0055 31.2815C41.1523 31.4279 41.2347 31.6265 41.2347 31.8336C41.2347 32.0407 41.1523 32.2394 41.0055 32.3858C40.8587 32.5323 40.6596 32.6145 40.4521 32.6145H40.4599Z" fill="#BDBDBD"/>
<path d="M137.857 0.412109H88.8733C87.5108 0.412109 86.4062 1.51411 86.4062 2.87349V13.6046C86.4062 14.9639 87.5108 16.0659 88.8733 16.0659H137.857C139.22 16.0659 140.324 14.9639 140.324 13.6046V2.87349C140.324 1.51411 139.22 0.412109 137.857 0.412109Z" fill="#BDBDBD"/>
<path d="M119.838 102.477H106.886C105.32 102.477 104.051 103.743 104.051 105.305V125.315C104.051 126.877 105.32 128.143 106.886 128.143H119.838C121.403 128.143 122.673 126.877 122.673 125.315V105.305C122.673 103.743 121.403 102.477 119.838 102.477Z" fill="#BDBDBD"/>
<path d="M200.278 29.7239C200.193 29.4973 200.193 29.2474 200.278 29.0207L208.215 7.96629C208.54 7.1033 209.764 7.1033 210.089 7.96629L218.025 29.0207C218.111 29.2474 218.111 29.4973 218.025 29.7239L210.089 50.7783C209.764 51.6413 208.54 51.6413 208.215 50.7783L200.278 29.7239Z" fill="#FFDE2E"/>
<path d="M209.505 38.2255C209.278 38.3108 209.027 38.3108 208.8 38.2255L187.697 30.3074C186.832 29.9828 186.832 28.7621 187.697 28.4375L208.8 20.5193C209.027 20.4341 209.278 20.4341 209.505 20.5193L230.608 28.4375C231.473 28.7621 231.473 29.9828 230.608 30.3074L209.505 38.2255Z" fill="#FFDE2E"/>
<path d="M10.9324 122.034C10.847 121.807 10.847 121.557 10.9324 121.331L16.2762 107.154C16.6015 106.291 17.825 106.291 18.1503 107.154L23.4941 121.331C23.5795 121.557 23.5795 121.807 23.4941 122.034L18.1503 136.21C17.825 137.073 16.6015 137.073 16.2762 136.21L10.9324 122.034Z" fill="#FFDE2E"/>
<path d="M17.5653 127.949C17.3381 128.034 17.0877 128.034 16.8605 127.949L2.65148 122.617C1.7865 122.293 1.7865 121.072 2.65147 120.748L16.8605 115.416C17.0877 115.331 17.3381 115.331 17.5653 115.416L31.7743 120.748C32.6393 121.072 32.6393 122.293 31.7743 122.617L17.5653 127.949Z" fill="#FFDE2E"/>
</svg>
