<svg width="23" height="20" viewBox="0 0 23 20" fill="none" xmlns="http://www.w3.org/2000/svg">
<g clip-path="url(#clip0)">
<path d="M22.2646 9.42969C20.1557 5.29648 15.9806 2.5 11.2 2.5C6.41937 2.5 2.24309 5.29844 0.135312 9.43008C0.0463506 9.60684 0 9.80213 0 10.0002C0 10.1983 0.0463506 10.3936 0.135312 10.5703C2.24426 14.7035 6.41937 17.5 11.2 17.5C15.9806 17.5 20.1569 14.7016 22.2646 10.5699C22.3536 10.3932 22.4 10.1979 22.4 9.9998C22.4 9.80174 22.3536 9.60645 22.2646 9.42969ZM11.2 15.625C10.0924 15.625 9.0097 15.2951 8.08878 14.677C7.16787 14.0589 6.4501 13.1804 6.02625 12.1526C5.6024 11.1248 5.4915 9.99376 5.70758 8.90262C5.92366 7.81147 6.45701 6.80919 7.24018 6.02252C8.02335 5.23585 9.02118 4.70012 10.1075 4.48308C11.1938 4.26604 12.3197 4.37743 13.343 4.80318C14.3663 5.22892 15.2409 5.94989 15.8562 6.87492C16.4715 7.79994 16.8 8.88748 16.8 10C16.8003 10.7388 16.6557 11.4704 16.3744 12.153C16.0931 12.8356 15.6807 13.4559 15.1606 13.9783C14.6405 14.5007 14.023 14.915 13.3434 15.1976C12.6638 15.4801 11.9355 15.6254 11.2 15.625ZM11.2 6.25C10.8668 6.25468 10.5357 6.30448 10.2157 6.39805C10.4795 6.75808 10.606 7.20113 10.5725 7.64685C10.5389 8.09258 10.3474 8.51146 10.0327 8.82754C9.71806 9.14362 9.30103 9.33595 8.85729 9.36967C8.41354 9.40339 7.97246 9.27626 7.61403 9.01133C7.40993 9.76664 7.44677 10.5672 7.71938 11.3004C7.99198 12.0336 8.48661 12.6624 9.13366 13.0984C9.78071 13.5344 10.5476 13.7556 11.3264 13.7309C12.1051 13.7062 12.8566 13.4368 13.4749 12.9607C14.0933 12.4845 14.5474 11.8256 14.7734 11.0766C14.9994 10.3276 14.9859 9.52624 14.7347 8.78538C14.4836 8.04452 14.0074 7.40142 13.3733 6.94661C12.7392 6.49179 11.9791 6.24816 11.2 6.25Z" fill="#828282"/>
</g>
<defs>
<clipPath id="clip0">
<rect width="22.4" height="20" fill="white"/>
</clipPath>
</defs>
</svg>
