<svg width="13" height="14" viewBox="0 0 13 14" fill="none" xmlns="http://www.w3.org/2000/svg">
<g clip-path="url(#clip0)">
<path d="M12.1935 9.84375V0.65625C12.1935 0.292578 11.9023 0 11.5403 0H2.6129C1.17036 0 0 1.17578 0 2.625V11.375C0 12.8242 1.17036 14 2.6129 14H11.5403C11.9023 14 12.1935 13.7074 12.1935 13.3438V12.9062C12.1935 12.7012 12.0983 12.5152 11.9513 12.3949C11.837 11.9738 11.837 10.7734 11.9513 10.3523C12.0983 10.2348 12.1935 10.0488 12.1935 9.84375ZM3.48387 3.66406C3.48387 3.57383 3.55736 3.5 3.64718 3.5H9.41734C9.50716 3.5 9.58065 3.57383 9.58065 3.66406V4.21094C9.58065 4.30117 9.50716 4.375 9.41734 4.375H3.64718C3.55736 4.375 3.48387 4.30117 3.48387 4.21094V3.66406ZM3.48387 5.41406C3.48387 5.32383 3.55736 5.25 3.64718 5.25H9.41734C9.50716 5.25 9.58065 5.32383 9.58065 5.41406V5.96094C9.58065 6.05117 9.50716 6.125 9.41734 6.125H3.64718C3.55736 6.125 3.48387 6.05117 3.48387 5.96094V5.41406ZM10.3808 12.25H2.6129C2.13115 12.25 1.74194 11.859 1.74194 11.375C1.74194 10.8938 2.13387 10.5 2.6129 10.5H10.3808C10.3291 10.9676 10.3291 11.7824 10.3808 12.25Z" fill="#BDBDBD"/>
</g>
<defs>
<clipPath id="clip0">
<rect width="12.1935" height="14" fill="white"/>
</clipPath>
</defs>
</svg>
