<svg width="14" height="14" viewBox="0 0 14 14" fill="none" xmlns="http://www.w3.org/2000/svg">
<path d="M7 0.21875C3.25391 0.21875 0.21875 3.25391 0.21875 7C0.21875 10.7461 3.25391 13.7812 7 13.7812C10.7461 13.7812 13.7812 10.7461 13.7812 7C13.7812 3.25391 10.7461 0.21875 7 0.21875ZM9.52902 8.77734L8.98215 9.46094C8.94626 9.50581 8.90188 9.54317 8.85156 9.57089C8.80123 9.59861 8.74593 9.61614 8.68883 9.62249C8.63172 9.62884 8.57393 9.62387 8.51874 9.60788C8.46355 9.59189 8.41205 9.56519 8.36719 9.5293L6.53516 8.16977C6.40715 8.06728 6.30382 7.93732 6.23283 7.7895C6.16183 7.64169 6.12498 7.4798 6.125 7.31582V3.0625C6.125 2.94647 6.17109 2.83519 6.25314 2.75314C6.33519 2.67109 6.44647 2.625 6.5625 2.625H7.4375C7.55353 2.625 7.66481 2.67109 7.74686 2.75314C7.82891 2.83519 7.875 2.94647 7.875 3.0625V7L9.46094 8.16211C9.50583 8.19802 9.5432 8.24243 9.57092 8.29279C9.59863 8.34315 9.61616 8.39848 9.62248 8.45562C9.6288 8.51275 9.6238 8.57058 9.60777 8.62578C9.59173 8.68098 9.56497 8.73249 9.52902 8.77734Z" fill="#BDBDBD"/>
</svg>
