<svg width="21" height="24" viewBox="0 0 21 24" fill="none" xmlns="http://www.w3.org/2000/svg">
<g clip-path="url(#clip0)">
<path d="M10.499 24C12.1547 24 13.4976 22.657 13.4976 21H7.50045C7.50045 22.657 8.84342 24 10.499 24ZM20.5954 16.9823C19.6898 16.0092 17.9953 14.5453 17.9953 9.75C17.9953 6.10781 15.4415 3.19219 11.9981 2.47688V1.5C11.9981 0.671719 11.3269 0 10.499 0C9.67123 0 8.99998 0.671719 8.99998 1.5V2.47688C5.55655 3.19219 3.0028 6.10781 3.0028 9.75C3.0028 14.5453 1.30827 16.0092 0.402649 16.9823C0.121399 17.2847 -0.0032879 17.6461 -0.000944154 18C0.00421209 18.7687 0.607492 19.5 1.50374 19.5H19.4943C20.3906 19.5 20.9943 18.7687 20.999 18C21.0014 17.6461 20.8767 17.2842 20.5954 16.9823Z" fill="#BDBDBD"/>
</g>
<defs>
<clipPath id="clip0">
<rect width="21" height="24" fill="white"/>
</clipPath>
</defs>
</svg>
