<svg width="61" height="61" viewBox="0 0 61 61" fill="none" xmlns="http://www.w3.org/2000/svg">
<rect width="61" height="61" rx="8" fill="white"/>
<path d="M36.3759 30.5L45.1889 21.687C46.2704 20.6055 46.2704 18.8521 45.1889 17.7697L43.2303 15.8111C42.1488 14.7296 40.3953 14.7296 39.313 15.8111L30.5 24.6241L21.687 15.8111C20.6055 14.7296 18.8521 14.7296 17.7697 15.8111L15.8111 17.7697C14.7296 18.8512 14.7296 20.6047 15.8111 21.687L24.6241 30.5L15.8111 39.313C14.7296 40.3945 14.7296 42.1479 15.8111 43.2303L17.7697 45.1889C18.8512 46.2704 20.6055 46.2704 21.687 45.1889L30.5 36.3759L39.313 45.1889C40.3945 46.2704 42.1488 46.2704 43.2303 45.1889L45.1889 43.2303C46.2704 42.1488 46.2704 40.3953 45.1889 39.313L36.3759 30.5Z" fill="#DF0E2C"/>
</svg>
