<svg width="61" height="61" viewBox="0 0 61 61" fill="none" xmlns="http://www.w3.org/2000/svg">
<rect width="61" height="61" rx="8" fill="white"/>
<path d="M24.265 45.7048L10.615 32.0548C9.79498 31.2347 9.79498 29.9051 10.615 29.0849L13.5848 26.115C14.4049 25.2949 15.7346 25.2949 16.5547 26.115L25.75 35.3103L45.4453 15.615C46.2653 14.795 47.5951 14.795 48.4151 15.615L51.3849 18.5849C52.205 19.405 52.205 20.7346 51.3849 21.5548L27.2349 45.7048C26.4148 46.5249 25.0851 46.5249 24.265 45.7048Z" fill="#DF0E2C"/>
<path d="M18.7843 15.4108C18.699 15.1839 18.699 14.9337 18.7843 14.7068L21.1228 8.48882C21.4478 7.62484 22.6699 7.62484 22.9948 8.48883L25.3333 14.7068C25.4186 14.9337 25.4186 15.1839 25.3333 15.4108L22.9948 21.6288C22.6699 22.4928 21.4478 22.4928 21.1228 21.6289L18.7843 15.4108Z" fill="#FFDE2E"/>
<path d="M22.4106 18.3333C22.1837 18.4187 21.9335 18.4187 21.7066 18.3333L15.4886 15.9949C14.6246 15.6699 14.6246 14.4478 15.4886 14.1229L21.7066 11.7844C21.9335 11.699 22.1837 11.699 22.4106 11.7844L28.6286 14.1229C29.4926 14.4478 29.4926 15.6699 28.6286 15.9949L22.4106 18.3333Z" fill="#FFDE2E"/>
<path d="M43.0596 44.852C42.9743 44.6251 42.9743 44.3749 43.0596 44.148L45.564 37.4888C45.8889 36.6248 47.1111 36.6248 47.436 37.4888L49.9404 44.148C50.0257 44.3749 50.0257 44.6251 49.9404 44.852L47.436 51.5112C47.1111 52.3752 45.8889 52.3752 45.564 51.5112L43.0596 44.852Z" fill="#FFDE2E"/>
<path d="M46.852 47.9404C46.6251 48.0257 46.3749 48.0257 46.148 47.9404L39.4888 45.436C38.6248 45.1111 38.6248 43.8889 39.4888 43.564L46.148 41.0596C46.3749 40.9743 46.6251 40.9743 46.852 41.0596L53.5112 43.564C54.3752 43.8889 54.3752 45.1111 53.5112 45.436L46.852 47.9404Z" fill="#FFDE2E"/>
</svg>
