<svg width="168" height="139" viewBox="0 0 168 139" fill="none" xmlns="http://www.w3.org/2000/svg">
<path fill-rule="evenodd" clip-rule="evenodd" d="M26.2863 137.993C26.8829 137.993 27.1636 138.029 27.3742 137.537C27.6199 136.976 29.5501 131.185 29.5501 131.185H33.937C35.8321 131.185 38.4642 131.15 38.4642 131.15C38.4642 131.15 38.8152 131.747 39.5873 134.238C40.3594 136.73 40.605 138.064 41.7632 138.064H45.7991C46.3606 138.064 46.5361 137.853 46.5361 137.397C46.5361 136.941 46.0799 135.923 46.0799 135.923C46.0799 135.923 44.1847 130.448 43.7636 129.185C43.3424 127.921 41.8685 123.71 40.956 121.218C40.0786 118.761 38.5695 114.199 38.3239 113.392C38.0782 112.62 38.0431 112.234 37.2008 112.164C36.3585 112.058 34.1827 111.918 33.0596 112.023C32.8841 112.023 32.5332 112.058 32.3577 112.62C32.1822 113.181 30.5328 118.27 29.7958 120.411C29.0939 122.517 26.9882 128.623 26.7425 129.43C26.4617 130.237 24.6368 135.782 24.321 136.73C24.0051 137.678 23.97 137.958 24.5666 137.958C25.1632 137.958 25.6897 137.993 26.2863 137.993ZM33.9721 117.533C33.9721 117.533 34.5336 118.972 35.9725 123.394C37.3763 127.816 37.5518 128.448 37.5518 128.448C37.5518 128.448 36.2533 128.448 34.0774 128.448C31.8664 128.448 30.4275 128.377 30.4275 128.377C30.4275 128.377 30.7433 127.254 32.1471 123.008C33.5158 118.796 33.9721 117.533 33.9721 117.533Z" fill="#E92327"/>
<path fill-rule="evenodd" clip-rule="evenodd" d="M90.0187 137.993C90.6153 137.993 90.896 138.029 91.1066 137.537C91.3523 136.976 93.2825 131.185 93.2825 131.185H97.6694C99.5645 131.185 102.197 131.15 102.197 131.15C102.197 131.15 102.548 131.747 103.32 134.238C104.092 136.73 104.337 138.064 105.496 138.064H109.531C110.093 138.064 110.268 137.853 110.268 137.397C110.268 136.941 109.812 135.923 109.812 135.923C109.812 135.923 107.917 130.448 107.496 129.185C107.075 127.921 105.601 123.71 104.688 121.218C103.811 118.761 102.302 114.199 102.056 113.392C101.811 112.62 101.775 112.234 100.933 112.164C100.091 112.058 97.915 111.918 96.792 112.023C96.6165 112.023 96.2656 112.058 96.0901 112.62C95.9146 113.181 94.2652 118.27 93.5282 120.411C92.8263 122.517 90.7206 128.623 90.4749 129.43C90.1941 130.237 88.3692 135.782 88.0533 136.73C87.7375 137.678 87.7024 137.958 88.299 137.958C88.9658 137.958 89.4221 137.993 90.0187 137.993ZM97.6694 117.533C97.6694 117.533 98.2309 118.972 99.6698 123.394C101.074 127.816 101.249 128.448 101.249 128.448C101.249 128.448 99.9506 128.448 97.7747 128.448C95.5637 128.448 94.1248 128.377 94.1248 128.377C94.1248 128.377 94.4406 127.254 95.8444 123.008C97.2131 118.796 97.6694 117.533 97.6694 117.533Z" fill="#E92327"/>
<path fill-rule="evenodd" clip-rule="evenodd" d="M50.8175 113.637C50.8175 112.55 51.0983 112.128 52.0458 112.128C53.0285 112.128 53.9761 112.164 54.678 112.164C55.3799 112.164 56.6433 112.128 56.6433 112.865C56.6433 113.602 56.7486 122.797 56.7486 124.657C56.7486 126.517 56.8187 135.221 56.8187 136.414C56.8187 137.607 56.6784 138.134 55.7659 138.134C54.8534 138.134 53.4496 138.204 52.5021 138.169C51.5545 138.134 50.9579 138.064 50.9579 136.73C50.9579 135.396 50.9228 123.71 50.9228 121.639C50.8877 119.533 50.8175 114.69 50.8175 113.637Z" fill="#E92327"/>
<path fill-rule="evenodd" clip-rule="evenodd" d="M73.8749 125.956C72.6816 125.956 69.9091 125.956 69.9091 125.956C69.9091 129.044 69.9793 135.326 69.9793 136.344C69.9793 137.537 69.874 138.064 68.9615 138.064C68.0842 138.064 66.7506 138.134 65.8381 138.099C64.9256 138.099 64.3641 137.994 64.3641 136.66C64.3641 135.326 64.329 123.64 64.329 121.569C64.329 119.499 64.2588 114.691 64.2588 113.603C64.2588 112.515 64.5045 112.094 65.452 112.094C66.3645 112.094 67.3121 112.129 67.9789 112.129C68.6457 112.129 69.8389 112.094 69.8389 112.831C69.8389 113.427 69.9091 119.92 69.9442 123.148C69.9442 123.148 71.2427 123.184 73.945 123.184C76.6474 123.184 78.4723 123.148 78.4723 123.148C78.4723 119.92 78.5425 113.427 78.5425 112.831C78.5425 112.094 79.7357 112.129 80.4025 112.129C81.0693 112.129 81.9818 112.094 82.9294 112.094C83.8418 112.094 84.1226 112.55 84.1226 113.603C84.1226 114.691 84.0524 119.499 84.0524 121.569C84.0524 123.64 84.0173 135.362 84.0173 136.66C84.0173 137.994 83.4207 138.099 82.5433 138.099C81.6308 138.099 80.2972 138.064 79.4199 138.064C78.5425 138.064 78.4021 137.537 78.4021 136.344C78.4021 135.362 78.4372 129.079 78.4723 125.956C78.4021 125.991 75.0681 125.956 73.8749 125.956Z" fill="#E92327"/>
<path fill-rule="evenodd" clip-rule="evenodd" d="M115.673 137.081C115.708 137.888 115.673 138.064 116.059 138.134C116.445 138.204 117.919 138.379 118.937 138.415C119.955 138.45 121.323 138.66 121.323 137.186C121.323 135.712 121.288 130.729 121.288 130.237C121.288 129.746 121.253 124.692 121.253 124.236C121.253 123.815 121.253 118.621 121.253 118.235C121.253 117.849 121.253 115.813 121.253 115.568C121.253 115.322 121.323 115.252 121.604 115.252C121.885 115.252 124.763 115.322 125.815 115.322C126.903 115.322 127.325 115.322 127.605 115.322C127.886 115.322 128.167 115.392 128.237 114.971C128.307 114.55 128.342 113.673 128.377 113.251C128.377 112.83 128.377 112.514 127.64 112.444C126.903 112.409 121.955 112.304 120.902 112.304C119.849 112.269 115.743 112.269 114.971 112.304C114.199 112.304 109.216 112.374 108.865 112.374C108.479 112.374 108.303 112.795 108.303 113.743C108.303 114.69 108.373 115.252 108.865 115.252C109.356 115.252 113.216 115.252 114.269 115.287C114.796 115.287 115.006 115.287 115.147 115.287C115.287 115.287 115.498 115.287 115.498 115.427C115.498 115.603 115.568 119.218 115.568 120.621C115.568 122.025 115.533 125.71 115.533 127.219C115.533 128.693 115.603 133.571 115.603 134.203C115.603 134.765 115.603 136.274 115.673 137.081Z" fill="#E92327"/>
<path fill-rule="evenodd" clip-rule="evenodd" d="M136.765 138.696C134.344 138.696 131.115 137.818 130.448 137.608C129.816 137.397 129.781 136.976 129.781 136.625C129.781 136.309 129.781 136.099 129.781 135.572C129.781 135.046 129.852 134.449 130.167 134.449C131.22 134.449 132.343 136.099 137.186 136.099C139.959 136.099 140.38 134.519 140.38 133.502C140.38 127.957 129.606 126.833 129.606 119.042C129.606 113.322 133.887 112.269 137.292 112.269C140.064 112.269 142.1 112.936 142.802 113.252C143.503 113.603 143.609 113.813 143.609 114.199C143.609 114.585 143.609 115.849 143.609 116.129C143.609 116.41 143.468 116.586 143.223 116.586C142.521 116.586 141.468 114.831 137.572 114.831C135.01 114.831 133.923 116.094 133.923 117.603C133.923 122.061 145.083 124.026 145.083 131.782C145.083 137.257 140.415 138.696 136.765 138.696Z" fill="#E92327"/>
<path fill-rule="evenodd" clip-rule="evenodd" d="M149.364 113.567C149.364 113.076 149.47 112.69 150.207 112.69C150.979 112.69 151.47 112.62 152.172 112.62C152.839 112.62 153.4 112.62 153.962 112.655C154.488 112.655 155.015 112.76 155.015 114.796C155.015 116.831 154.979 122.131 154.979 123.148C154.979 124.131 154.979 127.395 154.979 128.834C154.979 131.466 154.523 136.379 159.928 136.379C160.946 136.379 164.841 136.379 164.841 131.185C164.841 129.15 164.736 121.464 164.736 118.305C164.736 116.621 164.666 114.059 164.666 113.567C164.666 113.041 164.771 112.83 165.122 112.83C165.473 112.83 166.35 112.866 166.947 112.866C167.543 112.866 167.894 112.866 167.894 113.252C167.894 113.638 168 116.305 168 123.605C168 130.904 168 129.746 168 131.361C168 132.975 168.175 138.871 160.174 138.871C152.172 138.871 149.47 134.624 149.47 130.343C149.434 126.026 149.364 114.094 149.364 113.567Z" fill="#E92327"/>
<path fill-rule="evenodd" clip-rule="evenodd" d="M0.035095 125.57C0.035095 129.957 0.14038 136.274 0.14038 136.906C0.14038 137.537 0.175475 137.818 1.64947 137.888C3.15855 137.958 8.94923 137.923 10.6689 137.923C17.7581 137.923 21.3378 132.835 21.3378 125.535C21.3378 113.462 14.5995 111.918 9.79151 111.918H1.15814C0.42114 111.918 0 111.953 0 112.76C0 113.603 0.035095 121.183 0.035095 125.57ZM8.98432 135.256C12.2131 135.256 15.5822 134.73 15.5822 124.798C15.5822 114.866 11.827 114.796 8.70356 114.796H6.66805C6.3171 114.796 5.79068 114.761 5.79068 115.392V135.151C5.75558 135.151 7.51033 135.256 8.98432 135.256Z" fill="#E92327"/>
<path d="M167.965 0H0V99.74H167.965V0Z" fill="#E92327"/>
<path fill-rule="evenodd" clip-rule="evenodd" d="M79.9464 58.4332L59.6615 60.5038L23.3382 24.1805C23.3382 24.1805 47.0624 22.7065 90.1942 26.6021C133.326 30.4976 157.226 37.0955 157.226 44.0443C157.226 62.5043 40.4646 80.5782 40.4646 80.5782L50.9229 64.259L10.8795 24.6367L20.3551 24.1805L58.6789 62.5043C58.6789 62.5043 152.734 54.2218 152.734 44.2548C152.734 38.2536 110.725 33.0244 90.1591 31.3399C71.7342 29.8308 51.4142 29.9361 51.4142 29.9361L79.9464 58.4332Z" fill="white"/>
</svg>
