<svg width="25" height="20" viewBox="0 0 25 20" fill="none" xmlns="http://www.w3.org/2000/svg">
<path d="M17.5615 2.11328C20.0624 3.87109 21.69 6.74609 21.69 10C21.69 15.3437 17.2915 19.6758 11.8649 19.6875C6.44614 19.6992 2.00795 15.3516 2.00001 10.0156C1.99604 6.76172 3.62364 3.87891 6.12062 2.11719C6.58508 1.79297 7.23215 1.92969 7.51003 2.41797L8.13725 3.51562C8.37147 3.92578 8.26031 4.44531 7.87525 4.72656C6.2278 5.92969 5.17581 7.83594 5.17581 9.99609C5.17184 13.6016 8.13328 16.5625 11.845 16.5625C15.4813 16.5625 18.538 13.6641 18.5142 9.95703C18.5023 7.93359 17.5337 5.98047 15.8108 4.72266C15.4257 4.44141 15.3185 3.92187 15.5528 3.51562L16.18 2.41797C16.4579 1.93359 17.101 1.78906 17.5615 2.11328ZM13.4329 10.3125V0.9375C13.4329 0.417969 13.0081 0 12.4802 0H11.2098C10.6819 0 10.2571 0.417969 10.2571 0.9375V10.3125C10.2571 10.832 10.6819 11.25 11.2098 11.25H12.4802C13.0081 11.25 13.4329 10.832 13.4329 10.3125Z" fill="#DF0E2C"/>
</svg>
