<svg width="25" height="20" viewBox="0 0 25 20" fill="none" xmlns="http://www.w3.org/2000/svg">
<path d="M14.5 12.875C14.5 13.2203 14.2203 13.5 13.875 13.5H10.125C9.77969 13.5 9.5 13.2203 9.5 12.875V11H2V16.625C2 17.625 2.875 18.5 3.875 18.5H20.125C21.125 18.5 22 17.625 22 16.625V11H14.5V12.875ZM20.125 4.75H17V2.875C17 1.875 16.125 1 15.125 1H8.875C7.875 1 7 1.875 7 2.875V4.75H3.875C2.875 4.75 2 5.625 2 6.625V9.75H22V6.625C22 5.625 21.125 4.75 20.125 4.75ZM14.5 4.75H9.5V3.5H14.5V4.75Z" fill="#BDBDBD"/>
</svg>
