<svg width="21" height="22" viewBox="0 0 21 22" fill="none" xmlns="http://www.w3.org/2000/svg">
<path d="M8.92966 19.8639L9.97029 20.9045C10.4109 21.3451 11.1234 21.3451 11.5594 20.9045L20.6719 11.7967C21.1125 11.3561 21.1125 10.6436 20.6719 10.2076L11.5594 1.09512C11.1187 0.654492 10.4062 0.654492 9.97029 1.09512L8.92966 2.13574C8.48435 2.58105 8.49372 3.30762 8.94841 3.74355L14.5968 9.12481H1.12498C0.501537 9.12481 -2.47955e-05 9.62637 -2.47955e-05 10.2498V11.7498C-2.47955e-05 12.3732 0.501537 12.8748 1.12498 12.8748H14.5968L8.94841 18.2561C8.48904 18.692 8.47966 19.4186 8.92966 19.8639Z" fill="#E8F7EE"/>
</svg>
