<svg width="21" height="22" viewBox="0 0 21 22" fill="none" xmlns="http://www.w3.org/2000/svg">
<path d="M12.0704 19.8639L11.0297 20.9045C10.5891 21.3451 9.87662 21.3451 9.44068 20.9045L0.32818 11.7967C-0.112445 11.3561 -0.112445 10.6436 0.32818 10.2076L9.44068 1.09512C9.88131 0.654492 10.5938 0.654492 11.0297 1.09512L12.0704 2.13574C12.5157 2.58105 12.5063 3.30762 12.0516 3.74355L6.40318 9.12481H19.8751C20.4985 9.12481 21.0001 9.62637 21.0001 10.2498V11.7498C21.0001 12.3732 20.4985 12.8748 19.8751 12.8748H6.40318L12.0516 18.2561C12.511 18.692 12.5204 19.4186 12.0704 19.8639Z" fill="#E8F7EE"/>
</svg>
