<svg width="44" height="44" viewBox="0 0 44 44" fill="none" xmlns="http://www.w3.org/2000/svg">
<circle cx="22" cy="22" r="22" fill="#E0E0E0"/>
<g clip-path="url(#clip0)">
<path d="M34.3104 17.9844L23.4144 14.6367C22.8206 14.4543 22.18 14.4543 21.5866 14.6367L10.6901 17.9844C9.77061 18.2668 9.77061 19.4828 10.6901 19.7652L12.5897 20.3488C12.1729 20.864 11.9167 21.4926 11.8913 22.1808C11.5151 22.3965 11.2503 22.7855 11.2503 23.25C11.2503 23.6711 11.4722 24.0254 11.7917 24.2519L10.7944 28.7394C10.7077 29.1297 11.0046 29.5 11.4042 29.5H13.596C13.996 29.5 14.2929 29.1297 14.2062 28.7394L13.2089 24.2519C13.5284 24.0254 13.7503 23.6711 13.7503 23.25C13.7503 22.798 13.4976 22.4199 13.1386 22.2004C13.1683 21.6136 13.4683 21.0949 13.9468 20.766L21.5862 23.1133C21.9401 23.2219 22.619 23.3574 23.414 23.1133L34.3104 19.7656C35.2304 19.4828 35.2304 18.2672 34.3104 17.9844ZM23.7812 24.3082C22.6667 24.6504 21.7171 24.4613 21.219 24.3082L15.5542 22.5679L15.0003 27C15.0003 28.3808 18.3581 29.5 22.5003 29.5C26.6425 29.5 30.0003 28.3808 30.0003 27L29.4464 22.5676L23.7812 24.3082Z" fill="#828282"/>
</g>
<defs>
<clipPath id="clip0">
<rect width="25" height="20" fill="white" transform="translate(10 12)"/>
</clipPath>
</defs>
</svg>
