<svg width="44" height="44" viewBox="0 0 44 44" fill="none" xmlns="http://www.w3.org/2000/svg">
<circle cx="22" cy="22" r="22" fill="#E0E0E0"/>
<g clip-path="url(#clip0)">
<path d="M14.6893 30.2082C12.4069 27.8532 12.4494 24.0554 14.7434 21.7089L22.9372 13.3277C24.6683 11.5569 27.4821 11.5567 29.2134 13.3277C30.9278 15.0813 30.9299 17.9108 29.2134 19.6666L22.0709 26.9655C20.9046 28.1583 18.9992 28.1417 17.8528 26.9265C16.7483 25.7558 16.7837 23.9002 17.9095 22.7486L23.5245 17.0129C23.766 16.7663 24.1617 16.762 24.4083 17.0035L25.3013 17.8777C25.548 18.1191 25.5522 18.5148 25.3107 18.7615L19.6964 24.4967C19.5037 24.6937 19.4918 25.0212 19.671 25.2112C19.8418 25.3922 20.1103 25.3952 20.2839 25.2177L27.4264 17.9188C28.1925 17.1351 28.1925 15.8592 27.426 15.0751C26.6764 14.3084 25.4745 14.308 24.7246 15.0751L16.5309 23.4564C15.1729 24.8454 15.152 27.0939 16.4843 28.4686C17.8128 29.8394 19.9603 29.8411 21.2913 28.4798L28.0124 21.6048C28.2537 21.358 28.6494 21.3535 28.8962 21.5948L29.7898 22.4684C30.0367 22.7097 30.0412 23.1054 29.7998 23.3522L23.0787 30.2271C20.7516 32.6075 16.9872 32.5793 14.6893 30.2082Z" fill="#828282"/>
</g>
<defs>
<clipPath id="clip0">
<rect width="17.5" height="20" fill="white" transform="translate(13 12)"/>
</clipPath>
</defs>
</svg>
