<svg width="44" height="44" viewBox="0 0 44 44" fill="none" xmlns="http://www.w3.org/2000/svg">
<circle cx="22" cy="22" r="20" fill="white" stroke="#DF0E2C" stroke-width="4"/>
<g clip-path="url(#clip0)">
<path d="M21.75 22C24.5117 22 26.75 19.7617 26.75 17C26.75 14.2383 24.5117 12 21.75 12C18.9883 12 16.75 14.2383 16.75 17C16.75 19.7617 18.9883 22 21.75 22ZM25.4922 23.2734L23.625 30.75L22.375 25.4375L23.625 23.25H19.875L21.125 25.4375L19.875 30.75L18.0078 23.2734C15.2227 23.4062 13 25.6836 13 28.5V30.125C13 31.1602 13.8398 32 14.875 32H28.625C29.6602 32 30.5 31.1602 30.5 30.125V28.5C30.5 25.6836 28.2773 23.4062 25.4922 23.2734Z" fill="#DF0E2C"/>
</g>
<defs>
<clipPath id="clip0">
<rect width="17.5" height="20" fill="white" transform="translate(13 12)"/>
</clipPath>
</defs>
</svg>
