<svg width="155" height="31" viewBox="0 0 155 31" fill="none" xmlns="http://www.w3.org/2000/svg">
<path fill-rule="evenodd" clip-rule="evenodd" d="M90.1795 22.7768H90.2046L90.2296 22.7741L90.255 22.7713L90.2674 22.7662L90.2927 22.7607L90.3177 22.7531L90.3428 22.7449L90.3554 22.736L90.3805 22.7251L90.3929 22.7134L90.4182 22.7003L90.4306 22.687L90.4557 22.6712L90.4683 22.6552L90.481 22.6394L90.5061 22.6222L90.5185 22.6037L90.5314 22.5839L90.5438 22.564L90.5562 22.5431L90.5688 22.5219L90.5812 22.4993L90.5942 22.477V22.453L90.6065 22.428L90.6189 22.4043V22.379L90.6316 22.3526V7.73918C90.6316 7.44861 90.4306 7.21056 90.1795 7.21056H87.7184C87.4673 7.21056 87.2663 7.44861 87.2663 7.73918V22.2457C87.2663 22.5403 87.4673 22.7768 87.7184 22.7768H90.1795ZM105.988 7.21056H103.628C103.377 7.21056 103.176 7.44861 103.176 7.73918V13.7774H98.1907V7.73918C98.1907 7.44861 97.99 7.21056 97.7515 7.21056H95.378C95.1395 7.21056 94.9259 7.44861 94.9259 7.73918V22.2457C94.9259 22.5403 95.1395 22.7768 95.378 22.7768H97.7513C97.99 22.7768 98.1907 22.5401 98.1907 22.2457V15.4424H103.176V22.2457C103.176 22.5403 103.377 22.7768 103.628 22.7768H105.988C106.24 22.7768 106.441 22.5401 106.441 22.2457V7.73918C106.441 7.44861 106.24 7.21056 105.988 7.21056ZM58.2105 7.21028C57.9607 7.21028 57.7711 7.44834 57.7711 7.73891V22.24C57.7711 22.5295 57.9607 22.7686 58.2105 22.7686H64.0181C67.4475 22.7686 70.1396 20.554 70.1396 14.9731C70.1396 9.47632 67.4852 7.21028 64.0809 7.21028H58.2105ZM61.0359 8.89491H63.2333C65.8967 8.89491 66.7492 10.758 66.7492 14.9729C66.7492 19.2329 65.9507 21.1172 63.2333 21.1172H61.0359V8.89491ZM76.9203 7.21028C76.7886 7.21028 76.624 7.34904 76.5752 7.50765L71.772 22.5047C71.7229 22.6606 71.797 22.7689 71.929 22.7689H73.3731C73.5062 22.7689 73.6694 22.6606 73.7183 22.505L74.9112 18.6729H80.0908L81.1898 22.2405C81.2776 22.5297 81.5791 22.7689 81.8175 22.7689H84.4546C84.693 22.7689 84.8251 22.5616 84.737 22.2737L79.934 7.73918C79.8462 7.43528 79.5886 7.21056 79.3375 7.21056L76.9203 7.21028ZM77.4855 10.3154L79.5574 17.021H75.4137L77.4855 10.3154ZM113.744 7.21028C113.605 7.21028 113.461 7.32918 113.398 7.47473L108.627 22.5044C108.576 22.6603 108.627 22.7686 108.752 22.7686H110.228C110.353 22.7686 110.523 22.6603 110.573 22.5047L111.766 18.6727H116.945L118.044 22.2403C118.132 22.5295 118.421 22.7686 118.672 22.7686H121.278C121.516 22.7686 121.661 22.5346 121.56 22.2403L116.789 7.73891C116.701 7.44807 116.412 7.21028 116.161 7.21028H113.744ZM114.34 10.3154L116.412 17.021H112.268L114.34 10.3154ZM131.781 7.22389H120.73C120.605 7.22389 120.492 7.34278 120.492 7.50139V8.62448C120.492 8.78309 120.592 8.91505 120.73 8.91505H124.661V22.2457C124.661 22.5403 124.862 22.7768 125.113 22.7768H127.499C127.75 22.7768 127.951 22.5401 127.951 22.2457V8.91505H131.781C131.944 8.91505 132.057 8.78309 132.057 8.62448V7.50139C132.057 7.34278 131.931 7.22389 131.78 7.22389H131.781ZM153.077 17.6462V7.50139C153.077 7.34278 153.19 7.22389 153.328 7.22389H154.759C154.897 7.22389 154.998 7.34278 154.998 7.50139V17.1505C154.998 18.0385 155.011 18.3225 154.973 18.8642C154.797 21.9402 152.913 22.9365 149.9 22.9365C146.321 22.9365 144.651 20.8051 144.325 18.8854C144.199 18.1372 144.174 17.3673 144.186 16.7171V7.75251C144.186 7.44861 144.387 7.22389 144.639 7.22389H146.999C147.251 7.22389 147.451 7.44861 147.451 7.75251V17.8682C147.439 18.2711 147.439 18.7045 147.527 19.1643C147.677 20.0101 148.217 21.3933 150.314 21.3933C152.16 21.3933 153.077 20.2425 153.077 18.8234V17.6462ZM140.645 9.62867H140.671V9.64173H140.771L140.784 9.62867H140.796V9.61534H140.809V9.60228H140.821V9.58895L140.834 9.57589L140.846 9.56256V9.53617L140.859 9.52284V9.49645L140.872 9.48339V8.08253C140.872 7.89752 140.796 7.83141 140.645 7.75224C140.645 7.75224 140.344 7.56723 139.616 7.35584C138.844 7.14907 138.051 7.04253 137.255 7.03861C135.083 7.03861 134.066 7.79169 133.45 8.67699C132.835 9.54896 132.609 10.6326 132.81 11.8218C133.149 13.8168 134.668 15.0458 136.2 16.2535C137.393 17.1981 138.549 17.9248 138.925 19.1376C139.088 19.6382 139.026 20.4022 138.624 20.7945C138.185 21.2189 137.695 21.3838 136.891 21.3838C135.974 21.3838 134.832 21.1765 133.626 20.5886C133.413 20.4748 133.162 20.3453 133.162 20.3453C133.036 20.2885 132.936 20.3665 132.936 20.5159V21.9151C132.936 22.0697 133.036 22.1992 133.174 22.2612C133.174 22.2612 133.337 22.3325 133.501 22.3894C134.505 22.7512 135.635 22.9362 136.916 22.9362C139.063 22.9362 140.206 22.1265 140.809 21.4037C141.5 20.5831 141.838 19.3596 141.587 17.8995C141.173 15.5926 139.34 14.3321 137.87 13.2488C136.766 12.4296 135.66 11.6235 135.372 10.6987C135.171 9.99841 135.447 9.52257 135.61 9.28478C135.899 8.87532 136.552 8.57143 137.393 8.57143C138.134 8.57143 138.913 8.71671 139.754 9.1395C139.93 9.21867 140.294 9.40368 140.645 9.6284V9.62867ZM47.902 0.353149H0V30.0083H47.902V0.353149Z" fill="#E92227"/>
<path fill-rule="evenodd" clip-rule="evenodd" d="M14.4693 9.10007H15.3406L16.2311 9.1134L18.063 9.13979L19.9514 9.2059L21.8816 9.28507L23.8367 9.39091L25.8019 9.53619L27.7621 9.6948L29.7009 9.89287L31.6043 10.1176L33.4565 10.3687L34.3581 10.5007L35.2421 10.6593L36.105 10.8046L36.9448 10.9765L37.7611 11.1479L38.5509 11.3329L39.3129 11.5179L40.044 11.7296L40.7433 11.941L41.4088 12.1524L42.0378 12.3902L42.6294 12.6279C43.198 12.8657 43.6501 13.0771 43.6501 13.5132C43.6501 14.121 42.3995 14.5438 41.2468 14.9272C36.7239 16.4135 28.6448 18.1416 16.8149 19.0299L5.84147 7.48781C4.77791 7.5142 3.89027 7.55392 3.2323 7.6067L14.5685 19.5302L11.492 24.2525C29.8125 21.2029 38.0977 18.152 41.7767 16.3724C42.5654 15.9942 44.8268 14.9269 44.8268 13.513C44.8268 12.6674 44.0621 12.1521 43.0712 11.7029C39.2943 9.99843 32.9466 8.86201 26.6732 8.29394C20.1738 7.62003 11.5171 7.43503 6.73427 7.48781L16.9467 18.2306C18.8507 18.0857 20.7524 17.91 22.6512 17.7033L14.4693 9.10007Z" fill="white"/>
</svg>
