<svg width="75" height="74" viewBox="0 0 75 74" fill="none" xmlns="http://www.w3.org/2000/svg">
<g clip-path="url(#clip0)">
<path d="M51.2125 49.2924V67.8372C51.2125 69.0353 50.2427 70.0051 49.0478 70.0051H2.66479C1.4698 70.0051 0.5 69.0353 0.5 67.8372V6.16281C0.5 4.96609 1.4698 3.99484 2.66479 3.99484H35.1939C35.7682 3.99484 36.3182 4.2232 36.7252 4.63078L50.5773 18.5029C50.9829 18.909 51.211 19.4611 51.211 20.0364V22.2029L51.2125 49.2924Z" fill="#F2F2F2"/>
<path d="M51.2111 20.0364V22.2029H35.194C33.999 22.2029 33.0292 21.2316 33.0292 20.0349V3.99484H35.194C35.7683 3.99484 36.3183 4.2232 36.7253 4.63078L50.5774 18.5029C50.983 18.909 51.2111 19.4611 51.2111 20.0364Z" fill="#E1E6E9"/>
<path d="M20.815 30.4957H7.04797C5.85241 30.4957 4.88318 29.525 4.88318 28.3277C4.88318 27.1304 5.85241 26.1597 7.04797 26.1597H20.815C22.0106 26.1597 22.9798 27.1304 22.9798 28.3277C22.9798 29.525 22.0106 30.4957 20.815 30.4957Z" fill="#C9CED1"/>
<path d="M20.815 21.8238H7.04797C5.85241 21.8238 4.88318 20.8531 4.88318 19.6558C4.88318 18.4585 5.85241 17.4879 7.04797 17.4879H20.815C22.0106 17.4879 22.9798 18.4585 22.9798 19.6558C22.9798 20.8531 22.0106 21.8238 20.815 21.8238Z" fill="#C9CED1"/>
<path d="M20.815 39.1675H7.04797C5.85241 39.1675 4.88318 38.1969 4.88318 36.9996C4.88318 35.8023 5.85241 34.8316 7.04797 34.8316H20.815C22.0106 34.8316 22.9798 35.8023 22.9798 36.9996C22.9798 38.1969 22.0106 39.1675 20.815 39.1675Z" fill="#C9CED1"/>
<path d="M20.815 47.8394H7.04797C5.85241 47.8394 4.88318 46.8687 4.88318 45.6714C4.88318 44.4742 5.85241 43.5035 7.04797 43.5035H20.815C22.0106 43.5035 22.9798 44.4742 22.9798 45.6714C22.9798 46.8687 22.0106 47.8394 20.815 47.8394Z" fill="#C9CED1"/>
<path d="M20.815 56.5113H7.04797C5.85241 56.5113 4.88318 55.5406 4.88318 54.3433C4.88318 53.146 5.85241 52.1754 7.04797 52.1754H20.815C22.0106 52.1754 22.9798 53.146 22.9798 54.3433C22.9798 55.5406 22.0106 56.5113 20.815 56.5113Z" fill="#C9CED1"/>
<path d="M73.7948 45.1169L60.0753 57.6448C58.6946 58.905 56.4514 57.931 56.4514 56.042V51.4603H38.2695C37.0745 51.4603 36.1047 50.4905 36.1047 49.2924V37.7299C36.1047 36.5332 37.0745 35.5619 38.2695 35.5619H56.4499L56.4485 30.9817C56.4485 29.1015 58.6834 28.1115 60.0724 29.3789L73.7947 41.9126C74.7347 42.7721 74.7354 44.2568 73.7948 45.1169Z" fill="#DF0E2C"/>
</g>
<defs>
<clipPath id="clip0">
<rect width="74" height="74" fill="white" transform="translate(0.5)"/>
</clipPath>
</defs>
</svg>
