<svg width="20" height="20" viewBox="0 0 20 20" fill="none" xmlns="http://www.w3.org/2000/svg">
<path d="M14.4725 5.0084C13.775 5.0084 13.0878 4.99799 12.3903 5.0084C12.0987 5.01881 11.9946 4.9147 11.9946 4.62319C12.005 3.21767 12.005 1.81215 11.9946 0.406633C11.9946 -0.0306391 12.2029 -0.0514617 12.5152 0.063062C12.7963 0.167174 13.0253 0.364988 13.2232 0.573213C14.358 1.73927 15.5657 2.84286 16.6485 4.07139C16.7422 4.1755 16.8359 4.27962 16.8983 4.39414C17.117 4.81059 17.0128 4.99799 16.5443 5.0084C15.8572 5.0084 15.1701 5.0084 14.4725 5.0084Z" fill="#BDBDBD"/>
<path fill-rule="evenodd" clip-rule="evenodd" d="M2.01041 9.98438V1.24935C2.01041 0.312337 2.32275 0.0104112 3.25976 0.0104112C3.84002 0.0104112 4.42029 0.0110616 5.00072 0.0117121C6.74265 0.0136644 8.48604 0.0156183 10.2353 0C10.6309 0 10.7767 0.0937012 10.7663 0.510151C10.744 1.60292 10.7482 2.69037 10.7525 3.7801V3.78025C10.7542 4.21668 10.7559 4.65346 10.7559 5.0911C10.7559 5.91359 11.0994 6.25716 11.9219 6.25716C12.307 6.25716 12.692 6.25781 13.0773 6.25846C14.2335 6.26041 15.3913 6.26237 16.5549 6.24675C16.8881 6.24675 17.013 6.33004 17.0026 6.68402C16.9974 8.72983 16.9974 10.7756 16.9974 12.8214C16.9974 14.8673 16.9974 16.9131 16.9922 18.9589C16.9922 19.6252 16.6278 20 15.9615 20H3.06195C2.35398 20 2.01041 19.6252 2 18.886C2.01041 15.9188 2.01041 12.9516 2.01041 9.98438ZM8.25693 11.0046C8.25693 11.2214 8.25862 11.439 8.26032 11.657V11.6571C8.26457 12.2033 8.26884 12.7519 8.24651 13.2951C8.2361 13.6699 8.37145 13.7636 8.72543 13.7532C9.59385 13.7413 10.4657 13.743 11.3389 13.7447H11.339C11.9943 13.746 12.6503 13.7472 13.3064 13.7428C13.6916 13.7428 13.7853 13.8261 13.6604 14.2009C13.0253 16.2311 11.0471 17.6054 8.89201 17.4908C6.69524 17.3763 4.98779 15.8459 4.61299 13.6595C4.20695 11.2857 5.57082 9.02649 7.83006 8.33935C8.17364 8.23524 8.28816 8.28729 8.27775 8.6621C8.24651 9.24773 8.25042 9.83336 8.25432 10.419C8.25562 10.6142 8.25693 10.8094 8.25693 11.0046ZM11.3597 12.5027C11.5159 12.5034 11.672 12.504 11.8282 12.504C12.0154 12.504 12.2025 12.5023 12.3899 12.5006C12.8593 12.4964 13.3302 12.4921 13.8063 12.5144C14.1395 12.5248 14.202 12.3791 14.1916 12.0772C14.0875 9.97408 12.0885 7.97512 9.9646 7.83978C9.64185 7.80854 9.48568 7.87101 9.49609 8.24581C9.51692 9.5264 9.51692 10.807 9.49609 12.0876C9.49609 12.4415 9.62103 12.5248 9.95419 12.5144C10.4227 12.4988 10.8912 12.5008 11.3597 12.5027Z" fill="#BDBDBD"/>
</svg>
