<svg width="20" height="20" viewBox="0 0 20 20" fill="none" xmlns="http://www.w3.org/2000/svg">
<path fill-rule="evenodd" clip-rule="evenodd" d="M7.7031 18.8836L7.70033 18.8836C5.7866 18.8802 3.87375 18.8768 1.95883 18.8947C0.983495 18.903 0.159155 18.243 0.0122427 17.2237C0 17.136 0 17.0441 0 16.9522V2.89964C0 1.85531 0.816179 1.00313 1.83232 1.00313C7.27215 0.998956 12.712 0.998956 18.1559 1.00313C19.168 1.00313 19.9841 1.85113 19.9964 2.89547C20.0018 3.50814 20 4.12082 19.9982 4.73349C19.9973 5.03983 19.9964 5.34617 19.9964 5.65251V16.9104C19.9964 17.6498 19.7066 18.2305 19.0863 18.6231C18.7721 18.8236 18.4252 18.8947 18.0579 18.8947C15.3733 18.8863 12.6846 18.8863 10 18.8863H9.99819C9.23289 18.8863 8.46793 18.8849 7.7031 18.8836ZM12.6386 6.26086H7.96252C7.56713 6.26086 7.3896 6.05944 7.3775 5.55847C7.3654 4.97487 7.3654 4.3861 7.3775 3.80249C7.38557 3.31701 7.5752 3.10526 7.95041 3.10526H17.3228C17.7102 3.10526 17.8917 3.33251 17.8917 3.82831C17.8957 4.41192 17.8957 4.99552 17.8917 5.58429C17.8877 6.03878 17.7102 6.26086 17.3511 6.26086C16.3051 6.2643 15.2592 6.26316 14.2121 6.26201H14.2118H14.2114C13.6875 6.26144 13.1633 6.26086 12.6386 6.26086ZM3.36866 6.26201C3.4732 6.26144 3.57794 6.26087 3.68324 6.26087C3.75318 6.26087 3.82311 6.26119 3.89305 6.26151C4.10285 6.26248 4.31265 6.26344 4.52246 6.25571C5.00564 6.25571 5.24978 6.03921 5.24978 5.54433C5.2509 5.40597 5.25353 5.26736 5.25617 5.1286C5.2654 4.64183 5.27467 4.15333 5.21926 3.66795C5.17857 3.33288 4.97004 3.11637 4.63435 3.11122C3.99858 3.10606 3.36281 3.10091 2.72705 3.11122C2.3761 3.11637 2.12179 3.3535 2.11671 3.70403C2.10145 4.3587 2.10145 5.00822 2.11671 5.6629C2.12688 6.04436 2.36593 6.25571 2.7423 6.26087C2.95234 6.2643 3.16012 6.26316 3.36866 6.26201Z" fill="#BDBDBD"/>
</svg>
