<svg width="18" height="20" viewBox="0 0 18 20" fill="none" xmlns="http://www.w3.org/2000/svg">
<path d="M17.5 2.85715V4.64285C17.5 6.21652 13.5807 7.5 8.75 7.5C3.91926 7.5 0 6.21652 0 4.64285V2.85715C0 1.28348 3.91926 0 8.75 0C13.5807 0 17.5 1.28348 17.5 2.85715ZM17.5 6.875V10.8929C17.5 12.4665 13.5807 13.75 8.75 13.75C3.91926 13.75 0 12.4665 0 10.8929V6.875C1.87988 8.16965 5.32062 8.77234 8.75 8.77234C12.1794 8.77234 15.6201 8.16965 17.5 6.875ZM17.5 13.125V17.1429C17.5 18.7165 13.5807 20 8.75 20C3.91926 20 0 18.7165 0 17.1429V13.125C1.87988 14.4196 5.32062 15.0223 8.75 15.0223C12.1794 15.0223 15.6201 14.4196 17.5 13.125Z" fill="#DF0E2C"/>
</svg>
