<svg width="20" height="18" viewBox="0 0 20 18" fill="none" xmlns="http://www.w3.org/2000/svg">
<path d="M12.5 12.125C12.5 12.4703 12.2203 12.75 11.875 12.75H8.125C7.77969 12.75 7.5 12.4703 7.5 12.125V10.25H0V15.875C0 16.875 0.875 17.75 1.875 17.75H18.125C19.125 17.75 20 16.875 20 15.875V10.25H12.5V12.125ZM18.125 4H15V2.125C15 1.125 14.125 0.25 13.125 0.25H6.875C5.875 0.25 5 1.125 5 2.125V4H1.875C0.875 4 0 4.875 0 5.875V9H20V5.875C20 4.875 19.125 4 18.125 4ZM12.5 4H7.5V2.75H12.5V4Z" fill="#DF0E2C"/>
</svg>
