<svg width="20" height="20" viewBox="0 0 20 20" fill="none" xmlns="http://www.w3.org/2000/svg">
<path fill-rule="evenodd" clip-rule="evenodd" d="M11.75 0V5.3125C11.75 5.82812 12.1719 6.25 12.6875 6.25H18V19.0625C18 19.582 17.582 20 17.0625 20H3.9375C3.41797 20 3 19.582 3 19.0625V0.9375C3 0.417969 3.41797 0 3.9375 0H11.75ZM18 5V4.76172C18 4.51562 17.9023 4.27734 17.7266 4.10156L13.9023 0.273438C13.7266 0.0976562 13.4883 0 13.2383 0H13V5H18ZM11 8.5C11 7.94772 10.5523 7.5 10 7.5C9.44772 7.5 9 7.94772 9 8.5V12.5V12.9142L9.29289 13.2071L11.7929 15.7071C12.1834 16.0976 12.8166 16.0976 13.2071 15.7071C13.5976 15.3166 13.5976 14.6834 13.2071 14.2929L11 12.0858V8.5Z" fill="#BDBDBD"/>
</svg>
