<svg width="18" height="13" viewBox="0 0 18 13" fill="none" xmlns="http://www.w3.org/2000/svg">
<path d="M14.0213 1.494C14.0197 1.09722 13.861 0.717224 13.5799 0.437216C13.2987 0.157208 12.9181 -3.17426e-06 12.5213 0H2.44434C2.04651 0 1.66498 0.158035 1.38368 0.43934C1.10237 0.720644 0.944336 1.10218 0.944336 1.5V10.5C0.944336 11.163 1.20773 11.7989 1.67657 12.2678C2.14541 12.7366 2.78129 13 3.44434 13H14.5983C15.2614 13 15.8973 12.7366 16.3661 12.2678C16.8349 11.7989 17.0983 11.163 17.0983 10.5V4.5C17.0983 4.10218 16.9403 3.72064 16.659 3.43934C16.3777 3.15804 15.9962 3 15.5983 3H15.0213V10.23C15.0213 10.3626 14.9687 10.4898 14.8749 10.5836C14.7811 10.6773 14.6539 10.73 14.5213 10.73C14.3887 10.73 14.2615 10.6773 14.1678 10.5836C14.074 10.4898 14.0213 10.3626 14.0213 10.23V1.495V1.494ZM3.02134 3.5C3.02134 3.36739 3.07401 3.24021 3.16778 3.14645C3.26155 3.05268 3.38873 3 3.52134 3H11.5213C11.6539 3 11.7811 3.05268 11.8749 3.14645C11.9687 3.24021 12.0213 3.36739 12.0213 3.5C12.0213 3.63261 11.9687 3.75979 11.8749 3.85355C11.7811 3.94732 11.6539 4 11.5213 4H3.52134C3.38873 4 3.26155 3.94732 3.16778 3.85355C3.07401 3.75979 3.02134 3.63261 3.02134 3.5ZM8.52134 6H11.5213C11.6539 6 11.7811 6.05268 11.8749 6.14645C11.9687 6.24021 12.0213 6.36739 12.0213 6.5C12.0213 6.63261 11.9687 6.75979 11.8749 6.85355C11.7811 6.94732 11.6539 7 11.5213 7H8.52134C8.38873 7 8.26155 6.94732 8.16778 6.85355C8.07401 6.75979 8.02134 6.63261 8.02134 6.5C8.02134 6.36739 8.07401 6.24021 8.16778 6.14645C8.26155 6.05268 8.38873 6 8.52134 6ZM8.02134 9.5C8.02134 9.36739 8.07401 9.24021 8.16778 9.14645C8.26155 9.05268 8.38873 9 8.52134 9H11.5213C11.6539 9 11.7811 9.05268 11.8749 9.14645C11.9687 9.24021 12.0213 9.36739 12.0213 9.5C12.0213 9.63261 11.9687 9.75979 11.8749 9.85355C11.7811 9.94732 11.6539 10 11.5213 10H8.52134C8.38873 10 8.26155 9.94732 8.16778 9.85355C8.07401 9.75979 8.02134 9.63261 8.02134 9.5ZM3.52134 6H6.52134C6.65394 6 6.78112 6.05268 6.87489 6.14645C6.96866 6.24021 7.02134 6.36739 7.02134 6.5V9.5C7.02134 9.63261 6.96866 9.75979 6.87489 9.85355C6.78112 9.94732 6.65394 10 6.52134 10H3.52134C3.38873 10 3.26155 9.94732 3.16778 9.85355C3.07401 9.75979 3.02134 9.63261 3.02134 9.5V6.5C3.02134 6.36739 3.07401 6.24021 3.16778 6.14645C3.26155 6.05268 3.38873 6 3.52134 6Z" fill="white"/>
</svg>
