<svg width="20" height="20" viewBox="0 0 20 20" fill="none" xmlns="http://www.w3.org/2000/svg">
<path d="M18.3333 2H1.66667C0.746528 2 0 2.74104 0 3.65441V4.20588H20V3.65441C20 2.74104 19.2535 2 18.3333 2ZM0 15.7868C0 16.7001 0.746528 17.4412 1.66667 17.4412H18.3333C19.2535 17.4412 20 16.7001 20 15.7868V5.30882H0V15.7868ZM12.2222 7.79044C12.2222 7.63879 12.3472 7.51471 12.5 7.51471H17.5C17.6528 7.51471 17.7778 7.63879 17.7778 7.79044V8.34191C17.7778 8.49357 17.6528 8.61765 17.5 8.61765H12.5C12.3472 8.61765 12.2222 8.49357 12.2222 8.34191V7.79044ZM12.2222 9.99632C12.2222 9.84467 12.3472 9.72059 12.5 9.72059H17.5C17.6528 9.72059 17.7778 9.84467 17.7778 9.99632V10.5478C17.7778 10.6994 17.6528 10.8235 17.5 10.8235H12.5C12.3472 10.8235 12.2222 10.6994 12.2222 10.5478V9.99632ZM12.2222 12.2022C12.2222 12.0506 12.3472 11.9265 12.5 11.9265H17.5C17.6528 11.9265 17.7778 12.0506 17.7778 12.2022V12.7537C17.7778 12.9053 17.6528 13.0294 17.5 13.0294H12.5C12.3472 13.0294 12.2222 12.9053 12.2222 12.7537V12.2022ZM6.11111 7.51471C7.33681 7.51471 8.33333 8.50391 8.33333 9.72059C8.33333 10.9373 7.33681 11.9265 6.11111 11.9265C4.88542 11.9265 3.88889 10.9373 3.88889 9.72059C3.88889 8.50391 4.88542 7.51471 6.11111 7.51471ZM2.32986 14.5528C2.62153 13.667 3.45833 13.0294 4.44444 13.0294H4.72917C5.15625 13.2052 5.62153 13.3051 6.11111 13.3051C6.60069 13.3051 7.06944 13.2052 7.49306 13.0294H7.77778C8.76389 13.0294 9.60069 13.667 9.89236 14.5528C10.0035 14.8941 9.71181 15.2353 9.35069 15.2353H2.87153C2.51042 15.2353 2.21875 14.8906 2.32986 14.5528V14.5528Z" fill="#DF0E2C"/>
</svg>
