<svg width="20" height="17" viewBox="0 0 20 17" fill="none" xmlns="http://www.w3.org/2000/svg">
<path d="M19.1667 0H3.05556C2.59531 0 2.22222 0.47569 2.22222 1.0625V1.41667H0.833333C0.37309 1.41667 0 1.89236 0 2.47917V14.5208C0 15.89 0.870556 17 1.94444 17H18.3333C19.2538 17 20 16.0486 20 14.875V1.0625C20 0.47569 19.6269 0 19.1667 0ZM1.94444 14.875C1.87077 14.875 1.80012 14.8377 1.74803 14.7713C1.69593 14.7048 1.66667 14.6148 1.66667 14.5208V3.54167H2.22222V14.5208C2.22222 14.6148 2.19296 14.7048 2.14086 14.7713C2.08877 14.8377 2.01812 14.875 1.94444 14.875ZM10.1389 14.1667H4.86111C4.63101 14.1667 4.44444 13.9288 4.44444 13.6354V13.2812C4.44444 12.9879 4.63101 12.75 4.86111 12.75H10.1389C10.369 12.75 10.5556 12.9879 10.5556 13.2812V13.6354C10.5556 13.9288 10.369 14.1667 10.1389 14.1667ZM17.3611 14.1667H12.0833C11.8532 14.1667 11.6667 13.9288 11.6667 13.6354V13.2812C11.6667 12.9879 11.8532 12.75 12.0833 12.75H17.3611C17.5912 12.75 17.7778 12.9879 17.7778 13.2812V13.6354C17.7778 13.9288 17.5912 14.1667 17.3611 14.1667ZM10.1389 9.91667H4.86111C4.63101 9.91667 4.44444 9.6788 4.44444 9.38542V9.03125C4.44444 8.73787 4.63101 8.5 4.86111 8.5H10.1389C10.369 8.5 10.5556 8.73787 10.5556 9.03125V9.38542C10.5556 9.6788 10.369 9.91667 10.1389 9.91667ZM17.3611 9.91667H12.0833C11.8532 9.91667 11.6667 9.6788 11.6667 9.38542V9.03125C11.6667 8.73787 11.8532 8.5 12.0833 8.5H17.3611C17.5912 8.5 17.7778 8.73787 17.7778 9.03125V9.38542C17.7778 9.6788 17.5912 9.91667 17.3611 9.91667ZM17.3611 5.66667H4.86111C4.63101 5.66667 4.44444 5.4288 4.44444 5.13542V3.36458C4.44444 3.0712 4.63101 2.83333 4.86111 2.83333H17.3611C17.5912 2.83333 17.7778 3.0712 17.7778 3.36458V5.13542C17.7778 5.4288 17.5912 5.66667 17.3611 5.66667Z" fill="#BDBDBD"/>
</svg>
