<svg width="20" height="16" viewBox="0 0 20 16" fill="none" xmlns="http://www.w3.org/2000/svg">
<path d="M14.4444 5.71429C14.4444 2.55714 11.2118 0 7.22222 0C3.23264 0 0 2.55714 0 5.71429C0 6.93929 0.489583 8.06786 1.31944 9C0.854167 10.0786 0.0868056 10.9357 0.0763889 10.9464C0 11.0286 -0.0208333 11.15 0.0243056 11.2571C0.0694444 11.3643 0.166667 11.4286 0.277778 11.4286C1.54861 11.4286 2.60069 10.9893 3.35764 10.5357C4.47569 11.0964 5.79861 11.4286 7.22222 11.4286C11.2118 11.4286 14.4444 8.87143 14.4444 5.71429ZM18.6806 13.5714C19.5104 12.6429 20 11.5107 20 10.2857C20 7.89643 18.1424 5.85 15.5104 4.99643C15.5417 5.23214 15.5556 5.47143 15.5556 5.71429C15.5556 9.49643 11.816 12.5714 7.22222 12.5714C6.84722 12.5714 6.48264 12.5429 6.12153 12.5036C7.21528 14.5571 9.78472 16 12.7778 16C14.2014 16 15.5243 15.6714 16.6424 15.1071C17.3993 15.5607 18.4514 16 19.7222 16C19.8333 16 19.934 15.9321 19.9757 15.8286C20.0208 15.725 20 15.6036 19.9236 15.5179C19.9132 15.5071 19.1458 14.6536 18.6806 13.5714Z" fill="#DF0E2C"/>
</svg>
