<svg width="24" height="24" viewBox="0 0 24 24" fill="none" xmlns="http://www.w3.org/2000/svg">
<path d="M5.45313 7.76562H0.296875V23.25H5.45313V7.76562ZM5.78125 2.98437C5.76563 1.46875 4.67188 0.312499 2.90625 0.312499C1.15625 0.312499 0 1.46875 0 2.98437C0 4.46875 1.10938 5.65625 2.84375 5.65625H2.875C4.67188 5.65625 5.79688 4.46875 5.78125 2.98437ZM24 14.375C24 9.625 21.4688 7.40625 18.0781 7.40625C15.2969 7.40625 14.0781 8.95312 13.4063 10.0156H13.4375V7.76562H8.29688C8.29688 7.76562 8.35938 9.21875 8.29688 23.25H13.4375V14.6094C13.4375 14.1406 13.4844 13.6875 13.6094 13.3437C13.9844 12.4219 14.8281 11.4687 16.25 11.4687C18.1094 11.4687 18.8594 12.8906 18.8594 14.9687V23.25H24V14.375Z" fill="#DF0E2C"/>
</svg>
