<svg width="26" height="19" viewBox="0 0 26 19" fill="none" xmlns="http://www.w3.org/2000/svg">
<path d="M10.3158 13.0804V5.78236L17.3382 9.45312L10.3158 13.0804ZM13 0.57366C7.53013 0.57366 3.9029 0.834821 3.9029 0.834821C3.39509 0.892856 2.2779 0.892856 1.29129 1.9375C1.29129 1.9375 0.493304 2.72098 0.261161 4.52009C-0.0145089 6.62388 0 8.72768 0 8.72768V10.7009C0 10.7009 -0.0145089 12.8047 0.261161 14.9085C0.493304 16.6931 1.29129 17.4911 1.29129 17.4911C2.2779 18.5212 3.58371 18.4922 4.16406 18.5938C4.16406 18.5938 6.23884 18.7969 13 18.8549C18.4699 18.8549 22.0971 18.5792 22.0971 18.5792C22.6049 18.5212 23.7221 18.5212 24.7087 17.4911C24.7087 17.4911 25.5067 16.6931 25.7388 14.9085C26.0145 12.8047 26 10.7009 26 10.7009V8.72768C26 8.72768 26.0145 6.62388 25.7388 4.52009C25.5067 2.72098 24.7087 1.9375 24.7087 1.9375C23.7221 0.892856 22.6049 0.892856 22.0971 0.834821C22.0971 0.834821 18.4699 0.57366 13 0.57366Z" fill="#DF0E2C"/>
</svg>
