<svg width="29" height="23" viewBox="0 0 29 23" fill="none" xmlns="http://www.w3.org/2000/svg">
<path d="M28.9286 2.85714C27.8929 3.30357 26.7679 3.625 25.6071 3.75C26.8036 3.03571 27.7143 1.91071 28.1429 0.571428C27.0357 1.23214 25.7857 1.71428 24.4821 1.96428C23.4286 0.839285 21.9286 0.142857 20.2679 0.142857C17.0714 0.142857 14.5 2.73214 14.5 5.91071C14.5 6.35714 14.5536 6.80357 14.6429 7.23214C9.85714 6.98214 5.58929 4.69643 2.75 1.19643C2.25 2.05357 1.96429 3.03571 1.96429 4.10714C1.96429 6.10714 2.98214 7.875 4.53571 8.91071C3.58929 8.875 2.69643 8.60714 1.92857 8.17857C1.92857 8.19643 1.92857 8.23214 1.92857 8.25C1.92857 11.0536 3.91071 13.375 6.55357 13.9107C6.07143 14.0357 5.55357 14.1071 5.03571 14.1071C4.66071 14.1071 4.30357 14.0714 3.94643 14.0179C4.67857 16.3036 6.80357 17.9643 9.33929 18.0179C7.35714 19.5714 4.875 20.4821 2.17857 20.4821C1.69643 20.4821 1.25 20.4643 0.785714 20.4107C3.33929 22.0536 6.375 23 9.64286 23C20.25 23 26.0536 14.2143 26.0536 6.58928C26.0536 6.33928 26.0536 6.08928 26.0357 5.83928C27.1607 5.01786 28.1429 4 28.9286 2.85714Z" fill="#DF0E2C"/>
</svg>
